<svg width="435" height="14" viewBox="0 0 435 14" fill="none" xmlns="http://www.w3.org/2000/svg">
<path d="M0.898438 2.2915C0.898438 1.18693 1.79387 0.291504 2.89844 0.291504H432.365C433.469 0.291504 434.365 1.18693 434.365 2.2915V8.03198H0.898438V2.2915Z" fill="#A3ACB1"/>
<path d="M0.898438 2.2915C0.898438 1.18693 1.79387 0.291504 2.89844 0.291504H432.365C433.469 0.291504 434.365 1.18693 434.365 2.2915V8.03198H0.898438V2.2915Z" fill="url(#paint0_linear_2_126)"/>
<path d="M0.898438 8.03174H434.365V8.03174C417.35 11.4634 400.035 13.1921 382.677 13.1921H47.9078C32.0967 13.1921 16.333 11.4616 0.898438 8.03174V8.03174Z" fill="#647279"/>
<path d="M0.898438 8.03174H434.365V8.03174C417.35 11.4634 400.035 13.1921 382.677 13.1921H47.9078C32.0967 13.1921 16.333 11.4616 0.898438 8.03174V8.03174Z" fill="url(#paint1_linear_2_126)"/>
<path fill-rule="evenodd" clip-rule="evenodd" d="M181.953 0.291504C182.174 3.65346 184.971 6.31187 188.389 6.31187H247.303C250.721 6.31187 253.518 3.65346 253.739 0.291504H181.953Z" fill="#96A1A8"/>
<path fill-rule="evenodd" clip-rule="evenodd" d="M181.953 0.291504C182.174 3.65346 184.971 6.31187 188.389 6.31187H247.303C250.721 6.31187 253.518 3.65346 253.739 0.291504H181.953Z" fill="url(#paint2_linear_2_126)"/>
<defs>
<linearGradient id="paint0_linear_2_126" x1="0.898437" y1="4.16183" x2="434.365" y2="4.16183" gradientUnits="userSpaceOnUse">
<stop stop-color="#0D1012"/>
<stop offset="0.0295345" stop-color="#CAD4DB"/>
<stop offset="0.0625" stop-color="#242729"/>
<stop offset="0.133609" stop-color="#A3ACB1"/>
<stop offset="0.865967" stop-color="#A3ACB1"/>
<stop offset="0.941937" stop-color="#242729"/>
<stop offset="0.971275" stop-color="#CAD4DB"/>
<stop offset="0.996436" stop-color="#0D1012"/>
</linearGradient>
<linearGradient id="paint1_linear_2_126" x1="217.632" y1="8.03174" x2="217.632" y2="13.1921" gradientUnits="userSpaceOnUse">
<stop stop-color="#7A7F83"/>
<stop offset="1" stop-color="#0B0B0E"/>
</linearGradient>
<linearGradient id="paint2_linear_2_126" x1="189.034" y1="3.94672" x2="247.948" y2="3.94672" gradientUnits="userSpaceOnUse">
<stop stop-color="#3C3C3C"/>
<stop offset="0.317518" stop-color="#3C3C3C" stop-opacity="0"/>
<stop offset="0.660584" stop-color="#3C3C3C" stop-opacity="0"/>
<stop offset="1" stop-color="#444444"/>
</linearGradient>
</defs>
</svg>
