<svg width="20" height="23" viewBox="0 0 20 23" fill="none" xmlns="http://www.w3.org/2000/svg">
<path d="M6.93809 6.71034L6.99917 6.35095L6.08471 4L5.58347 5.34981L5.31039 6.02794L5.00318 6.65258L4.95647 6.80446L4.97264 6.96062L5.95536 10.1009L6.9812 12.9461L7.06564 13.2199L7.05127 13.3525L6.93989 13.344L6.72968 13.1964L5.65533 12.2252L4.14262 10.7491L3.3144 9.98116L3.2084 9.94907L3.15271 10.0603L3.01437 11.3246L3 11.9535L3.02156 12.576L3.10061 13.3654L3.18864 13.8766L3.31261 14.3751L3.47071 14.8585L3.66114 15.3206L3.88212 15.7548L4.13184 16.1591L4.39953 16.5143L4.69057 16.8309L5.32656 17.3849L6.02004 17.8598L6.7746 18.2534L7.58845 18.57L8.2406 18.7583L8.8694 18.8909L9.50718 18.9743L10.1072 19L10.6768 18.9743L11.2319 18.893L11.7457 18.7604L12.2362 18.57L12.9207 18.2042L13.5387 17.77L14.092 17.2672L14.5789 16.6939L14.9903 16.0736L15.3389 15.3869L15.6263 14.636L15.8527 13.8189L15.9389 13.3568L15.991 12.8562L16 11.7374L15.8868 10.6293L15.7862 10.1309L15.6551 9.66885L15.2347 8.59924L14.5951 7.29861L14.5484 7.25154L14.516 7.31359L14.3993 7.93395L14.304 8.34468L14.0363 8.99928L13.6375 9.59825L13.4255 9.84211L12.9153 10.3127L12.3386 10.6957L11.6954 10.9909L10.9858 11.2005L10.524 11.239L10.0983 11.147L9.99046 11.1L9.80901 10.9652L9.66169 10.7085L9.59162 10.3555L9.58264 9.41214L9.7084 8.51153L9.94555 7.71576L10.9947 4.66954L10.9211 4.58612L8.65381 5.64929L8.15077 7.11465L7.9837 7.71148L7.86512 8.29976L7.79685 8.87948L7.77708 9.45064L7.81482 9.77366L7.9244 10.1202L7.928 10.1544L7.89926 10.1673H7.84895H7.84715L7.84356 10.163L7.43394 8.82386L6.97941 7.15742L6.95426 7.0355L6.93809 6.71034Z" fill="#2C8C7D"/>
</svg>
