<svg width="100" height="100" viewBox="0 0 100 100" fill="none" xmlns="http://www.w3.org/2000/svg">
<path fill-rule="evenodd" clip-rule="evenodd" d="M15.0264 74.0992H18.1917V43.7662H14.9348C14.5773 43.7662 14.2852 43.4713 14.2852 43.1104V32.7984C14.2852 32.4375 14.5773 32.1426 14.9348 32.1426H25.4729C25.8305 32.1426 26.1226 32.4375 26.1226 32.7984V35.778H56.0192V32.7984C56.0192 32.4375 56.3113 32.1426 56.6688 32.1426H67.2069C67.5645 32.1426 67.8566 32.4375 67.8566 32.7984V43.106C67.8566 43.4669 67.5645 43.7618 67.2069 43.7618H64.0983V74.0948H67.2069C67.5645 74.0948 67.8566 74.3897 67.8566 74.7506V85.0582C67.8566 85.4191 67.5645 85.714 67.2069 85.714H56.6732C56.3156 85.714 56.0235 85.4191 56.0235 85.0582V82.6288H26.2185V85.0582C26.2185 85.4191 25.9264 85.714 25.5689 85.714H15.0264C14.6688 85.714 14.3767 85.4191 14.3767 85.0582V74.755C14.3767 74.3941 14.6688 74.0992 15.0264 74.0992ZM22.1463 74.0992H25.5645C25.922 74.0992 26.2141 74.3941 26.2141 74.755V78.6457H56.0192V74.755C56.0192 74.3941 56.3113 74.0992 56.6688 74.0992H60.1437V43.7662H56.6688C56.3113 43.7662 56.0192 43.4713 56.0192 43.1104V39.7699H26.1269V43.1104C26.1269 43.4713 25.8348 43.7662 25.4773 43.7662H22.1506V74.0992H22.1463Z" fill="white"/>
<path d="M81.4694 24.9997C81.4195 24.9997 81.3696 24.9898 81.3213 24.9715C81.2183 24.93 81.1362 24.8486 81.0911 24.744L78.6862 19.0074L75.6938 21.9089C75.5747 22.0252 75.3992 22.0551 75.2479 21.9886C75.0982 21.9222 75 21.7677 75 21.5983V7.56766C75 7.39825 75.0966 7.24545 75.2479 7.17736C75.3976 7.11093 75.5731 7.14082 75.6938 7.25708L85.5838 16.7803C85.7029 16.8949 85.7447 17.0726 85.6916 17.2304C85.6385 17.3898 85.5 17.5011 85.3375 17.516L81.141 17.888L83.6569 23.5482C83.702 23.6495 83.7068 23.7674 83.6682 23.8737C83.6296 23.98 83.5539 24.0647 83.4541 24.1112L81.64 24.9615C81.5853 24.9864 81.5289 24.9997 81.4694 24.9997Z" fill="#2C8C7D"/>
</svg>
