<svg width="78" height="61" viewBox="0 0 78 61" fill="none" xmlns="http://www.w3.org/2000/svg">
<path fill-rule="evenodd" clip-rule="evenodd" d="M5.2812 0H72.7187C75.6259 0 78 2.38867 78 5.31379V55.6862C78 58.6049 75.6259 61 72.7187 61H5.2812C2.37398 61 -4.82854e-05 58.6113 -4.82854e-05 55.6862V5.31379C-4.82854e-05 2.38867 2.37398 0 5.2812 0ZM7.998 17.2123H69.4243V43.4492H7.998V17.2123ZM42.4467 53.4445C41.3168 53.4445 40.4028 52.4417 40.4028 51.2091C40.4028 49.9701 41.3168 48.9737 42.4467 48.9737H67.6152C68.7451 48.9737 69.6591 49.9765 69.6591 51.2091C69.6591 52.4481 68.7451 53.4445 67.6152 53.4445H42.4467ZM9.49605 53.4445C8.37886 53.4445 7.47114 52.4417 7.47114 51.2091C7.47114 49.9701 8.37886 48.9737 9.49605 48.9737H32.83C33.9472 48.9737 34.8549 49.9765 34.8549 51.2091C34.8549 52.4481 33.9472 53.4445 32.83 53.4445H9.49605ZM74.8833 12.8374H3.35786V56.2035C3.35786 56.6123 3.51655 56.97 3.78315 57.2446C4.0561 57.5128 4.41157 57.6725 4.81782 57.6725H73.3979C73.8042 57.6725 74.1596 57.5128 74.4326 57.2446C74.7055 56.97 74.8579 56.6123 74.8579 56.2035V12.8374H74.8833ZM67.6914 3.93425C69.1323 3.93425 70.3002 5.10942 70.3002 6.55921C70.3002 8.009 69.1323 9.18417 67.6914 9.18417C66.2504 9.18417 65.0825 8.009 65.0825 6.55921C65.0888 5.10942 66.2568 3.93425 67.6914 3.93425ZM50.0195 3.93425C51.4604 3.93425 52.6284 5.10942 52.6284 6.55921C52.6284 8.009 51.4604 9.18417 50.0195 9.18417C48.5786 9.18417 47.4106 8.009 47.4106 6.55921C47.4106 5.10942 48.5786 3.93425 50.0195 3.93425ZM58.8554 3.93425C60.2963 3.93425 61.4643 5.10942 61.4643 6.55921C61.4643 8.009 60.2963 9.18417 58.8554 9.18417C57.4145 9.18417 56.2465 8.009 56.2465 6.55921C56.2465 5.10942 57.4145 3.93425 58.8554 3.93425Z" fill="white"/>
</svg>
