<svg width="80" height="83" viewBox="0 0 80 83" fill="none" xmlns="http://www.w3.org/2000/svg">
<path fill-rule="evenodd" clip-rule="evenodd" d="M5.49515 0H74.5124C76.4661 0 78.0602 1.59434 78.0602 3.53321V22.726C78.0602 24.6717 76.4593 26.2592 74.5124 26.2592H64.1537V29.8735H74.5124C76.4661 29.8735 78.0602 31.4679 78.0602 33.4067V52.5995C78.0602 54.5452 76.4593 56.1328 74.5124 56.1328H64.1537L16.946 56.1463H5.49515C3.54145 56.1463 1.94729 54.5519 1.94729 52.6131V33.4135C1.94729 31.4679 3.54145 29.8803 5.49515 29.8803H16.946V26.266H5.49515C3.54145 26.266 1.94729 24.6717 1.94729 22.7328V3.53996C1.9405 1.58758 3.54145 0 5.49515 0ZM14.8092 37.7844H10.7525V48.2354H14.8092V37.7844ZM69.6892 13.133C69.6892 11.363 68.251 9.93082 66.4737 9.93082C64.6964 9.93082 63.2582 11.363 63.2582 13.133C63.2582 14.903 64.6964 16.3352 66.4737 16.3352C68.251 16.3352 69.6892 14.903 69.6892 13.133ZM57.4446 13.133C57.4446 11.363 56.0065 9.93082 54.2291 9.93082C52.4586 9.93082 51.0137 11.363 51.0137 13.133C51.0137 14.903 52.4518 16.3352 54.2291 16.3352C56.0065 16.3352 57.4446 14.903 57.4446 13.133ZM37.2224 7.90412H33.1658V18.3551H37.2224V7.90412ZM26.0158 7.90412H21.9592V18.3551H26.0158V7.90412ZM14.8092 7.90412H10.7525V18.3551H14.8092V7.90412ZM69.6892 43.0133C69.6892 41.2433 68.251 39.8111 66.4737 39.8111C64.6964 39.8111 63.2582 41.2433 63.2582 43.0133C63.2582 44.7833 64.6964 46.2155 66.4737 46.2155C68.251 46.2155 69.6892 44.7833 69.6892 43.0133ZM57.4446 43.0133C57.4446 41.2433 56.0065 39.8111 54.2291 39.8111C52.4586 39.8111 51.0137 41.2433 51.0137 43.0133C51.0137 44.7833 52.4518 46.2155 54.2291 46.2155C56.0065 46.2155 57.4446 44.7833 57.4446 43.0133ZM37.2224 37.7844H33.1658V48.2354H37.2224V37.7844ZM26.0158 37.7844H21.9592V48.2354H26.0158V37.7844ZM58.0484 29.8803H23.0513V26.266H58.0484V29.8803Z" fill="white"/>
</svg>
