<svg width="42" height="54" viewBox="0 0 42 54" fill="none" xmlns="http://www.w3.org/2000/svg">
<path fill-rule="evenodd" clip-rule="evenodd" d="M15.8778 42.5831H26.7548V47.4296L28.7801 53.1832H27.9087L24.5679 48.8844H23.0338L21.8091 53.1832H20.6114L19.841 48.8844H18.4515L15.0972 53.1832H13.8524L15.8744 47.4296L15.8778 42.5831ZM0.909676 38.1617L11.3729 17.9564V40.712H0.553053C0.455486 39.7787 0.569875 38.8234 0.909676 38.1617ZM20.137 1.02878C20.7157 -0.0886276 21.7318 0.047214 22.3979 1.33114C31.1924 18.3201 28.6422 20.98 28.6422 40.7164H13.886C13.886 20.9011 11.3089 18.0835 20.137 1.02878ZM31.1554 18.2412L41.3124 37.8594C41.7329 38.6657 41.9146 39.7436 41.8473 40.712H31.1554V18.2412Z" fill="white"/>
</svg>
