<svg width="170" height="60" viewBox="0 0 170 60" fill="none" xmlns="http://www.w3.org/2000/svg">
<g clip-path="url(#clip0_2_93)">
<path d="M0.478516 1.34451V0.820241H9.86327V1.34451H7.27982V36.9949H9.86327V37.5192H0.478516V36.9949H2.90379V1.34451H0.478516ZM28.6518 37.5192H24.2757V1.34451H15.1546V0.820241H37.8256V1.34451H28.6518V37.5192ZM37.412 37.5192H36.7793L52.5436 0.820241L53.1236 0.558105L66.4099 37.5192H61.9284L57.816 25.9852H42.4207L37.412 37.5192ZM50.9092 6.48237L42.6316 25.461H57.6578L50.9092 6.48237ZM91.2059 37.5192H71.171V0.820241H75.5471V36.9949H91.2059V37.5192ZM96.503 1.34451V0.820241H105.888V1.34451H103.304V36.9949H105.888V37.5192H96.503V36.9949H98.9283V1.34451H96.503ZM111.297 37.5192H110.664L126.428 0.820241L127.008 0.558105L140.294 37.5192H135.813L131.701 25.9852H116.305L111.297 37.5192ZM124.794 6.48237L116.516 25.461H131.542L124.794 6.48237ZM145.477 37.5192H144.792V0.820241H146.585L168.518 34.7406V0.820241H169.203V37.5192H165.354L145.477 7.11149V37.5192ZM34.5278 46.3165C35.9548 46.2187 37.2156 46.1697 38.3107 46.1697C41.3491 46.1697 42.8686 47.1789 42.8686 49.1973C42.8686 50.0537 42.6593 50.8181 42.2412 51.491C41.8229 52.1639 41.1032 52.6103 40.0822 52.8305L43.7728 59.0143H42.0567L38.4399 52.9406H36.0594V59.0143H34.5278V46.3165ZM38.3107 46.3532C37.5971 46.3532 36.8466 46.3959 36.0594 46.4816V52.7571H38.7905C40.5251 52.6837 41.3924 51.5094 41.3924 49.234C41.3924 48.3042 41.134 47.5949 40.6173 47.1055C40.1007 46.604 39.3317 46.3532 38.3107 46.3532ZM52.9549 46.1697V46.3532H47.1421V51.858H52.5304V52.0415H47.1421V58.8308H53.3608V59.0143H45.6105V46.1697H52.9549ZM62.1147 46.9404C60.9952 46.5123 59.9373 46.2981 58.9408 46.2981C57.9567 46.2981 57.1878 46.506 56.6342 46.922C56.0806 47.338 55.8038 47.9129 55.8038 48.6469C55.8038 49.5399 56.2712 50.2309 57.2062 50.7203C57.6246 50.9282 58.0796 51.124 58.5717 51.3075C59.076 51.4787 59.5806 51.6745 60.0849 51.8947C60.5892 52.1149 61.0505 52.3658 61.4689 52.647C61.8872 52.9283 62.2255 53.3199 62.4838 53.8214C62.7422 54.3108 62.8713 54.9407 62.8713 55.7114C62.8713 56.4698 62.656 57.1183 62.2255 57.6564C61.795 58.1946 61.272 58.5616 60.6569 58.7574C60.0541 58.9409 59.3468 59.0327 58.5348 59.0327C57.0217 59.0327 55.73 58.6596 54.6597 57.9133L54.7519 57.7665C55.1579 58.0845 55.6807 58.3477 56.3205 58.5556C56.9724 58.7514 57.6367 58.8492 58.3134 58.8492C59.3099 58.8492 60.1587 58.6229 60.8599 58.1702C61.5735 57.7055 61.9302 57.0265 61.9302 56.1334C61.9302 55.1549 61.4628 54.3902 60.5278 53.8398C60.1094 53.5952 59.6481 53.3687 59.1438 53.1608C58.6516 52.9529 58.1534 52.7388 57.6491 52.5186C57.1448 52.2861 56.6835 52.0292 56.2651 51.7479C55.33 51.1364 54.8627 50.2676 54.8627 49.1423C54.8627 48.2492 55.164 47.5275 55.7669 46.977C56.3698 46.4142 57.274 46.133 58.4795 46.133C59.6974 46.133 60.9337 46.3408 62.1886 46.7569L62.1147 46.9404ZM68.6082 59.0143H67.0765V46.3532H63.8841V46.1697H71.819V46.3532H68.6082V59.0143ZM71.6743 59.0143H71.4528L76.9703 46.1697L77.1733 46.0779L81.8235 59.0143H80.255L78.8157 54.9774H73.4273L71.6743 59.0143ZM76.3983 48.1514L73.5011 54.7939H78.7603L76.3983 48.1514ZM92.5461 46.1697H92.786V53.5095C92.786 55.4301 92.4046 56.843 91.6419 57.7482C90.879 58.6413 89.8825 59.0877 88.6525 59.0877C87.8775 59.0877 87.2192 59.0203 86.678 58.8859C86.1366 58.7391 85.6262 58.4761 85.1464 58.0968C84.1621 57.3385 83.6702 55.8092 83.6702 53.5095V46.1697H85.2018V53.4911C85.2018 55.7174 85.54 57.2037 86.2167 57.95C86.561 58.317 86.9179 58.5679 87.287 58.7024C87.6682 58.8368 88.1234 58.9042 88.6525 58.9042C89.8335 58.9042 90.7746 58.4761 91.4758 57.6197C92.1892 56.7513 92.5461 55.3751 92.5461 53.4911V46.1697ZM95.095 46.3165C96.5223 46.2187 97.7831 46.1697 98.8779 46.1697C101.917 46.1697 103.436 47.1789 103.436 49.1973C103.436 50.0537 103.227 50.8181 102.808 51.491C102.39 52.1639 101.671 52.6103 100.649 52.8305L104.34 59.0143H102.624L99.0071 52.9406H96.6266V59.0143H95.095V46.3165ZM98.8779 46.3532C98.1646 46.3532 97.4141 46.3959 96.6266 46.4816V52.7571H99.3577C101.092 52.6837 101.96 51.5094 101.96 49.234C101.96 48.3042 101.701 47.5949 101.185 47.1055C100.668 46.604 99.8992 46.3532 98.8779 46.3532ZM105.661 59.0143H105.44L110.957 46.1697L111.16 46.0779L115.811 59.0143H114.242L112.803 54.9774H107.414L105.661 59.0143ZM110.385 48.1514L107.488 54.7939H112.747L110.385 48.1514ZM117.625 59.0143H117.385V46.1697H118.012L125.689 58.0418V46.1697H125.928V59.0143H124.581L117.625 48.3716V59.0143ZM132.401 59.0143H130.87V46.3532H127.677V46.1697H135.612V46.3532H132.401V59.0143Z" fill="black"/>
</g>
<defs>
<clipPath id="clip0_2_93">
<rect width="168.978" height="58.7183" fill="white" transform="translate(0.476562 0.558105)"/>
</clipPath>
</defs>
</svg>
