<svg width="142" height="99" viewBox="0 0 142 99" fill="none" xmlns="http://www.w3.org/2000/svg">
<path d="M79.4307 0.497996C79.0133 0.684868 78.4548 1.15527 77.6201 1.99941C76.5561 3.08842 74.5105 5.16334 73.8051 5.87861C73.4347 6.25235 72.6176 7.09649 71.9945 7.74732L70.86 8.93299L70.1722 8.19839C69.2552 7.21248 68.5557 6.49722 67.3976 5.33732C66.8627 4.80249 66.0338 3.96479 65.5518 3.46861C63.6237 1.47746 63.0359 0.936178 62.5186 0.67198C62.0895 0.452889 61.6662 0.452889 61.3899 0.665536C61.1842 0.820189 60.8138 1.34214 60.8138 1.4839C60.8138 1.52257 61.337 2.05741 61.9778 2.66957C62.6126 3.28174 63.4003 4.06144 63.7236 4.40297C64.5113 5.22134 65.4578 6.16858 65.5048 6.18791C65.5283 6.2008 65.5871 6.12347 65.6459 6.02037C65.7576 5.79484 66.1044 5.54353 66.4453 5.42754L66.6863 5.35021L67.9561 6.69053C68.6497 7.42513 69.2199 8.05018 69.2199 8.06951C69.2199 8.19195 68.2382 9.06187 67.2977 9.77069C65.5283 11.0981 62.2717 12.6575 59.503 13.4888C58.7035 13.7337 58.486 13.8625 58.3626 14.1783C58.2861 14.3909 58.2861 14.436 58.3743 14.6358L58.4684 14.8613L58.8328 14.8227C59.0327 14.8033 59.4089 14.7196 59.6676 14.6293C59.9262 14.5391 60.4553 14.3587 60.8432 14.2298C64.3644 13.0377 67.4388 11.2914 69.7549 9.16497C69.9077 9.0232 70.0546 8.91366 70.0782 8.91366C70.1076 8.91366 70.2075 8.99098 70.3074 9.08764L70.4779 9.25518L70.2016 9.51938C70.0488 9.66114 69.9253 9.80291 69.9253 9.82224C69.9253 9.98978 70.4896 9.90601 70.6954 9.70625C70.7836 9.62893 70.8306 9.64181 71.0775 9.8158C71.3009 9.97045 71.4184 10.0091 71.6477 10.0027C71.8005 9.99622 71.9416 9.97045 71.9534 9.95112C71.9651 9.92534 71.8299 9.79647 71.6594 9.6547C71.4831 9.51938 71.3303 9.37117 71.3126 9.32606C71.2832 9.23585 71.7182 8.78478 71.8299 8.78478C71.8711 8.78478 71.9534 8.84922 72.018 8.92655C72.406 9.40983 74.099 10.7179 75.1865 11.3752C76.3328 12.0711 76.7148 12.2773 77.7671 12.7735C79.4013 13.5468 80.8709 14.1074 82.5344 14.5907C83.1634 14.7711 83.1869 14.7711 83.3221 14.6616C83.5338 14.494 83.5867 14.3716 83.5396 14.1654C83.4632 13.8432 83.2104 13.6434 82.6461 13.463C81.2294 13.0119 79.4307 12.3289 78.3314 11.8327C77.6789 11.5363 75.886 10.5568 75.3628 10.2024C74.5634 9.66759 72.9821 8.39815 72.7234 8.0824L72.6117 7.94708L73.7228 6.74853C74.3341 6.09125 74.9219 5.48553 75.0219 5.38888C75.2159 5.22778 75.2159 5.22778 75.4628 5.33732C75.9742 5.55642 76.0917 5.64019 76.1858 5.85928C76.2387 5.98171 76.3034 6.07837 76.3269 6.07837C76.3504 6.07837 76.515 5.92371 76.6913 5.73684C77.1734 5.22778 78.5665 3.82302 79.4189 2.98532C80.7827 1.65144 81.0061 1.41947 81.0237 1.34214C81.0531 1.21971 80.6063 0.613986 80.383 0.472221C80.1008 0.304681 79.8539 0.311125 79.4307 0.497996Z" fill="black"/>
<path d="M8.2313 6.05841C8.13725 6.07129 7.80218 6.14218 7.49651 6.21306C5.33915 6.72213 3.44633 7.98513 2.1237 9.78942C1.1185 11.162 0.536541 12.6892 0.319042 14.487C0.1133 16.2204 0.618838 18.5918 1.52998 20.1641C1.84741 20.7118 2.57633 21.6849 2.97606 22.0844C3.37578 22.4968 4.21051 23.1605 4.51618 23.3216C4.63375 23.386 4.73368 23.4569 4.73368 23.4892C4.73368 23.5149 4.64551 23.5794 4.53382 23.6309C4.38686 23.6954 4.187 23.9338 3.82842 24.4557C3.55801 24.8553 2.94079 25.7316 2.45876 26.4082L1.58877 27.6326H0.959783L0.330799 27.6261L0.313164 29.2758C0.301407 30.1779 0.301407 30.9383 0.313164 30.9641C0.324921 30.9963 4.41625 31.0156 9.41285 31.0156H18.489V29.3402V27.6648H17.5309C16.849 27.6648 16.5433 27.639 16.4786 27.581C16.4316 27.5424 16.1788 27.0655 15.9143 26.5371C15.6557 26.0023 15.2265 25.1517 14.9679 24.6362C14.7034 24.1207 14.4917 23.6696 14.4917 23.6309C14.4917 23.5923 14.8033 23.3345 15.1854 23.051C16.3493 22.1939 17.3016 21.0598 18.0011 19.7066C18.7359 18.2889 19.0769 16.6328 18.9946 14.9123C18.9181 13.3465 18.5596 12.0835 17.8248 10.7818C16.9195 9.19014 15.7086 7.99158 14.1097 7.10876C13.2984 6.66413 13.2103 6.62547 12.5754 6.42571C11.6172 6.13573 10.6943 6.0133 9.49515 6.02619C8.89556 6.02619 8.33123 6.04552 8.2313 6.05841Z" fill="black"/>
<path d="M130.777 6.08423C129.866 6.20022 128.673 6.60619 127.855 7.07015C126.48 7.8563 125.057 9.20307 124.328 10.421C122.923 12.7794 122.559 15.531 123.323 18.0827C123.776 19.5971 124.299 20.5443 125.328 21.73C125.81 22.2842 126.827 23.167 127.162 23.3216C127.426 23.4441 127.438 23.5085 127.215 23.6245C127.109 23.676 126.927 23.85 126.815 24.0047C126.468 24.4815 125.533 25.7961 124.857 26.7562L124.217 27.6712L123.594 27.6584L122.976 27.639L122.959 29.3273L122.947 31.0156H132.029H141.111V29.3402V27.6648H140.147H139.177L139.066 27.4844C138.795 27.0591 137.179 23.7534 137.173 23.618C137.173 23.5729 137.343 23.4183 137.549 23.2636C138.413 22.6321 138.642 22.4259 139.265 21.73C140.847 19.945 141.634 17.883 141.652 15.4859C141.664 14.0102 141.446 12.9019 140.9 11.6518C139.918 9.39639 138.143 7.63077 135.885 6.65774C135.415 6.45798 134.516 6.21311 133.881 6.11001C133.252 6.01335 131.429 6.00046 130.777 6.08423Z" fill="black"/>
<path d="M55.0352 27.7171L55.0411 34.335L57.3865 34.3543C59.7614 34.3736 60.5256 34.3285 61.2251 34.1352C62.8887 33.6712 64.3113 32.1183 64.8168 30.198C65.1049 29.0896 65.193 27.3369 65.0167 26.1512C64.8345 24.9204 64.323 23.7219 63.6 22.8455C63.1121 22.2527 62.2774 21.6663 61.5602 21.415C60.7372 21.1314 60.2963 21.0928 57.5864 21.0928H55.0234L55.0352 27.7171ZM59.9025 22.9679C60.2141 23.0646 60.4609 23.2708 60.7725 23.7219C61.137 24.2374 61.3192 24.6627 61.5014 25.4231C61.6543 26.061 61.6601 26.1448 61.6601 27.6978C61.6601 29.1541 61.6484 29.3667 61.5249 29.9209C61.2722 31.0679 60.7313 32.0216 60.1494 32.3309C59.8555 32.492 59.7908 32.4985 59.103 32.4856L58.3741 32.4662L58.3565 27.7364C58.3447 23.9925 58.3565 22.9937 58.4153 22.9486C58.527 22.8713 59.6321 22.8842 59.9025 22.9679Z" fill="black"/>
<path d="M66.7793 29.0509V34.3735L69.5715 34.3542L72.3638 34.3349L72.7576 34.1222C72.981 34.0062 73.2103 33.8258 73.2926 33.6969C73.4983 33.407 73.657 33.0268 73.6041 32.9688C73.5806 32.9366 72.6165 32.9043 71.4644 32.885L69.3658 32.8528V31.3385V29.8242L70.277 29.792C71.2763 29.7533 71.529 29.6695 71.964 29.2571C72.1933 29.038 72.4872 28.4516 72.4108 28.3679C72.3814 28.3356 71.6878 28.3034 70.8648 28.297L69.3658 28.2777V26.7634V25.249L70.659 25.2168C71.9464 25.1846 71.9523 25.1846 72.2932 24.9977C72.6871 24.7786 72.9457 24.4822 73.1045 24.0763C73.1632 23.9152 73.2161 23.7798 73.2161 23.767C73.2161 23.7541 71.7701 23.7412 69.9948 23.7347H66.7734L66.7793 29.0509Z" fill="black"/>
<path d="M74.3926 29.0505V34.3667H75.7152H77.0378V29.1149C77.0378 26.228 77.0378 23.8438 77.0378 23.8116C77.0378 23.7858 76.4441 23.76 75.7152 23.7471L74.3926 23.7343V29.0505Z" fill="black"/>
<path d="M78.9766 29.0505V34.3667H80.1522H81.3279V31.3058C81.3279 29.5982 81.3514 28.245 81.3808 28.245C81.422 28.245 82.1744 29.2244 86.0483 34.3344C86.3716 34.7597 86.6832 35.1657 86.7478 35.2366C86.8478 35.359 86.8536 35.1979 86.8536 29.5466V23.7343H85.678H84.5023L84.4905 25.5836C84.4788 27.7875 84.4846 27.7101 84.4376 27.7617C84.4141 27.781 84.2554 27.6006 84.0849 27.3622C83.55 26.6147 82.6741 25.4677 82.1921 24.8813C81.4396 23.9598 80.9635 23.7343 79.7349 23.7343H78.9766V29.0505Z" fill="black"/>
<path d="M2.44163 32.0796C2.44163 32.3631 2.43575 33.5424 2.424 34.7087C2.41812 35.8687 2.424 36.8159 2.44751 36.8159C2.46514 36.8159 3.01771 36.2746 3.68196 35.6173C5.52775 33.7679 6.53294 32.7627 7.13253 32.1698L7.67334 31.6285L7.39706 31.6156C7.23834 31.6028 6.06268 31.5899 4.77533 31.5834L2.44163 31.5641V32.0796Z" fill="black"/>
<path d="M10.9887 32.8399C6.72097 37.3313 5.47475 38.6394 4.55772 39.6189C3.99339 40.2246 3.27623 40.9785 2.97056 41.2943L2.41211 41.8742L2.41799 43.4852C2.42387 44.368 2.4415 45.0962 2.45326 45.0962C2.47089 45.0962 3.03522 44.5162 3.71123 43.8074C4.96333 42.4929 5.75691 41.6552 9.55435 37.6857C13.9102 33.1235 15.321 31.6285 15.274 31.6156C15.2505 31.6091 14.551 31.5963 13.7221 31.5769L12.2173 31.5511L10.9887 32.8399Z" fill="black"/>
<path d="M125.088 31.5893C125.084 31.621 125.064 32.7879 125.064 34.2184C125.064 36.622 125.082 36.9764 125.211 36.7509C125.235 36.7122 125.523 36.4158 125.852 36.0872C126.181 35.7585 126.875 35.069 127.392 34.5535C129.209 32.7299 129.802 32.1435 130.061 31.9051C130.202 31.7697 130.311 31.5831 130.301 31.5831C130.228 31.5831 125.114 31.5893 125.088 31.5893Z" fill="black"/>
<path d="M134.311 32.1244C133.994 32.4531 133.706 32.7495 133.67 32.7881C133.629 32.8204 133.182 33.3037 132.671 33.8514C131.825 34.76 129.303 37.4213 126.228 40.6496L125.064 41.8675V43.5107V45.1475L125.194 45.025C125.264 44.9606 125.723 44.4837 126.211 43.9682C127.339 42.7632 128.386 41.6678 129.238 40.7785C130.337 39.6315 130.978 38.9614 131.913 37.9754C132.401 37.4599 133.506 36.3 134.382 35.3979C135.252 34.4958 136.063 33.6516 136.175 33.5292C136.292 33.4068 136.739 32.9299 137.168 32.4788C137.597 32.0213 137.948 31.538 137.937 31.5251C137.073 31.5251 135.691 31.5251 134.893 31.5251L134.311 32.1244Z" fill="black"/>
<path d="M9.36568 41.9449C5.55649 46.1077 2.44095 49.5552 2.43507 49.5938C2.41743 50.0191 2.44682 53.6599 2.47034 53.6341C2.59966 53.5053 10.0652 45.2893 12.8516 42.2027L16.2845 38.4137L16.3139 36.3903C16.3316 35.2755 16.3316 34.3669 16.3139 34.3669C16.2963 34.3669 13.169 37.7758 9.36568 41.9449Z" fill="black"/>
<path d="M131.983 41.9571L125.064 49.5415V51.6357V53.73L129.667 48.6393C132.195 45.8363 135.316 42.3888 136.598 40.9712L138.938 38.3936V36.3767C138.938 35.2748 138.932 34.3662 138.92 34.3662C138.914 34.3662 135.793 37.7815 131.983 41.9571Z" fill="black"/>
<path d="M84.474 38.9546C83.9685 39.032 83.3278 39.3864 82.9104 39.8246C81.8053 40.978 81.3879 42.8081 81.7641 44.8057C81.8405 45.2117 81.9875 45.7723 82.0874 46.0429C82.3226 46.6938 83.2043 48.6205 83.7392 49.6708C84.3388 50.8372 85.8378 54.0978 86.1611 54.9548C86.3081 55.3415 86.4844 55.8634 86.555 56.1083C86.843 57.1393 86.9371 58.5247 86.7666 59.3818C86.6843 59.8071 86.408 60.3741 86.1729 60.6061C85.9965 60.7737 85.3793 61.0572 85.1794 61.0636C84.4976 61.0701 83.7804 60.4192 83.3219 59.3689C82.5165 57.5324 82.1286 55.6185 81.9992 52.8412C81.964 52.1066 81.9052 51.894 81.7347 51.894C81.7053 51.894 81.6818 53.8014 81.6818 56.7333V61.5727L81.8464 61.4632C81.9346 61.3987 82.1756 61.1861 82.3872 60.9863C82.8928 60.5095 83.3101 60.1422 83.3513 60.1422C83.3748 60.1422 83.5629 60.3484 83.7804 60.5932C84.0802 60.9412 84.2801 61.1087 84.6504 61.3085C85.0913 61.5469 85.1853 61.5727 85.7144 61.6049C86.4139 61.6436 86.8724 61.534 87.4309 61.1925C89.0298 60.213 89.7117 58.2283 89.3296 55.683C89.0533 53.8787 88.4125 52.1711 86.7372 48.8009C84.7268 44.767 83.9685 42.7372 83.9509 41.3582C83.9391 40.1403 84.4976 39.3348 85.3617 39.3284C86.7019 39.3219 87.6366 41.4742 88.2421 45.9656C88.4067 47.2093 88.4596 47.4155 88.5889 47.4155C88.7065 47.4155 88.7065 47.351 88.7241 43.1432C88.73 40.7976 88.7241 38.8773 88.7006 38.8773C88.683 38.8773 88.4948 39.0126 88.2773 39.1802C88.0657 39.3542 87.6895 39.6248 87.4485 39.7859L87.0017 40.0823L86.649 39.7472C85.8731 39.0062 85.3558 38.8193 84.474 38.9546Z" fill="black"/>
<path d="M27.2481 39.2771C27.2481 39.3737 27.3246 39.3931 27.7654 39.4059L28.2769 39.4253L28.2945 50.2639L28.3062 61.1089L28.03 61.1218C27.8712 61.1282 27.6302 61.1347 27.4833 61.1411C27.2893 61.1411 27.2188 61.1669 27.2188 61.2378C27.2188 61.3796 28.3827 61.444 30.5106 61.4118C32.1801 61.386 32.3035 61.3731 32.8502 61.2185C33.5968 60.9994 34.1552 60.6707 34.696 60.1166C35.5014 59.2982 35.8541 58.5185 36.1304 56.9913C36.4184 55.3674 36.3067 53.7822 35.8306 52.6803C35.566 52.0746 35.0193 51.3013 34.5726 50.9147C34.2904 50.6634 33.3734 50.1479 32.8796 49.9546C32.6151 49.8515 32.5975 49.7999 32.8208 49.7355C33.1383 49.6517 33.9848 49.2264 34.3081 48.988C34.99 48.4854 35.6425 47.4994 35.8893 46.6102C36.1715 45.5727 36.2479 44.0584 36.0598 43.0403C35.7306 41.2489 34.7254 39.9472 33.2323 39.3802C32.8796 39.2448 32.7562 39.232 30.7458 39.2191C29.5819 39.2126 28.318 39.1933 27.9359 39.1869C27.3187 39.1675 27.2481 39.1804 27.2481 39.2771ZM32.7444 39.625C33.1677 39.8635 33.1559 39.7088 33.1559 44.6448C33.1559 49.6066 33.1794 49.3424 32.6974 49.5744C32.427 49.7097 31.6334 49.8064 31.3983 49.7419L31.2454 49.7033L31.2572 44.6577C31.2689 41.8868 31.2983 39.5799 31.3277 39.5284C31.41 39.3866 32.4446 39.4575 32.7444 39.625ZM32.7562 50.1543C33.1794 50.4379 33.1559 50.1221 33.1735 55.1677C33.1853 58.4411 33.1735 59.8073 33.1206 60.0714C32.9972 60.7287 32.4623 61.1089 31.651 61.1089C31.3277 61.1089 31.316 61.1025 31.2807 60.9092C31.2337 60.6385 31.2337 50.1221 31.2866 50.0706C31.3042 50.0448 31.604 50.0254 31.945 50.0254C32.4564 50.0254 32.6033 50.0448 32.7562 50.1543Z" fill="black"/>
<path d="M53.2305 39.2697C53.2305 39.3728 53.2775 39.3922 53.5479 39.3922C53.8242 39.3922 53.8653 39.4115 53.9006 39.5339C53.9182 39.6177 53.9359 44.6181 53.9359 50.6496C53.9359 57.551 53.9594 61.6235 53.9947 61.6235C54.1005 61.6235 54.7059 60.5281 55.188 59.4648C55.4349 58.9236 55.4584 58.8978 55.5113 59.046C55.5407 59.1362 55.6171 59.3682 55.6876 59.5615C56.1638 60.9663 56.5165 61.398 57.3042 61.5527C57.9155 61.6751 58.568 61.4238 59.1265 60.8632C59.8495 60.1286 60.2963 58.9364 60.5549 57.0419C60.6725 56.1591 60.7313 52.1897 60.6431 50.7656C60.4726 47.911 59.7907 46.068 58.7032 45.5267C57.9743 45.1594 57.2278 45.4301 56.7281 46.242L56.5224 46.5771V42.8525V39.1344L54.8764 39.1408C53.3069 39.1473 53.2305 39.1537 53.2305 39.2697ZM57.8509 46.184L58.0566 46.4095L58.039 53.3883C58.0155 60.8503 58.0213 60.6892 57.7274 61.0178C57.6157 61.1402 57.5217 61.1725 57.2689 61.1725C56.9103 61.1725 56.6987 61.0371 56.587 60.7343C56.5341 60.599 56.5224 58.9107 56.54 53.9489C56.5635 46.9186 56.5576 46.9766 56.8515 46.474C57.169 45.9198 57.5217 45.8231 57.8509 46.184Z" fill="black"/>
<path d="M90.2467 39.2253C90.1938 39.367 90.2584 39.3928 90.6229 39.3928C90.8756 39.3928 90.9638 39.4186 90.9932 39.4959C91.0402 39.6248 91.0402 60.8315 90.9932 61.0184C90.9638 61.1343 90.9168 61.1537 90.5994 61.1472C90.3172 61.1408 90.2349 61.1601 90.2349 61.231C90.2349 61.2826 90.3172 61.347 90.4113 61.3792C90.5994 61.4372 93.6679 61.4437 93.8971 61.3857C94.097 61.3341 94.05 61.1923 93.8089 61.1279L93.5856 61.0699L93.5679 54.5101C93.5562 48.7106 93.5679 47.9051 93.6502 47.5572C93.756 47.0932 93.9441 46.7195 94.191 46.4553C94.3498 46.2942 94.3968 46.2813 94.6025 46.3199C94.7319 46.3393 94.8847 46.4037 94.9494 46.4488C95.0493 46.5326 95.0552 46.8161 95.0552 53.8399V61.1408H94.8788C94.7671 61.1472 94.6966 61.1795 94.6848 61.2503C94.6731 61.3341 94.773 61.3534 95.3726 61.3985C96.125 61.4437 97.6299 61.4372 98.1002 61.3857C98.4764 61.3406 98.4646 61.2052 98.0766 61.1537C97.9062 61.1279 97.7592 61.0957 97.7357 61.0699C97.7181 61.0506 97.6945 57.9575 97.6887 54.1943C97.6769 49.7803 97.6534 47.2414 97.6123 47.0417C97.5123 46.5133 97.3183 46.1137 97.0244 45.8109C96.6658 45.4436 96.4072 45.3663 95.6136 45.3985C94.8435 45.4307 94.6613 45.5274 94.0206 46.2168C93.7678 46.4939 93.5562 46.7001 93.5562 46.6808C93.5562 46.6615 93.5503 44.9667 93.5385 42.9112L93.5268 39.1802L92.9389 39.1995C92.6156 39.2059 92.016 39.2188 91.5987 39.2317C91.1872 39.2382 90.8345 39.2253 90.8169 39.1931C90.764 39.0964 90.2819 39.1222 90.2467 39.2253Z" fill="black"/>
<path d="M16.1616 44.245C16.0734 44.3481 13.293 47.2543 11.8175 48.7686C11.165 49.4388 9.86587 50.7856 8.93121 51.7586C7.99655 52.7317 6.82087 53.956 6.32121 54.4715C5.82155 54.9935 4.73993 56.1147 3.91696 56.9717L2.42385 58.5183L2.41797 60.5868C2.41797 61.7274 2.42973 62.6553 2.44736 62.6553C2.48851 62.6553 3.20567 61.9271 4.205 60.8832C4.51067 60.561 5.14554 59.9102 5.61581 59.4333C6.08608 58.9565 6.70918 58.3121 6.99722 58.0092C7.29114 57.7064 7.96128 57.0104 8.49621 56.4691C9.03114 55.9278 9.71891 55.219 10.0246 54.8968C10.3303 54.5682 10.9828 53.9044 11.4648 53.4083C11.9527 52.9121 13.0226 51.8166 13.8455 50.9596C15.6913 49.0522 16.0147 48.7235 16.1851 48.5689L16.3145 48.4529V46.3071C16.3145 45.1278 16.2968 44.1613 16.2733 44.1613C16.2439 44.1677 16.1969 44.1999 16.1616 44.245Z" fill="black"/>
<path d="M138.25 44.8194C137.903 45.1867 137.268 45.844 136.851 46.2886C136.427 46.7332 135.557 47.6418 134.911 48.312C134.264 48.9821 133.482 49.7941 133.171 50.1163C132.865 50.4385 132.43 50.8895 132.201 51.1215C131.977 51.3535 131.278 52.0816 130.649 52.7389C130.02 53.3962 129.027 54.4208 128.445 55.0201C127.863 55.6193 127.134 56.3733 126.828 56.6955C126.522 57.0177 125.999 57.559 125.67 57.894L125.076 58.4998L125.07 60.6198L125.064 62.7334L125.993 61.7668C126.499 61.2384 127.128 60.594 127.386 60.3298C127.645 60.0721 128.321 59.3761 128.885 58.7962C129.45 58.2098 130.102 57.5396 130.326 57.3141C130.778 56.8501 131.56 56.0511 132.236 55.3487C132.477 55.0974 133.1 54.453 133.618 53.9246C134.135 53.3962 134.799 52.7132 135.087 52.4103C135.628 51.8561 136.674 50.78 138.132 49.2914L138.938 48.4666V46.3144C138.938 45.1287 138.926 44.1621 138.914 44.1621C138.896 44.1621 138.602 44.4585 138.25 44.8194Z" fill="black"/>
<path d="M40.4984 45.3919C39.505 45.4564 38.7232 45.8108 38.1471 46.4552C37.424 47.2607 37.2242 48.4785 37.6709 49.3485C38.1001 50.1733 39.3992 50.2764 40.0046 49.5289C40.6454 48.7234 40.4103 47.4797 39.5344 47.0673C39.2698 46.9449 39.1758 46.932 38.729 46.9707C38.2588 47.0093 38.2235 47.0093 38.2588 46.9062C38.3998 46.5132 38.9936 46.0105 39.5344 45.8366C40.4044 45.553 40.9746 45.7464 41.3155 46.4487C41.439 46.6936 41.4448 46.7967 41.4625 48.9554C41.4742 50.199 41.4684 51.2752 41.4507 51.3461C41.4096 51.52 41.0098 51.7069 39.8871 52.0935C38.7761 52.4737 37.9296 52.8861 37.718 53.1568C37.3711 53.5885 37.3594 53.7238 37.3594 57.2035V60.3674L37.5005 60.7025C37.6944 61.1536 38.006 61.392 38.5821 61.5338C38.97 61.6304 39.0759 61.6304 39.4109 61.5596C39.6284 61.5144 39.8812 61.4371 39.9753 61.392C40.2809 61.2502 40.6924 60.8701 41.0686 60.361L41.4331 59.8713L41.6094 60.3674C41.8328 61.0054 42.1032 61.3211 42.5735 61.4758C43.0496 61.6369 43.6963 61.6175 44.1489 61.4307C44.5957 61.2438 44.7896 61.102 45.1306 60.6961C45.4304 60.3417 45.5656 60.071 45.5068 59.9164C45.4598 59.7746 45.3716 59.8004 45.254 59.9808C44.7426 60.7734 44.5134 60.9796 44.2782 60.8378C43.9961 60.6767 44.0019 60.7734 44.0019 53.6658V46.9965L43.8726 46.6872C43.4317 45.6561 42.4148 45.2631 40.4984 45.3919ZM41.4566 55.3928C41.4331 58.3312 41.4213 58.808 41.3332 59.1431C41.1921 59.6651 40.8688 60.3352 40.6219 60.593C40.4338 60.7927 40.4103 60.7992 40.2398 60.7219C40.1398 60.6767 40.034 60.5865 40.0046 60.5221C39.9694 60.4512 39.9459 58.982 39.9459 56.7911C39.9459 52.899 39.9459 52.9184 40.2574 52.5446C40.4338 52.3384 40.7982 52.0871 41.1215 51.9518C41.3508 51.8551 41.3919 51.8551 41.4331 51.9389C41.4625 51.9904 41.4742 53.5434 41.4566 55.3928Z" fill="black"/>
<path d="M50.3138 45.5078C49.9846 45.6753 49.6848 46.0878 49.3615 46.8159C49.2087 47.1574 49.0617 47.441 49.0382 47.441C49.0147 47.4474 48.997 47.035 49.0029 46.5388C49.0088 45.8364 48.9911 45.6173 48.9324 45.5722C48.8324 45.5078 47.7626 45.5014 46.534 45.5594C45.7639 45.5916 45.6463 45.6109 45.6581 45.7011C45.6698 45.7784 45.7698 45.8107 46.0578 45.8364L46.4399 45.8687V53.5047V61.1407H46.0755C45.6698 61.1407 45.564 61.2051 45.7286 61.3404C45.8227 61.4113 46.2048 61.4307 47.8155 61.4307C48.903 61.4307 49.8259 61.4049 49.8729 61.3727C49.9199 61.3404 49.9376 61.2696 49.9199 61.2116C49.8905 61.1278 49.7965 61.1085 49.4732 61.1085C49.1028 61.1085 49.0676 61.0956 49.0323 60.9603C48.9676 60.7025 48.9911 50.3343 49.0617 49.4644C49.1381 48.414 49.3262 47.5698 49.6437 46.8417C50.0669 45.8751 50.4137 45.5851 50.8546 45.8107C51.0486 45.9138 51.0662 45.9395 51.0368 46.1329C51.0192 46.2488 50.9016 46.513 50.7782 46.7193C50.3608 47.4023 50.1316 48.2078 50.2021 48.762C50.302 49.6319 50.5313 50.0765 50.9839 50.2956C51.3719 50.4889 51.8422 50.3149 52.2713 49.8188C52.7063 49.3161 52.865 47.9694 52.5829 47.0672C52.3595 46.3262 51.8892 45.6882 51.4307 45.4756C51.1544 45.3467 50.6018 45.366 50.3138 45.5078Z" fill="black"/>
<path d="M64.6871 45.4696C63.6525 45.7918 62.7531 47.0097 62.2946 48.7109C61.9536 49.9739 61.8772 51.1983 61.936 54.5427C61.983 57.1267 62.0771 58.003 62.4357 59.2467C62.6825 60.0973 63.2939 60.877 64.0111 61.2572C66.192 62.4171 68.0907 60.5291 68.5434 56.7465C68.6727 55.6897 68.6609 54.9744 68.5199 54.8326C68.4611 54.7746 68.3729 54.7424 68.3141 54.7682C68.2377 54.8004 68.2201 54.91 68.2201 55.3675C68.2201 56.682 67.9085 58.3703 67.497 59.2725C66.9386 60.5097 66.2096 61.1541 65.4454 61.0961C64.9399 61.0575 64.7106 60.7804 64.5872 60.078C64.5225 59.7107 64.4402 53.763 64.499 53.5954C64.5225 53.5181 64.8576 53.5052 66.5858 53.5052H68.6433L68.6139 51.5849C68.5904 49.9482 68.5728 49.5809 68.4611 49.0525C68.1025 47.2546 67.3853 46.0367 66.4095 45.5663C66.0627 45.3923 65.0986 45.3408 64.6871 45.4696ZM65.6335 45.6759C65.7276 45.7338 65.8569 45.8692 65.9098 45.9852C66.0098 46.172 66.0156 46.4685 66.0156 49.6711V53.1508L65.2749 53.1701L64.5284 53.1894L64.5049 53.0219C64.452 52.7319 64.5225 46.4556 64.5813 46.2558C64.7283 45.7274 65.2338 45.4503 65.6335 45.6759ZM66.0862 53.3505C66.0685 53.3699 66.0156 53.3763 65.9745 53.357C65.9275 53.3377 65.9451 53.3183 66.0098 53.3183C66.0744 53.3119 66.1097 53.3312 66.0862 53.3505ZM68.32 55.6446C68.3024 55.6961 68.2847 55.6768 68.2847 55.6059C68.2788 55.535 68.2965 55.4964 68.3141 55.5221C68.3318 55.5415 68.3376 55.5995 68.32 55.6446Z" fill="black"/>
<path d="M74.2458 45.5085C73.8402 45.7082 73.4581 46.2882 73.029 47.3514C72.9584 47.5254 72.9526 47.4416 72.9349 46.5653L72.9173 45.5858L72.6469 45.5407C72.3765 45.4956 69.6254 45.56 69.5784 45.6116C69.5666 45.6244 69.5725 45.6824 69.5901 45.7404C69.6195 45.8113 69.7195 45.8371 70.0134 45.8371H70.3955L70.3837 53.486L70.3661 61.1413H69.984C69.6842 61.1413 69.6019 61.1607 69.6019 61.238C69.6019 61.3862 69.8547 61.4184 71.0715 61.4248C72.6645 61.4313 73.8637 61.3669 73.8637 61.2702C73.8637 61.1478 73.7226 61.1091 73.2994 61.1091H72.9173L72.9408 55.0647C72.9584 50.9793 72.9878 48.8915 73.0349 48.608C73.1818 47.6607 73.6991 46.3204 74.0342 46.0111C74.3163 45.7533 74.5809 45.6824 74.7984 45.8049C75.0511 45.9466 75.0335 46.0949 74.6926 46.707C74.1518 47.6736 74.0048 48.608 74.2634 49.4521C74.5221 50.2898 75.1393 50.5991 75.7624 50.1996C76.3267 49.8323 76.5619 49.3232 76.6089 48.3502C76.6618 47.3772 76.4502 46.6233 75.9505 45.9853C75.5273 45.4376 74.7925 45.2314 74.2458 45.5085Z" fill="black"/>
<path d="M101.979 45.4756C101.338 45.7011 100.58 46.4808 100.233 47.267C99.9683 47.8598 99.7626 48.6588 99.6274 49.5867C99.4745 50.6371 99.4804 55.2831 99.6332 56.6621C99.8449 58.5824 100.104 59.5103 100.633 60.2578C101.209 61.0761 101.714 61.4241 102.508 61.5594C103.537 61.727 104.536 61.2372 105.141 60.2578C105.588 59.536 105.841 58.7499 106.058 57.4031C106.147 56.849 106.164 56.3141 106.164 53.5046C106.164 50.2054 106.152 50.012 105.929 48.865C105.759 48.0016 105.277 46.8997 104.824 46.3519C104.589 46.062 104.166 45.7204 103.872 45.5722C103.495 45.3918 102.373 45.3338 101.979 45.4756ZM103.043 45.7333C103.29 45.8429 103.513 46.1715 103.613 46.5452C103.707 46.9061 103.695 60.2126 103.601 60.6057C103.507 60.9988 103.325 61.1857 102.984 61.2179C102.643 61.2501 102.373 61.0955 102.226 60.7926C102.061 60.4317 102.032 59.2074 102.043 52.828C102.055 48.0531 102.073 46.455 102.126 46.2746C102.208 46.004 102.555 45.6431 102.731 45.6431C102.796 45.6431 102.937 45.6818 103.043 45.7333Z" fill="black"/>
<path d="M111.279 45.5017C111.05 45.6563 110.779 45.9978 110.538 46.4425C110.426 46.6422 110.315 46.8033 110.285 46.8033C110.256 46.8033 110.244 46.5391 110.262 46.1912L110.291 45.5854L110.027 45.5403C109.768 45.5017 107.258 45.5532 107.211 45.5983C107.199 45.6112 107.205 45.6756 107.229 45.7336C107.258 45.811 107.34 45.8367 107.581 45.8367C107.887 45.8367 107.899 45.8432 107.905 46.0107C107.934 46.726 107.94 65.8643 107.911 66.1929L107.869 66.6182L107.534 66.6376C107.299 66.6504 107.193 66.6827 107.193 66.7407C107.193 66.7922 107.235 66.8502 107.287 66.8695C107.405 66.9211 111.273 66.9211 111.39 66.8695C111.443 66.8502 111.485 66.7922 111.485 66.7407C111.485 66.6698 111.385 66.6504 111.079 66.6504C110.856 66.6504 110.632 66.6311 110.579 66.6118C110.497 66.5796 110.485 66.2509 110.485 63.5703V60.561L110.756 60.9025C110.903 61.0894 111.144 61.3149 111.291 61.4116C111.814 61.7467 112.578 61.5856 113.125 61.0249C113.389 60.7479 113.801 60.0519 113.953 59.6202C114.676 57.5388 114.888 52.2355 114.371 49.0909C114.065 47.248 113.454 45.9914 112.648 45.5532C112.26 45.3406 111.561 45.3148 111.279 45.5017ZM111.761 46.0429C111.873 46.1718 111.972 46.3716 112.008 46.5456C112.049 46.7324 112.072 49.1296 112.072 53.4147C112.072 60.6576 112.078 60.503 111.726 60.7801C111.632 60.8574 111.496 60.9154 111.42 60.9154C111.061 60.9154 110.656 60.2646 110.544 59.4978C110.462 58.8985 110.462 47.7184 110.55 47.2415C110.679 46.552 111.149 45.8367 111.485 45.8367C111.537 45.8367 111.661 45.9334 111.761 46.0429Z" fill="black"/>
<path d="M15.9322 53.1702C15.7324 53.3699 15.0211 54.0981 14.3451 54.7876C13.6632 55.4771 12.8872 56.2697 12.6109 56.5596C12.3347 56.8496 11.7939 57.4038 11.4059 57.7904C11.0179 58.1835 10.2655 58.9503 9.73056 59.498C9.19562 60.0458 8.24333 61.0188 7.61435 61.6567C6.98536 62.2947 6.02131 63.2806 5.46875 63.8477C4.91618 64.4147 4.01092 65.3362 3.45835 65.8968C2.90579 66.4574 2.4414 66.9536 2.42376 66.9923C2.37673 67.1405 2.39437 70.4526 2.44727 70.4526C2.47079 70.4526 2.54133 70.4011 2.60011 70.3366C2.70004 70.2207 4.58699 68.339 5.58044 67.3596C5.85084 67.0954 6.85016 66.103 7.79658 65.1622C8.74887 64.215 9.88339 63.0873 10.3184 62.6555C10.7534 62.2238 11.3765 61.5987 11.6998 61.2766C12.0231 60.9479 12.5816 60.3937 12.9343 60.0458C13.2928 59.6914 14.0453 58.9374 14.6096 58.3704C15.1798 57.8033 15.7911 57.1911 15.9792 57.0172L16.3202 56.695L16.3026 54.7489L16.2849 52.8029L15.9322 53.1702Z" fill="black"/>
<path d="M138.467 53.2664C138.226 53.5242 137.286 54.4843 136.38 55.4058C135.475 56.3273 134.523 57.3003 134.264 57.5709C134.006 57.8416 133.594 58.2604 133.347 58.5053C133.1 58.7502 131.895 59.9809 130.667 61.2375C129.444 62.494 127.739 64.2339 126.887 65.1038C126.034 65.9737 125.276 66.747 125.2 66.8243C125.064 66.966 125.064 66.9725 125.064 68.7123C125.064 69.7691 125.088 70.4522 125.117 70.4393C125.147 70.4264 125.564 70.0269 126.04 69.55C127.257 68.3321 128.791 66.8049 130.531 65.0716C131.354 64.2532 132.477 63.1384 133.03 62.5907C133.576 62.0365 134.176 61.4437 134.364 61.2697C134.546 61.0893 135.14 60.4964 135.687 59.9487C136.233 59.401 137.039 58.6019 137.468 58.1767C137.897 57.7514 138.408 57.2423 138.597 57.049L138.943 56.6946L138.926 54.7485L138.908 52.8025L138.467 53.2664Z" fill="black"/>
<path d="M15.6036 61.5216C15.2274 61.8824 14.3692 62.6944 13.6932 63.3323C13.023 63.9702 12.2177 64.7371 11.9061 65.0399C11.3535 65.5748 9.49597 67.3404 8.14982 68.6098C7.7736 68.9642 6.76839 69.9244 5.91015 70.7427C5.0519 71.5546 4.15838 72.3988 3.92912 72.6114C3.69399 72.8176 3.5 73.0174 3.5 73.0432C3.5 73.069 4.17014 73.0947 4.99311 73.0947H6.49211L6.92711 72.6565C7.16812 72.4181 7.79711 71.8188 8.32617 71.3162C8.85523 70.82 9.59591 70.1241 9.96625 69.7697C10.654 69.1124 12.7291 67.1535 14.6396 65.3621C15.2274 64.8144 15.8446 64.2344 16.0092 64.0733L16.3208 63.7834L16.3032 62.3271L16.2855 60.8772L15.6036 61.5216Z" fill="black"/>
<path d="M138.609 61.1607C138.444 61.3282 137.744 62.0048 137.051 62.6621C136.357 63.3194 135.04 64.5759 134.117 65.4523C133.195 66.3351 132.084 67.3854 131.654 67.7979C130.044 69.3251 129.432 69.9114 128.968 70.3561C128.709 70.6009 127.975 71.2969 127.34 71.9026C126.705 72.5019 126.182 73.0174 126.182 73.0432C126.182 73.069 126.84 73.0947 127.651 73.0947H129.121L129.603 72.6243C129.873 72.3666 130.473 71.7931 130.943 71.3484C131.413 70.9038 132.454 69.9243 133.259 69.164C134.065 68.4036 134.929 67.5916 135.176 67.3597C135.699 66.8764 136.557 66.058 137.286 65.3621C137.562 65.0914 138.015 64.6661 138.291 64.4213C138.567 64.1699 138.826 63.9186 138.867 63.8671C138.92 63.7898 138.938 63.416 138.926 62.3141L138.908 60.8578L138.609 61.1607Z" fill="black"/>
<path d="M66.8746 65.1682C65.7459 65.5033 65.0582 66.3539 64.9994 67.4945C64.9759 67.9713 64.9876 68.0357 65.1581 68.4224C65.3638 68.8799 65.6519 69.1763 66.1339 69.4212C66.3808 69.5501 66.516 69.5758 67.0744 69.5758C67.6564 69.5758 67.7563 69.5565 68.0855 69.3954C68.2795 69.2987 68.5088 69.1376 68.5911 69.0474C68.8321 68.7703 69.0026 68.2806 69.032 67.7587L69.0613 67.2947H68.7909C68.644 67.2947 68.5029 67.3269 68.4794 67.3656C68.4617 67.4042 68.4382 67.6298 68.4265 67.8682C68.4088 68.6092 68.1032 69.0474 67.4624 69.2536C67.1744 69.3438 67.1097 69.3438 66.7394 69.2536C66.0163 69.0732 65.6342 68.519 65.6342 67.6427C65.6342 67.2431 65.6636 67.1207 65.8459 66.7276C66.1104 66.1412 66.4102 65.8513 66.951 65.6708C67.3037 65.5548 67.4507 65.542 68.0973 65.5742C68.5029 65.5935 69.2495 65.6837 69.7491 65.7739C70.2488 65.8642 70.772 65.9415 70.913 65.9415C71.3951 65.9415 71.4068 65.9737 71.2128 66.6954C71.1188 67.0434 71.0012 67.6298 70.9483 68.0035C70.8895 68.4095 70.8131 68.7123 70.7602 68.7575C70.7132 68.8026 70.5368 68.867 70.3663 68.9057C70.0078 68.9894 69.6257 69.2407 69.4963 69.4856C69.3611 69.7369 69.3082 70.1687 69.3964 70.2911C69.4846 70.4071 69.7256 70.42 69.7903 70.304C69.8138 70.2653 69.8667 70.0527 69.8961 69.84C69.949 69.4856 69.9725 69.447 70.1606 69.3438C70.2723 69.2859 70.4545 69.2214 70.5662 69.1956L70.7661 69.1505L70.7249 69.5114C70.6132 70.4586 70.1665 71.799 69.8138 72.2114C69.5375 72.5465 69.1613 72.7076 68.6734 72.7076C68.3089 72.7076 68.2149 72.6818 68.0503 72.5529C67.8092 72.3531 67.7152 72.2178 67.6682 71.9601C67.6153 71.6959 67.7093 71.4574 67.9621 71.1997C68.2795 70.8839 68.2325 70.4522 67.8974 70.5553C67.5153 70.6777 67.1861 71.0773 67.0803 71.567C67.0157 71.8698 67.1509 72.2629 67.4271 72.5529C67.7857 72.9331 68.1502 73.0491 68.8321 73.0169C69.5081 72.9846 69.8255 72.8171 70.3134 72.2436C70.8366 71.625 71.06 71.0644 71.3363 69.7176C71.4539 69.1248 71.5068 69.0345 71.7301 69.0345C71.8536 69.0345 71.8595 69.0539 71.8183 69.3696C71.7948 69.5565 71.7772 69.84 71.7772 70.0011C71.7772 70.2782 71.783 70.2911 71.9535 70.2911H72.1299L72.171 69.7176C72.2239 68.9765 72.2474 68.8734 72.4591 68.5835C72.6707 68.2935 72.6648 68.1002 72.4532 68.1002C72.3356 68.1002 72.2768 68.1646 72.1769 68.3902C72.0652 68.6544 72.0299 68.6866 71.7948 68.7188C71.6596 68.7446 71.5244 68.7446 71.5068 68.7188C71.4362 68.6479 71.8124 66.3797 71.9476 66.0317C72.0005 65.9157 72.1181 65.7868 72.2474 65.7224C72.4885 65.5935 72.559 65.4646 72.4532 65.3293C72.3415 65.1875 72.2063 65.2133 71.9359 65.426C71.7301 65.5871 71.6361 65.6193 71.3539 65.6193C71.0659 65.6128 70.5016 65.5226 70.0136 65.4066C69.2847 65.2262 68.5852 65.1167 67.868 65.0716C67.4213 65.0458 67.2214 65.0651 66.8746 65.1682Z" fill="black"/>
<path d="M75.2678 67.4046C75.2208 67.5592 75.2091 67.8363 75.2385 68.2229C75.2914 69.0671 75.1033 69.7308 74.6918 70.1561C74.4625 70.3945 74.4096 70.3365 74.5272 69.9886C74.7564 69.2862 74.6976 68.6482 74.3626 68.2809C74.2097 68.1134 74.1216 68.0683 73.9335 68.0683C73.6395 68.0683 73.4514 68.2294 73.2163 68.6805C73.1164 68.8738 72.9929 69.0349 72.9459 69.0349C72.7225 69.0349 72.5462 70.2528 72.6872 70.8069C72.8107 71.2902 73.1516 71.4964 73.5808 71.3611C73.8805 71.258 75.0797 69.9692 75.2326 69.5826C75.3913 69.196 75.4912 69.0091 75.5618 68.9833C75.6676 68.9447 75.6382 69.6857 75.5147 70.0659C75.2326 70.9423 75.309 71.3547 75.7381 71.3547C75.9027 71.3547 76.0262 71.3031 76.1555 71.1871C76.3789 70.9809 76.8903 69.8597 76.8374 69.6986C76.808 69.6148 76.7257 69.7308 76.5317 70.1303C75.9615 71.3031 75.6558 71.2451 76.0144 70.0337C76.1966 69.4151 76.179 69.1251 75.938 68.7964C75.8498 68.674 75.7499 68.5322 75.7205 68.4871C75.6676 68.4098 75.7558 67.7139 75.8439 67.4497C75.8851 67.3272 75.6911 67.1661 75.5089 67.1661C75.3678 67.1661 75.3325 67.2048 75.2678 67.4046ZM74.0922 68.6225C74.1274 68.7127 74.1568 68.8996 74.1568 69.0413C74.1568 69.37 73.9981 70.1432 73.8982 70.2914C73.8335 70.3881 73.81 70.3817 73.6395 70.169C73.522 70.0208 73.4455 69.8533 73.4397 69.7244C73.4103 69.0542 73.5396 68.5516 73.7689 68.4549C73.9335 68.3905 74.0099 68.4291 74.0922 68.6225ZM73.4162 70.3172C73.663 70.6394 73.6866 70.9229 73.4749 70.9552C73.2692 70.9874 73.0987 70.691 73.0987 70.3108C73.0987 70.1368 73.1222 70.0015 73.1516 70.0143C73.181 70.0208 73.2986 70.1626 73.4162 70.3172Z" fill="black"/>
<path d="M138.761 67.8043C138.632 67.9461 137.439 69.1898 135.234 71.458C134.993 71.7093 134.552 72.1539 134.258 72.4568C133.959 72.7532 133.729 73.0174 133.747 73.0432C133.759 73.0754 134.934 73.0947 136.357 73.0947H138.938V70.3561C138.938 68.8482 138.932 67.6239 138.926 67.6239C138.914 67.6303 138.844 67.7077 138.761 67.8043Z" fill="black"/>
<path d="M16.1844 67.7269C16.1785 67.7591 15.9787 67.9653 15.7494 68.1973C15.5201 68.4293 14.4856 69.4861 13.451 70.5494C12.4223 71.6126 11.4641 72.5921 11.3289 72.721C11.1937 72.8563 11.082 72.9916 11.082 73.0303C11.082 73.0754 11.9873 73.0947 13.6979 73.0947H16.3137V70.3883C16.3137 68.0105 16.2902 67.4756 16.1844 67.7269Z" fill="black"/>
<path d="M0.171951 74.0548C0.160194 74.0677 0.148438 74.8925 0.148438 75.8784V77.6698H1.14188H2.12945L3.21106 79.4547L4.29268 81.2461L9.35983 81.2654L14.427 81.2783L14.5916 81.0399C14.6797 80.9046 15.0736 80.3569 15.4616 79.8285C15.8495 79.2936 16.3551 78.5913 16.5785 78.2626L16.9899 77.6634L17.7894 77.6827L18.5947 77.702L18.6183 77.4056C18.6359 77.2445 18.6359 76.4197 18.6241 75.5691L18.6006 74.0291H9.40098C4.33971 74.0291 0.183708 74.0419 0.171951 74.0548Z" fill="black"/>
<path d="M122.842 75.8462L122.859 77.6827L123.829 77.6956L124.799 77.702L125.887 79.487L126.974 81.2783H132.012H137.044L137.855 80.1636C138.302 79.5578 138.896 78.7459 139.172 78.3657L139.672 77.6698H140.483H141.288V75.8398V74.0098H132.059H122.83L122.842 75.8462Z" fill="black"/>
<path d="M57.309 74.7113C56.4273 74.853 55.7101 75.2719 54.9577 76.0903C53.9113 77.2373 53.1648 79.0351 52.9061 81.0327C52.818 81.7222 52.8003 82.8176 52.8709 83.3718C52.9297 83.868 52.8944 83.9002 52.3301 83.8358C51.0545 83.7005 50.1668 83.3847 49.5496 82.8434C49.0382 82.3924 48.6561 81.3613 48.7266 80.6267C48.8912 79.0158 50.1198 78.0234 51.4366 78.4358C51.8304 78.5583 51.995 78.5389 51.995 78.3714C51.995 78.3392 52.0597 78.1974 52.142 78.0556C52.2243 77.9139 52.2889 77.785 52.2889 77.7721C52.2889 77.7528 52.1126 77.6819 51.9009 77.6046C51.2014 77.3726 50.208 77.4821 49.4849 77.8817C48.7913 78.2683 48.2152 79.0609 48.0036 79.9115C47.792 80.7685 47.8684 81.4129 48.2681 82.2441C48.5797 82.895 49.0323 83.3525 49.7318 83.7327C50.5724 84.1837 51.0721 84.3126 52.1537 84.3513L53.0472 84.3835L53.3118 84.9828C53.6527 85.7496 54.0466 86.2264 54.5697 86.51C54.9459 86.7097 54.993 86.7226 55.669 86.7226C56.3568 86.7226 56.3861 86.7162 56.8858 86.4713C57.168 86.336 57.4266 86.1878 57.4678 86.1362C57.503 86.0847 57.5912 86.046 57.6559 86.046C57.7617 86.046 57.7676 86.0718 57.7382 86.4455C57.65 87.4572 57.1268 89.5064 56.8094 90.0863C56.6389 90.3892 56.2627 90.7307 56.0099 90.808C55.7219 90.8982 55.2928 90.8982 55.0576 90.808C54.8343 90.7243 54.5227 90.2539 54.5227 90.0025C54.5227 89.5901 54.9518 89.0102 55.2516 89.0102C55.3516 89.0102 55.3574 88.9715 55.3222 88.572C55.2516 87.831 55.2516 87.831 54.9518 87.8761C54.2699 87.9792 53.7409 88.4625 53.5528 89.152C53.4352 89.5966 53.4411 89.8415 53.588 90.2732C54.1112 91.7939 56.3097 91.9422 57.4972 90.5438C58.1849 89.719 58.4024 88.9844 58.9903 85.4661C59.196 84.2482 59.2313 84.1064 59.4782 83.5329C59.6016 83.2301 59.7192 82.9659 59.7368 82.9336C59.7486 82.9079 59.6369 82.8305 59.4782 82.7532C59.3253 82.6823 59.0961 82.5728 58.9726 82.5019L58.7492 82.3859L58.6434 82.6501C58.5847 82.7983 58.4259 83.2816 58.2907 83.7262C57.8087 85.2663 57.4501 85.7947 56.7271 86.0396C56.2451 86.2007 55.957 86.2071 55.5338 86.0654C55.087 85.9107 54.7284 85.5434 54.4874 84.9892C54.17 84.2675 54.1818 84.2482 54.893 83.9969C56.3097 83.5007 57.2268 82.9014 58.1673 81.864C58.9432 81.0069 59.3841 80.2917 59.7192 79.3444C60.0072 78.5067 60.0719 78.133 60.0778 77.2824C60.0778 76.5349 60.066 76.4511 59.9132 76.0967C59.5663 75.2783 59.1313 74.8917 58.373 74.7371C57.8792 74.6339 57.8322 74.6275 57.309 74.7113ZM58.3201 75.4652C59.7544 76.6058 58.5788 80.6976 56.298 82.4826C55.6572 82.9852 54.2934 83.6296 54.1641 83.4878C54.0524 83.3654 54.0348 82.3021 54.1347 81.4C54.2347 80.4528 54.5462 78.9964 54.752 78.4745C55.6102 76.348 56.6036 75.2912 57.7617 75.2848C58.0321 75.2848 58.132 75.317 58.3201 75.4652Z" fill="black"/>
<path d="M73.6516 75.9236C73.1931 76.1556 72.6699 77.0448 72.3701 78.1209C72.2878 78.4238 72.1585 78.9006 72.0762 79.1842C71.8939 79.8543 71.5471 81.6779 71.4237 82.6573C71.3708 83.0826 71.265 83.6175 71.1827 83.8494C70.8829 84.7644 70.2186 85.905 70.0305 85.8405C69.9952 85.8277 69.907 85.731 69.8424 85.6343C69.7307 85.4797 69.7189 85.3702 69.7248 84.7064C69.7307 84.294 69.7777 83.6883 69.8306 83.3597C69.9423 82.6638 70.3068 81.1559 70.3832 81.0722C70.4126 81.04 70.4949 81.04 70.5831 81.0786C70.7535 81.1495 70.8123 81.1108 70.9123 80.8724C71.0063 80.6276 70.9534 80.5567 70.6948 80.5824C70.4361 80.6018 70.4361 80.7049 70.6771 79.1842C70.777 78.5462 70.8652 77.8632 70.877 77.6699L70.8946 77.3155L70.442 77.2961L69.9893 77.2768L69.9364 77.5217C69.907 77.657 69.8247 78.0823 69.7542 78.4753C69.5602 79.5643 69.3839 80.3956 69.331 80.5116C69.2898 80.5953 69.2252 80.6082 69.0253 80.5889C68.7784 80.5567 68.7608 80.5631 68.6961 80.7629C68.6138 81.04 68.6549 81.0979 68.943 81.0722C69.0958 81.0657 69.1899 81.0851 69.2075 81.1366C69.2193 81.1817 69.1899 81.4266 69.137 81.6843C69.0841 81.9421 69.0077 82.4254 68.9606 82.7604C68.8607 83.4757 68.6785 84.0556 68.2964 84.816C67.9966 85.4281 67.6733 85.8534 67.5145 85.8534C67.3382 85.8534 67.1618 85.5441 67.1618 85.2413C67.1618 85.0931 67.2853 84.526 67.4322 83.9783C68.0495 81.6843 68.12 81.1495 67.8672 80.7435C67.5145 80.1765 66.8033 80.286 66.1096 81.0206C65.8686 81.2784 65.7863 81.3364 65.7451 81.2719C65.6746 81.1495 65.6805 81.1366 65.7804 80.866C65.8862 80.5824 65.898 80.5889 65.2631 80.5502C64.9751 80.5373 64.7928 80.5502 64.7635 80.5953C64.7341 80.634 64.6518 81.04 64.5812 81.5039C64.2638 83.5788 64.2285 83.7206 63.8758 84.3714C63.3879 85.2671 62.9529 85.6472 62.3474 85.7052C61.9653 85.7374 61.7008 85.5957 61.5538 85.2864C61.4539 85.0673 61.2952 84.2554 61.3246 84.1136C61.3363 84.0556 61.5009 83.9654 61.7008 83.901C62.3239 83.7012 62.706 83.4628 63.1116 83.0182C63.4291 82.6767 63.5231 82.522 63.623 82.1869C63.7935 81.6328 63.7935 81.1688 63.6172 80.8917C63.0705 79.9896 61.789 80.4149 60.9954 81.7552C60.6721 82.3029 60.4781 82.9473 60.3664 83.8881C60.2841 84.6033 60.2841 84.7193 60.3664 85.164C60.4193 85.4281 60.484 85.7246 60.5192 85.8277C60.6368 86.1627 60.9484 86.5107 61.2717 86.6782C61.5421 86.8136 61.6538 86.8329 61.9947 86.8071C62.5414 86.762 62.947 86.5365 63.3703 86.0339C63.5525 85.8212 63.7171 85.6666 63.7347 85.6859C63.7582 85.7052 63.7406 85.8728 63.7053 86.0532C63.6642 86.2336 63.6348 86.4591 63.6348 86.5494V86.7233H64.1639C64.5871 86.7233 64.6988 86.704 64.7223 86.6267C64.7341 86.5751 64.8281 86.079 64.928 85.5312C65.269 83.6368 65.3866 83.1793 65.7275 82.3867C65.9333 81.9227 66.2566 81.4588 66.4623 81.3364C66.5799 81.2719 66.8444 81.3686 66.8856 81.4975C66.9502 81.6714 66.7915 82.3867 66.4623 83.4564C66.0214 84.8804 65.9215 85.5119 66.0626 86.0081C66.2037 86.4849 66.427 86.704 66.8326 86.7427C67.1031 86.7684 67.1971 86.7427 67.4558 86.588C67.8555 86.3496 68.1847 85.9308 68.4374 85.3508C68.6608 84.8547 68.749 84.7709 68.749 85.0737C68.749 85.4088 68.9254 86.1885 69.0488 86.414C69.1958 86.6782 69.3251 86.7556 69.6014 86.7556C69.9188 86.7556 70.1657 86.6138 70.442 86.2723C70.6771 85.9759 71.1004 85.1511 71.1004 84.9835C71.1004 84.9384 71.1415 84.8675 71.1885 84.8224C71.265 84.7516 71.2767 84.7773 71.2767 84.9642C71.2767 85.6472 71.5648 86.4785 71.8763 86.6911C72.1644 86.8909 72.7052 86.8458 73.0344 86.6009C73.34 86.3625 73.8632 85.6086 74.0454 85.1253C74.1277 84.9126 74.2159 84.7387 74.2453 84.7387C74.2747 84.7322 74.3276 84.9126 74.3687 85.1446C74.5098 85.9565 74.7685 86.4076 75.2564 86.6653C75.5327 86.8136 75.6267 86.8329 75.9971 86.8071C76.5496 86.7684 76.9435 86.5429 77.355 86.0339C77.6783 85.6279 77.79 85.6279 77.69 86.021C77.6548 86.1627 77.6254 86.356 77.6254 86.4656V86.6589H78.1192C78.3954 86.6589 78.6423 86.6267 78.6776 86.5945C78.7129 86.5558 78.8305 86.0403 78.9421 85.4475C79.1714 84.2618 79.3536 83.4564 79.4771 83.0375C79.7886 82.0258 80.3 81.259 80.5881 81.3815C80.7527 81.4524 80.7527 81.8068 80.5998 82.6638C80.5176 83.1277 80.3941 83.8365 80.3236 84.2425C80.253 84.6485 80.1237 85.3444 80.0355 85.789C79.9473 86.2336 79.8827 86.6138 79.8944 86.6331C79.9062 86.6525 80.1472 86.6718 80.4294 86.6653L80.9408 86.6589L80.9937 86.4334C81.0231 86.3109 81.0819 86.0467 81.123 85.8534C81.1701 85.6601 81.2759 85.1511 81.3582 84.7258C81.4463 84.3005 81.6051 83.6497 81.7226 83.2759C82.0694 82.1676 82.3281 81.665 82.7043 81.4072C83.1276 81.1237 83.2628 81.5039 83.057 82.3996C82.9571 82.8442 82.6103 84.1136 82.4633 84.5905C82.4045 84.7902 82.3634 85.1317 82.3634 85.499C82.3575 86.0467 82.3692 86.1047 82.5221 86.3238C82.8395 86.7813 83.204 86.8651 83.7095 86.6009C84.1092 86.3947 84.4502 85.9888 84.7441 85.3702C84.8734 85.0866 85.0145 84.8547 85.0498 84.8547C85.0909 84.8547 85.138 85.0093 85.1615 85.1962C85.2614 85.9436 85.7141 86.6074 86.2314 86.762C86.5547 86.8587 87.166 86.7878 87.4717 86.6267C87.7303 86.4914 88.1536 86.0725 88.3299 85.7826C88.4828 85.5377 88.5239 85.6859 88.4416 86.1756C88.4005 86.4269 88.377 86.6396 88.3887 86.6525C88.4005 86.6653 88.6474 86.6911 88.9354 86.6976C89.4233 86.7169 89.4586 86.7105 89.5056 86.5816C89.5291 86.5043 89.6467 85.9372 89.7584 85.325C90.0641 83.669 90.2287 83.0311 90.4932 82.4254C90.7871 81.7423 91.1986 81.259 91.4337 81.317C91.757 81.4008 91.7747 81.4781 91.6277 82.1161C91.5513 82.4318 91.4279 82.8764 91.3456 83.0955C91.2633 83.321 91.1104 83.8752 90.9987 84.3392C90.6989 85.5764 90.7224 86.021 91.1163 86.472C91.3456 86.7362 91.3808 86.7556 91.6689 86.7556C92.3508 86.7556 92.9327 86.137 93.5382 84.7773C93.9203 83.901 93.9791 83.6432 93.7968 83.5337C93.6793 83.4692 93.6616 83.4821 93.5793 83.7077C93.3971 84.2038 93.2972 84.4165 92.9856 85.0029C92.5506 85.8019 92.292 86.0145 92.0745 85.7374C91.8335 85.4475 91.8746 85.0802 92.2979 83.669C92.9033 81.6521 92.9562 81.04 92.5565 80.6082C92.3978 80.4278 92.339 80.4085 92.0392 80.4149C91.6218 80.4149 91.3691 80.5438 90.9635 80.9626C90.5461 81.3879 90.3051 81.3879 90.5285 80.9562C90.5755 80.866 90.6108 80.7435 90.6166 80.6791C90.6166 80.576 90.5637 80.5696 90.0758 80.5824L89.5291 80.6018L89.488 80.8595C89.4586 81.0013 89.4174 81.3041 89.3822 81.5361C89.2881 82.2772 89.0941 83.263 88.9766 83.6303C88.7532 84.3198 88.1242 85.3122 87.7832 85.5055C87.2424 85.8148 86.8486 85.8083 86.5076 85.4926C86.2901 85.2928 86.2078 85.0351 86.1902 84.4616L86.1784 84.017L86.6193 83.8559C87.2307 83.6239 87.4952 83.4628 87.8655 83.0891C88.4299 82.522 88.7179 81.4975 88.4593 80.9562C88.0419 80.0734 86.778 80.2989 86.008 81.4008C85.667 81.8905 85.6082 82.0258 85.2967 83.0633C84.9087 84.3327 84.2738 85.6086 83.927 85.7826C83.7389 85.8792 83.7036 85.8728 83.5626 85.7117C83.3509 85.4604 83.4332 84.8353 83.88 83.379C84.1386 82.5413 84.3268 81.6714 84.3268 81.3106C84.3268 80.7693 84.0211 80.3762 83.5861 80.3762C83.1334 80.3762 82.4222 80.8531 82.2046 81.317C82.1282 81.4717 82.0401 81.5941 82.0048 81.5812C81.9754 81.5683 81.9225 81.4008 81.8872 81.2075C81.752 80.4793 81.4405 80.2538 80.835 80.4536C80.5998 80.5309 80.1648 80.9433 79.9591 81.2719C79.8357 81.4717 79.6828 81.4072 79.6828 81.1559C79.6828 81.0528 79.7122 80.9433 79.7416 80.924C79.7769 80.9046 79.8004 80.8144 79.8004 80.7242C79.8004 80.5696 79.7945 80.5696 79.2713 80.5696C78.6717 80.5696 78.7482 80.4793 78.6247 81.3428C78.4954 82.2643 78.2779 83.3919 78.1779 83.669C77.9957 84.1781 77.6019 84.8482 77.2727 85.2155C77.0199 85.4926 76.8788 85.5892 76.6261 85.6666C75.856 85.905 75.4386 85.4926 75.4269 84.4745L75.421 83.9719L75.7443 83.8816C76.2557 83.7399 76.7436 83.4435 77.0846 83.0697C77.4431 82.6831 77.5666 82.4447 77.7194 81.8905C77.8429 81.4137 77.7723 81.0271 77.4961 80.7178C77.0081 80.1636 76.0735 80.3762 75.3975 81.1882C75.0271 81.6328 74.792 82.1225 74.5275 83.0182C74.1865 84.1652 73.5223 85.4733 73.1402 85.731C72.7228 86.0145 72.3877 85.7374 72.3054 85.0415C72.2525 84.5518 72.3289 83.3597 72.4348 83.0826C72.4818 82.9602 72.5758 82.7862 72.6523 82.696C72.8874 82.4254 73.6163 81.1817 73.8632 80.6404C74.21 79.893 74.3746 79.371 74.6039 78.3336C74.939 76.8193 74.839 76.1749 74.2335 75.8914C73.9925 75.7754 73.9396 75.7819 73.6516 75.9236ZM74.2277 76.8708C74.2571 76.9739 74.2571 77.2188 74.2394 77.4121C74.1865 77.9083 73.8397 79.3452 73.6281 79.9445C73.4458 80.4729 72.7169 82.1032 72.6229 82.2127C72.3172 82.5542 73.2107 78.4753 73.6927 77.3477C74.016 76.5873 74.1336 76.4842 74.2277 76.8708ZM62.8001 81.2526C63.1998 81.5555 62.6884 82.6896 61.8889 83.2695C61.548 83.5208 61.4598 83.5208 61.4598 83.2888C61.4598 82.7798 61.9536 81.6779 62.3357 81.3235C62.5591 81.1237 62.6178 81.1108 62.8001 81.2526ZM76.8612 81.2719C76.9611 81.4846 76.9259 81.781 76.7495 82.1998C76.5438 82.6702 76.4732 82.7604 76.0206 83.1664C75.4621 83.6626 75.3387 83.5595 75.5621 82.7927C75.8031 81.9614 75.9148 81.7552 76.3321 81.375C76.6084 81.1237 76.7671 81.0915 76.8612 81.2719ZM87.6422 81.2913C87.7891 81.5168 87.7539 81.7423 87.5187 82.2514C87.3424 82.6187 87.2072 82.8055 86.8897 83.0955C86.2725 83.6626 86.0961 83.5852 86.3254 82.8378C86.5194 82.1998 86.778 81.6972 87.0661 81.4072C87.3541 81.1173 87.5128 81.0851 87.6422 81.2913Z" fill="black"/>
<path d="M64.7574 92.6771C64.6809 92.8318 64.4282 93.9401 64.3047 94.6489C64.1578 95.5189 64.2166 96.6659 64.4517 97.7098C64.7221 98.8632 64.6809 98.8246 65.4451 98.773C66.7325 98.6828 67.8553 98.425 68.5136 98.0642C68.6606 97.9804 69.0368 97.7098 69.3601 97.4585C70.0361 96.9301 70.1478 96.8978 71.1295 96.9558C71.8819 96.9945 72.0583 97.0589 72.505 97.4778C73.0282 97.9482 73.9041 98.3671 74.8329 98.5797C75.3384 98.6892 76.8315 98.8246 76.9902 98.7666C77.1254 98.7215 77.1725 98.5926 77.39 97.6518C77.6545 96.4854 77.7074 95.9377 77.631 95.2418C77.5545 94.6103 77.2548 93.1797 77.1254 92.8253L77.0431 92.6191H76.3142C75.8439 92.6191 75.3737 92.6642 74.9739 92.7415C73.8218 92.98 73.3574 93.1926 72.6873 93.779C71.5586 94.7714 71.6527 94.7134 71.394 94.6167C71.2294 94.5587 70.9825 94.5458 70.5711 94.5716L69.9773 94.6103L69.5541 94.1721C69.319 93.9337 68.9663 93.6115 68.7664 93.4633C68.1551 93.0057 67.1499 92.7093 66.0153 92.6449C65.692 92.632 65.2864 92.6062 65.1159 92.5869C64.8691 92.5676 64.7985 92.5869 64.7574 92.6771Z" fill="black"/>
</svg>
