<svg width="143" height="99" viewBox="0 0 143 99" fill="none" xmlns="http://www.w3.org/2000/svg">
<path d="M80.1416 0.397289C79.7243 0.584162 79.1658 1.05457 78.3311 1.89872C77.2671 2.98774 75.2214 5.06267 74.516 5.77795C74.1457 6.15169 73.3286 6.99584 72.7055 7.64668L71.5709 8.83235L70.8832 8.09775C69.9661 7.11183 69.2666 6.39656 68.1086 5.23666C67.5736 4.70181 66.7448 3.86411 66.2628 3.36793C64.3347 1.37676 63.7468 0.835474 63.2295 0.571274C62.8004 0.352182 62.3772 0.352182 62.1009 0.56483C61.8951 0.719484 61.5248 1.24144 61.5248 1.38321C61.5248 1.42187 62.048 1.95671 62.6887 2.56888C63.3236 3.18105 64.1113 3.96077 64.4346 4.30229C65.2223 5.12067 66.1687 6.06792 66.2157 6.08725C66.2392 6.10014 66.298 6.02281 66.3568 5.91971C66.4685 5.69417 66.8153 5.44286 67.1563 5.32687L67.3973 5.24955L68.667 6.58988C69.3607 7.32448 69.9309 7.94954 69.9309 7.96887C69.9309 8.09131 68.9492 8.96123 68.0086 9.67006C66.2392 10.9975 62.9826 12.5569 60.2139 13.3882C59.4144 13.6331 59.1969 13.7619 59.0735 14.0777C58.9971 14.2903 58.9971 14.3354 59.0853 14.5352L59.1793 14.7607L59.5438 14.7221C59.7436 14.7027 60.1199 14.619 60.3785 14.5288C60.6372 14.4385 61.1662 14.2581 61.5542 14.1292C65.0753 12.9371 68.1497 11.1908 70.4658 9.06433C70.6186 8.92257 70.7656 8.81302 70.7891 8.81302C70.8185 8.81302 70.9184 8.89035 71.0184 8.98701L71.1888 9.15455L70.9126 9.41875C70.7597 9.56051 70.6363 9.70228 70.6363 9.72161C70.6363 9.88915 71.2006 9.80538 71.4063 9.60562C71.4945 9.5283 71.5415 9.54118 71.7884 9.71517C72.0118 9.86982 72.1294 9.90849 72.3586 9.90204C72.5115 9.8956 72.6526 9.86982 72.6643 9.85049C72.6761 9.82471 72.5409 9.69584 72.3704 9.55407C72.194 9.41875 72.0412 9.27054 72.0236 9.22543C71.9942 9.13522 72.4292 8.68414 72.5409 8.68414C72.582 8.68414 72.6643 8.74858 72.729 8.82591C73.117 9.3092 74.8099 10.6173 75.8974 11.2746C77.0437 11.9705 77.4258 12.1767 78.478 12.6729C80.1122 13.4462 81.5818 14.0068 83.2454 14.4901C83.8744 14.6705 83.8979 14.6705 84.0331 14.561C84.2447 14.3934 84.2976 14.271 84.2506 14.0648C84.1742 13.7426 83.9214 13.5428 83.3571 13.3624C81.9404 12.9113 80.1416 12.2283 79.0424 11.7321C78.3899 11.4357 76.597 10.4562 76.0738 10.1018C75.2743 9.56696 73.693 8.29751 73.4344 7.98176L73.3227 7.84644L74.4337 6.64787C75.0451 5.99059 75.6329 5.38487 75.7328 5.28821C75.9268 5.12711 75.9268 5.12711 76.1737 5.23666C76.6851 5.45575 76.8027 5.53952 76.8968 5.75861C76.9497 5.88105 77.0143 5.97771 77.0378 5.97771C77.0613 5.97771 77.2259 5.82305 77.4023 5.63618C77.8843 5.12711 79.2775 3.72234 80.1299 2.88463C81.4936 1.55075 81.717 1.31877 81.7347 1.24144C81.7641 1.11901 81.3173 0.513279 81.0939 0.371513C80.8118 0.203972 80.5649 0.210416 80.1416 0.397289Z" fill="black"/>
<path d="M8.94228 5.95794C8.84822 5.97083 8.51316 6.04171 8.20748 6.11259C6.05012 6.62166 4.15728 7.88466 2.83464 9.68894C1.82944 11.0615 1.24748 12.5887 1.02998 14.3865C0.824237 16.1199 1.32978 18.4913 2.24093 20.0636C2.55836 20.6113 3.28728 21.5843 3.68701 21.9838C4.08674 22.3962 4.92147 23.06 5.22714 23.2211C5.34471 23.2855 5.44464 23.3564 5.44464 23.3886C5.44464 23.4144 5.35647 23.4788 5.24478 23.5304C5.09782 23.5948 4.89795 23.8332 4.53937 24.3552C4.26897 24.7547 3.65174 25.6311 3.16971 26.3077L2.29971 27.532H1.67072L1.04174 27.5256L1.0241 29.1752C1.01234 30.0773 1.01234 30.8377 1.0241 30.8635C1.03586 30.8957 5.12721 30.915 10.1238 30.915H19.2001V29.2396V27.5642H18.2419C17.56 27.5642 17.2543 27.5385 17.1896 27.4805C17.1426 27.4418 16.8898 26.9649 16.6253 26.4366C16.3667 25.9017 15.9376 25.0511 15.6789 24.5356C15.4144 24.0201 15.2028 23.569 15.2028 23.5304C15.2028 23.4917 15.5143 23.2339 15.8964 22.9504C17.0603 22.0934 18.0126 20.9593 18.7121 19.6061C19.4469 18.1884 19.7879 16.5323 19.7056 14.8118C19.6292 13.246 19.2706 11.983 18.5358 10.6813C17.6305 9.08966 16.4196 7.8911 14.8207 7.00829C14.0094 6.56366 13.9213 6.525 13.2864 6.32524C12.3282 6.03527 11.4053 5.91283 10.2061 5.92572C9.60654 5.92572 9.04221 5.94505 8.94228 5.95794Z" fill="black"/>
<path d="M131.488 5.98365C130.577 6.09964 129.383 6.5056 128.566 6.96956C127.191 7.75572 125.768 9.10249 125.039 10.3204C123.634 12.6788 123.27 15.4304 124.034 17.9822C124.487 19.4965 125.01 20.4437 126.039 21.6294C126.521 22.1836 127.538 23.0664 127.873 23.221C128.137 23.3435 128.149 23.4079 127.926 23.5239C127.82 23.5755 127.638 23.7494 127.526 23.9041C127.179 24.3809 126.244 25.6955 125.568 26.6556L124.928 27.5707L124.305 27.5578L123.687 27.5384L123.67 29.2267L123.658 30.915H132.74H141.822V29.2396V27.5642H140.858H139.888L139.776 27.3838C139.506 26.9585 137.889 23.6528 137.884 23.5175C137.884 23.4724 138.054 23.3177 138.26 23.163C139.124 22.5315 139.353 22.3253 139.976 21.6294C141.558 19.8444 142.345 17.7824 142.363 15.3853C142.375 13.9096 142.157 12.8013 141.61 11.5512C140.629 9.2958 138.854 7.53018 136.596 6.55715C136.126 6.35739 135.227 6.11253 134.592 6.00942C133.963 5.91276 132.14 5.89988 131.488 5.98365Z" fill="black"/>
<path d="M55.7461 27.6155L55.752 34.2334L58.0975 34.2527C60.4723 34.2721 61.2365 34.227 61.9361 34.0336C63.5996 33.5697 65.0222 32.0167 65.5277 30.0964C65.8158 28.9881 65.9039 27.2353 65.7276 26.0497C65.5454 24.8189 65.034 23.6203 64.3109 22.7439C63.823 22.1511 62.9883 21.5647 62.2711 21.3134C61.4481 21.0299 61.0073 20.9912 58.2973 20.9912H55.7344L55.7461 27.6155ZM60.6134 22.8664C60.925 22.963 61.1719 23.1692 61.4834 23.6203C61.8479 24.1358 62.0301 24.5611 62.2123 25.3215C62.3652 25.9594 62.3711 26.0432 62.3711 27.5962C62.3711 29.0525 62.3593 29.2652 62.2358 29.8193C61.9831 30.9664 61.4423 31.92 60.8603 32.2294C60.5664 32.3905 60.5017 32.3969 59.814 32.384L59.085 32.3647L59.0674 27.6349C59.0557 23.891 59.0674 22.8922 59.1262 22.8471C59.2379 22.7697 60.343 22.7826 60.6134 22.8664Z" fill="black"/>
<path d="M67.4903 28.9498V34.2725L70.2825 34.2531L73.0747 34.2338L73.4686 34.0212C73.6919 33.9052 73.9212 33.7247 74.0035 33.5959C74.2092 33.3059 74.368 32.9257 74.3151 32.8677C74.2915 32.8355 73.3275 32.8033 72.1753 32.7839L70.0767 32.7517V31.2374V29.7231L70.9879 29.6909C71.9872 29.6522 72.24 29.5685 72.675 29.156C72.9042 28.937 73.1982 28.3506 73.1217 28.2668C73.0923 28.2346 72.3987 28.2024 71.5757 28.1959L70.0767 28.1766V26.6623V25.148L71.37 25.1158C72.6573 25.0835 72.6632 25.0835 73.0042 24.8967C73.398 24.6776 73.6567 24.3812 73.8154 23.9752C73.8742 23.8141 73.9271 23.6788 73.9271 23.6659C73.9271 23.653 72.481 23.6401 70.7057 23.6337H67.4844L67.4903 28.9498Z" fill="black"/>
<path d="M75.1035 28.9494V34.2656H76.4261H77.7488V29.0138C77.7488 26.127 77.7488 23.7427 77.7488 23.7105C77.7488 23.6847 77.1551 23.659 76.4261 23.6461L75.1035 23.6332V28.9494Z" fill="black"/>
<path d="M79.6875 28.9494V34.2656H80.8632H82.0388V31.2047C82.0388 29.4971 82.0624 28.1439 82.0918 28.1439C82.1329 28.1439 82.8853 29.1234 86.7592 34.2334C87.0825 34.6587 87.394 35.0646 87.4587 35.1355C87.5586 35.2579 87.5645 35.0968 87.5645 29.4456V23.6332H86.3888H85.2132L85.2014 25.4826C85.1897 27.6864 85.1955 27.6091 85.1485 27.6606C85.125 27.6799 84.9663 27.4995 84.7958 27.2611C84.2609 26.5136 83.385 25.3666 82.903 24.7802C82.1505 23.8587 81.6744 23.6332 80.4458 23.6332H79.6875V28.9494Z" fill="black"/>
<path d="M3.15257 31.9776C3.15257 32.2611 3.14669 33.4403 3.13493 34.6067C3.12905 35.7666 3.13493 36.7139 3.15845 36.7139C3.17608 36.7139 3.72865 36.1726 4.39291 35.5153C6.23872 33.6659 7.24393 32.6606 7.84353 32.0678L8.38434 31.5265L8.10805 31.5136C7.94934 31.5007 6.77366 31.4878 5.48629 31.4814L3.15257 31.462V31.9776Z" fill="black"/>
<path d="M11.6996 32.7389C7.4319 37.2302 6.18569 38.5383 5.26866 39.5178C4.70433 40.1235 3.98717 40.8775 3.68149 41.1932L3.12305 41.7732L3.12893 43.3841C3.1348 44.267 3.15244 44.9951 3.1642 44.9951C3.18183 44.9951 3.74616 44.4152 4.42217 43.7063C5.67427 42.3918 6.46785 41.5541 10.2653 37.5847C14.6212 33.0224 16.032 31.5274 15.985 31.5145C15.9614 31.5081 15.2619 31.4952 14.4331 31.4758L12.9282 31.4501L11.6996 32.7389Z" fill="black"/>
<path d="M125.799 31.4882C125.794 31.5199 125.775 32.6868 125.775 34.1174C125.775 36.5209 125.793 36.8754 125.922 36.6498C125.946 36.6112 126.234 36.3147 126.563 35.9861C126.892 35.6575 127.586 34.968 128.103 34.4524C129.92 32.6288 130.513 32.0424 130.772 31.804C130.913 31.6687 131.022 31.4821 131.012 31.4821C130.939 31.4821 125.825 31.4882 125.799 31.4882Z" fill="black"/>
<path d="M135.022 32.0229C134.705 32.3515 134.417 32.6479 134.381 32.6866C134.34 32.7188 133.893 33.2021 133.382 33.7498C132.536 34.6584 130.014 37.3197 126.939 40.5481L125.775 41.766V43.4092V45.0459L125.905 44.9235C125.975 44.859 126.434 44.3822 126.922 43.8667C128.05 42.6617 129.097 41.5662 129.949 40.677C131.048 39.53 131.689 38.8598 132.624 37.8739C133.112 37.3584 134.217 36.1985 135.093 35.2963C135.963 34.3942 136.774 33.5501 136.886 33.4276C137.003 33.3052 137.45 32.8283 137.879 32.3773C138.308 31.9198 138.659 31.4365 138.648 31.4236C137.784 31.4236 136.402 31.4236 135.604 31.4236L135.022 32.0229Z" fill="black"/>
<path d="M10.0766 41.8439C6.26742 46.0066 3.15188 49.4541 3.146 49.4928C3.12837 49.9181 3.15776 53.5588 3.18127 53.5331C3.3106 53.4042 10.7761 45.1882 13.5625 42.1016L16.9954 38.3126L17.0248 36.2892C17.0425 35.1745 17.0425 34.2659 17.0248 34.2659C17.0072 34.2659 13.8799 37.6747 10.0766 41.8439Z" fill="black"/>
<path d="M132.694 41.8569L125.775 49.4414V51.5356V53.6299L130.378 48.5392C132.906 45.7361 136.027 42.2886 137.309 40.871L139.648 38.2934V36.2765C139.648 35.1746 139.642 34.266 139.631 34.266C139.625 34.266 136.503 37.6813 132.694 41.8569Z" fill="black"/>
<path d="M85.185 38.8536C84.6794 38.9309 84.0387 39.2853 83.6213 39.7235C82.5162 40.877 82.0988 42.707 82.4751 44.7046C82.5515 45.1106 82.6984 45.6712 82.7984 45.9418C83.0335 46.5927 83.9153 48.5194 84.4502 49.5698C85.0498 50.7361 86.5488 53.9967 86.8721 54.8537C87.019 55.2404 87.1954 55.7623 87.2659 56.0072C87.554 57.0382 87.648 58.4237 87.4776 59.2807C87.3953 59.706 87.119 60.2731 86.8838 60.505C86.7075 60.6726 86.0903 60.9561 85.8904 60.9626C85.2085 60.969 84.4913 60.3182 84.0328 59.2678C83.2275 57.4313 82.8395 55.5175 82.7102 52.7402C82.6749 52.0055 82.6161 51.7929 82.4457 51.7929C82.4163 51.7929 82.3928 53.7003 82.3928 56.6323V61.4716L82.5574 61.3621C82.6455 61.2976 82.8865 61.085 83.0982 60.8852C83.6037 60.4084 84.0211 60.0411 84.0622 60.0411C84.0857 60.0411 84.2738 60.2473 84.4913 60.4922C84.7911 60.8401 84.991 61.0077 85.3613 61.2074C85.8022 61.4458 85.8963 61.4716 86.4253 61.5038C87.1249 61.5425 87.5834 61.433 88.1418 61.0914C89.7407 60.112 90.4226 58.1272 90.0405 55.5819C89.7643 53.7776 89.1235 52.07 87.4482 48.6998C85.4378 44.666 84.6794 42.6361 84.6618 41.2571C84.6501 40.0392 85.2085 39.2338 86.0726 39.2273C87.4129 39.2209 88.3476 41.3731 88.953 45.8645C89.1176 47.1082 89.1705 47.3144 89.2999 47.3144C89.4174 47.3144 89.4174 47.25 89.4351 43.0421C89.4409 40.6965 89.4351 38.7762 89.4116 38.7762C89.3939 38.7762 89.2058 38.9116 88.9883 39.0791C88.7767 39.2531 88.4005 39.5237 88.1595 39.6848L87.7127 39.9813L87.36 39.6462C86.584 38.9051 86.0667 38.7182 85.185 38.8536Z" fill="black"/>
<path d="M27.9591 39.1764C27.9591 39.273 28.0355 39.2923 28.4764 39.3052L28.9878 39.3246L29.0054 50.1632L29.0172 61.0083L28.7409 61.0212C28.5822 61.0277 28.3412 61.0341 28.1942 61.0405C28.0002 61.0405 27.9297 61.0663 27.9297 61.1372C27.9297 61.279 29.0936 61.3434 31.2216 61.3112C32.891 61.2854 33.0145 61.2725 33.5612 61.1179C34.3077 60.8988 34.8662 60.5701 35.407 60.016C36.2123 59.1976 36.565 58.4179 36.8413 56.8907C37.1294 55.2668 37.0177 53.6816 36.5415 52.5797C36.277 51.974 35.7303 51.2007 35.2836 50.8141C35.0014 50.5627 34.0844 50.0472 33.5906 49.8539C33.3261 49.7508 33.3084 49.6993 33.5318 49.6348C33.8492 49.5511 34.6957 49.1258 35.019 48.8873C35.7009 48.3847 36.3534 47.3988 36.6003 46.5095C36.8825 45.4721 36.9589 43.9577 36.7708 42.9396C36.4416 41.1482 35.4364 39.8465 33.9433 39.2795C33.5906 39.1441 33.4671 39.1313 31.4567 39.1184C30.2928 39.1119 29.0289 39.0926 28.6469 39.0861C28.0296 39.0668 27.9591 39.0797 27.9591 39.1764ZM33.4554 39.5243C33.8786 39.7628 33.8669 39.6081 33.8669 44.5441C33.8669 49.5059 33.8904 49.2417 33.4083 49.4737C33.1379 49.609 32.3444 49.7057 32.1092 49.6413L31.9564 49.6026L31.9681 44.557C31.9799 41.7861 32.0093 39.4792 32.0387 39.4277C32.121 39.2859 33.1556 39.3568 33.4554 39.5243ZM33.4671 50.0537C33.8904 50.3372 33.8669 50.0215 33.8845 55.067C33.8963 58.3405 33.8845 59.7067 33.8316 59.9709C33.7081 60.6281 33.1732 61.0083 32.362 61.0083C32.0387 61.0083 32.0269 61.0019 31.9917 60.8086C31.9446 60.5379 31.9446 50.0215 31.9975 49.9699C32.0152 49.9441 32.315 49.9248 32.6559 49.9248C33.1673 49.9248 33.3143 49.9441 33.4671 50.0537Z" fill="black"/>
<path d="M53.9414 39.1691C53.9414 39.2722 53.9884 39.2916 54.2588 39.2916C54.5351 39.2916 54.5763 39.3109 54.6115 39.4333C54.6292 39.5171 54.6468 44.5176 54.6468 50.549C54.6468 57.4504 54.6703 61.5229 54.7056 61.5229C54.8114 61.5229 55.4169 60.4275 55.8989 59.3642C56.1458 58.823 56.1693 58.7972 56.2222 58.9454C56.2516 59.0356 56.328 59.2676 56.3986 59.4609C56.8747 60.8657 57.2274 61.2974 58.0151 61.4521C58.6265 61.5745 59.279 61.3232 59.8374 60.7626C60.5605 60.028 61.0072 58.8359 61.2659 56.9414C61.3835 56.0585 61.4422 52.0891 61.3541 50.665C61.1836 47.8104 60.5017 45.9674 59.4142 45.4261C58.6853 45.0588 57.9387 45.3295 57.4391 46.1414L57.2333 46.4765V42.7519V39.0338L55.5874 39.0403C54.0178 39.0467 53.9414 39.0531 53.9414 39.1691ZM58.5618 46.0834L58.7676 46.309L58.7499 53.2877C58.7264 60.7497 58.7323 60.5886 58.4384 60.9172C58.3267 61.0397 58.2326 61.0719 57.9799 61.0719C57.6213 61.0719 57.4097 60.9366 57.298 60.6337C57.2451 60.4984 57.2333 58.8101 57.2509 53.8483C57.2745 46.818 57.2686 46.876 57.5625 46.3734C57.8799 45.8192 58.2326 45.7226 58.5618 46.0834Z" fill="black"/>
<path d="M90.9576 39.1246C90.9047 39.2663 90.9694 39.2921 91.3338 39.2921C91.5866 39.2921 91.6748 39.3179 91.7041 39.3952C91.7512 39.5241 91.7512 60.7309 91.7041 60.9178C91.6748 61.0338 91.6277 61.0531 91.3103 61.0466C91.0281 61.0402 90.9458 61.0595 90.9458 61.1304C90.9458 61.182 91.0281 61.2464 91.1222 61.2786C91.3103 61.3366 94.3788 61.3431 94.6081 61.2851C94.8079 61.2335 94.7609 61.0918 94.5199 61.0273L94.2965 60.9693L94.2789 54.4095C94.2671 48.61 94.2789 47.8045 94.3612 47.4565C94.467 46.9925 94.6551 46.6188 94.902 46.3546C95.0607 46.1935 95.1077 46.1806 95.3135 46.2193C95.4428 46.2386 95.5956 46.303 95.6603 46.3482C95.7602 46.4319 95.7661 46.7155 95.7661 53.7393V61.0402H95.5898C95.4781 61.0466 95.4075 61.0789 95.3958 61.1498C95.384 61.2335 95.484 61.2529 96.0835 61.298C96.836 61.3431 98.3409 61.3366 98.8111 61.2851C99.1873 61.24 99.1756 61.1046 98.7876 61.0531C98.6171 61.0273 98.4702 60.9951 98.4467 60.9693C98.429 60.95 98.4055 57.8569 98.3996 54.0937C98.3879 49.6796 98.3644 47.1408 98.3232 46.941C98.2233 46.4126 98.0293 46.0131 97.7354 45.7102C97.3768 45.3429 97.1181 45.2656 96.3246 45.2978C95.5545 45.33 95.3723 45.4267 94.7315 46.1162C94.4787 46.3933 94.2671 46.5995 94.2671 46.5801C94.2671 46.5608 94.2612 44.8661 94.2495 42.8105L94.2377 39.0795L93.6499 39.0988C93.3266 39.1052 92.727 39.1181 92.3096 39.131C91.8981 39.1375 91.5454 39.1246 91.5278 39.0923C91.4749 38.9957 90.9929 39.0215 90.9576 39.1246Z" fill="black"/>
<path d="M16.8726 44.1435C16.7844 44.2466 14.0039 47.1528 12.5284 48.6671C11.8759 49.3373 10.5768 50.684 9.64215 51.6571C8.70749 52.6301 7.53181 53.8544 7.03215 54.3699C6.53249 54.8919 5.45087 56.0131 4.62789 56.8702L3.13478 58.4167L3.12891 60.4852C3.12891 61.6258 3.14066 62.5537 3.1583 62.5537C3.19945 62.5537 3.91661 61.8255 4.91593 60.7816C5.22161 60.4594 5.85647 59.8086 6.32674 59.3318C6.79701 58.8549 7.42012 58.2105 7.70816 57.9077C8.00208 57.6048 8.67222 56.9088 9.20715 56.3676C9.74208 55.8263 10.4299 55.1174 10.7355 54.7952C11.0412 54.4666 11.6937 53.8029 12.1757 53.3067C12.6636 52.8105 13.7335 51.7151 14.5565 50.858C16.4023 48.9506 16.7256 48.622 16.8961 48.4673L17.0254 48.3513V46.2055C17.0254 45.0263 17.0078 44.0597 16.9842 44.0597C16.9549 44.0661 16.9078 44.0984 16.8726 44.1435Z" fill="black"/>
<path d="M138.961 44.7178C138.614 45.0851 137.979 45.7424 137.562 46.187C137.138 46.6317 136.268 47.5402 135.622 48.2104C134.975 48.8806 134.193 49.6925 133.882 50.0147C133.576 50.3369 133.141 50.788 132.912 51.0199C132.688 51.2519 131.989 51.9801 131.36 52.6374C130.731 53.2946 129.737 54.3192 129.155 54.9185C128.574 55.5178 127.845 56.2717 127.539 56.5939C127.233 56.9161 126.71 57.4574 126.381 57.7925L125.787 58.3982L125.781 60.5182L125.775 62.6318L126.704 61.6653C127.21 61.1369 127.839 60.4925 128.097 60.2283C128.356 59.9705 129.032 59.2746 129.596 58.6946C130.161 58.1082 130.813 57.4381 131.037 57.2125C131.489 56.7486 132.271 55.9495 132.947 55.2471C133.188 54.9958 133.811 54.3514 134.328 53.823C134.846 53.2946 135.51 52.6116 135.798 52.3087C136.339 51.7546 137.385 50.6784 138.843 49.1899L139.648 48.3651V46.2128C139.648 45.0271 139.637 44.0605 139.625 44.0605C139.607 44.0605 139.313 44.357 138.961 44.7178Z" fill="black"/>
<path d="M41.2094 45.2912C40.2159 45.3557 39.4341 45.7101 38.858 46.3545C38.135 47.16 37.9351 48.3779 38.3819 49.2478C38.811 50.0726 40.1101 50.1757 40.7156 49.4282C41.3563 48.6227 41.1212 47.3791 40.2453 46.9666C39.9808 46.8442 39.8867 46.8313 39.44 46.87C38.9697 46.9086 38.9344 46.9086 38.9697 46.8055C39.1108 46.4125 39.7045 45.9098 40.2453 45.7359C41.1153 45.4523 41.6855 45.6456 42.0265 46.348C42.1499 46.5929 42.1558 46.696 42.1734 48.8547C42.1852 50.0984 42.1793 51.1745 42.1617 51.2454C42.1205 51.4194 41.7208 51.6062 40.598 51.9929C39.487 52.3731 38.6405 52.7855 38.4289 53.0561C38.0821 53.4879 38.0703 53.6232 38.0703 57.1029V60.2668L38.2114 60.6019C38.4054 61.053 38.7169 61.2914 39.293 61.4332C39.681 61.5298 39.7868 61.5298 40.1219 61.459C40.3394 61.4139 40.5921 61.3365 40.6862 61.2914C40.9919 61.1497 41.4034 60.7695 41.7796 60.2604L42.144 59.7707L42.3204 60.2668C42.5438 60.9048 42.8142 61.2205 43.2844 61.3752C43.7606 61.5363 44.4072 61.517 44.8598 61.3301C45.3066 61.1432 45.5006 61.0014 45.8415 60.5955C46.1413 60.2411 46.2765 59.9704 46.2177 59.8158C46.1707 59.674 46.0825 59.6998 45.965 59.8802C45.4535 60.6728 45.2243 60.879 44.9892 60.7372C44.707 60.5762 44.7129 60.6728 44.7129 53.5652V46.8958L44.5835 46.5865C44.1427 45.5554 43.1257 45.1624 41.2094 45.2912ZM42.1675 55.2922C42.144 58.2306 42.1323 58.7074 42.0441 59.0425C41.903 59.5645 41.5797 60.2346 41.3328 60.4924C41.1447 60.6921 41.1212 60.6986 40.9507 60.6213C40.8508 60.5762 40.745 60.4859 40.7156 60.4215C40.6803 60.3506 40.6568 58.8814 40.6568 56.6905C40.6568 52.7984 40.6568 52.8177 40.9684 52.444C41.1447 52.2378 41.5092 51.9864 41.8325 51.8511C42.0617 51.7545 42.1029 51.7545 42.144 51.8382C42.1734 51.8898 42.1852 53.4428 42.1675 55.2922Z" fill="black"/>
<path d="M51.0247 45.4068C50.6955 45.5744 50.3957 45.9868 50.0724 46.7149C49.9196 47.0565 49.7726 47.34 49.7491 47.34C49.7256 47.3464 49.708 46.934 49.7138 46.4379C49.7197 45.7355 49.7021 45.5164 49.6433 45.4713C49.5434 45.4068 48.4735 45.4004 47.2449 45.4584C46.4748 45.4906 46.3573 45.5099 46.369 45.6002C46.3808 45.6775 46.4807 45.7097 46.7688 45.7355L47.1509 45.7677V53.4037V61.0396H46.7864C46.3808 61.0396 46.275 61.1041 46.4396 61.2394C46.5336 61.3103 46.9157 61.3296 48.5264 61.3296C49.6139 61.3296 50.5368 61.3038 50.5838 61.2716C50.6309 61.2394 50.6485 61.1685 50.6309 61.1105C50.6015 61.0267 50.5074 61.0074 50.1841 61.0074C49.8138 61.0074 49.7785 60.9945 49.7432 60.8592C49.6786 60.6014 49.7021 50.2333 49.7726 49.3634C49.849 48.313 50.0371 47.4689 50.3546 46.7407C50.7778 45.7741 51.1246 45.4842 51.5655 45.7097C51.7595 45.8128 51.7771 45.8386 51.7478 46.0319C51.7301 46.1479 51.6125 46.4121 51.4891 46.6183C51.0717 47.3013 50.8425 48.1068 50.913 48.661C51.013 49.5309 51.2422 49.9755 51.6948 50.1946C52.0828 50.3879 52.5531 50.214 52.9822 49.7178C53.4172 49.2152 53.5759 47.8684 53.2938 46.9663C53.0704 46.2252 52.6001 45.5873 52.1416 45.3746C51.8653 45.2458 51.3128 45.2651 51.0247 45.4068Z" fill="black"/>
<path d="M65.398 45.3686C64.3634 45.6908 63.464 46.9087 63.0055 48.6099C62.6646 49.8729 62.5881 51.0972 62.6469 54.4416C62.6939 57.0256 62.788 57.902 63.1466 59.1456C63.3935 59.9962 64.0048 60.776 64.722 61.1561C66.9029 62.316 68.8016 60.428 69.2542 56.6454C69.3835 55.5886 69.3718 54.8733 69.2307 54.7316C69.1719 54.6736 69.0838 54.6414 69.025 54.6671C68.9485 54.6994 68.9309 54.8089 68.9309 55.2664C68.9309 56.581 68.6194 58.2693 68.2079 59.1714C67.6494 60.4087 66.9205 61.053 66.1563 60.995C65.6508 60.9564 65.4215 60.6793 65.2981 59.9769C65.2334 59.6096 65.1511 53.6619 65.2099 53.4943C65.2334 53.417 65.5685 53.4041 67.2967 53.4041H69.3542L69.3248 51.4838C69.3013 49.8471 69.2836 49.4798 69.1719 48.9514C68.8133 47.1535 68.0962 45.9356 67.1204 45.4652C66.7735 45.2912 65.8095 45.2397 65.398 45.3686ZM66.3444 45.5748C66.4385 45.6328 66.5678 45.7681 66.6207 45.8841C66.7206 46.071 66.7265 46.3674 66.7265 49.57V53.0497L65.9858 53.069L65.2393 53.0884L65.2158 52.9208C65.1629 52.6309 65.2334 46.3545 65.2922 46.1547C65.4392 45.6263 65.9447 45.3492 66.3444 45.5748ZM66.7971 53.2495C66.7794 53.2688 66.7265 53.2752 66.6854 53.2559C66.6383 53.2366 66.656 53.2173 66.7206 53.2173C66.7853 53.2108 66.8206 53.2301 66.7971 53.2495ZM69.0308 55.5435C69.0132 55.5951 68.9956 55.5757 68.9956 55.5048C68.9897 55.434 69.0073 55.3953 69.025 55.4211C69.0426 55.4404 69.0485 55.4984 69.0308 55.5435Z" fill="black"/>
<path d="M74.9567 45.4074C74.5511 45.6071 74.169 46.1871 73.7399 47.2503C73.6694 47.4243 73.6635 47.3405 73.6459 46.4642L73.6282 45.4847L73.3578 45.4396C73.0874 45.3945 70.3363 45.4589 70.2893 45.5105C70.2776 45.5234 70.2834 45.5814 70.3011 45.6394C70.3305 45.7102 70.4304 45.736 70.7243 45.736H71.1064L71.0947 53.3849L71.077 61.0402H70.6949C70.3951 61.0402 70.3128 61.0596 70.3128 61.1369C70.3128 61.2851 70.5656 61.3173 71.7824 61.3238C73.3755 61.3302 74.5746 61.2658 74.5746 61.1691C74.5746 61.0467 74.4336 61.008 74.0103 61.008H73.6282L73.6517 54.9637C73.6694 50.8782 73.6988 48.7904 73.7458 48.5069C73.8928 47.5596 74.4101 46.2193 74.7451 45.91C75.0273 45.6523 75.2918 45.5814 75.5093 45.7038C75.7621 45.8456 75.7444 45.9938 75.4035 46.6059C74.8627 47.5725 74.7157 48.5069 74.9744 49.351C75.233 50.1887 75.8503 50.4981 76.4734 50.0985C77.0377 49.7312 77.2728 49.2222 77.3198 48.2491C77.3728 47.2761 77.1611 46.5222 76.6615 45.8842C76.2382 45.3365 75.5034 45.1303 74.9567 45.4074Z" fill="black"/>
<path d="M102.69 45.3745C102.049 45.6 101.291 46.3797 100.944 47.1659C100.679 47.7587 100.473 48.5578 100.338 49.4857C100.185 50.536 100.191 55.182 100.344 56.561C100.556 58.4813 100.814 59.4092 101.343 60.1567C101.92 60.975 102.425 61.323 103.219 61.4583C104.247 61.6259 105.247 61.1361 105.852 60.1567C106.299 59.435 106.552 58.6488 106.769 57.3021C106.857 56.7479 106.875 56.213 106.875 53.4035C106.875 50.1043 106.863 49.911 106.64 48.764C106.469 47.9005 105.987 46.7986 105.535 46.2509C105.3 45.9609 104.876 45.6194 104.582 45.4711C104.206 45.2907 103.084 45.2327 102.69 45.3745ZM103.754 45.6322C104.001 45.7418 104.224 46.0704 104.324 46.4442C104.418 46.805 104.406 60.1116 104.312 60.5046C104.218 60.8977 104.036 61.0846 103.695 61.1168C103.354 61.149 103.084 60.9944 102.937 60.6915C102.772 60.3307 102.743 59.1063 102.754 52.7269C102.766 47.952 102.784 46.354 102.837 46.1735C102.919 45.9029 103.266 45.542 103.442 45.542C103.507 45.542 103.648 45.5807 103.754 45.6322Z" fill="black"/>
<path d="M111.99 45.4006C111.761 45.5552 111.49 45.8968 111.249 46.3414C111.137 46.5412 111.026 46.7023 110.996 46.7023C110.967 46.7023 110.955 46.4381 110.973 46.0901L111.002 45.4844L110.738 45.4393C110.479 45.4006 107.969 45.4521 107.922 45.4972C107.91 45.5101 107.916 45.5746 107.94 45.6326C107.969 45.7099 108.051 45.7357 108.292 45.7357C108.598 45.7357 108.61 45.7421 108.616 45.9097C108.645 46.6249 108.651 65.7632 108.621 66.0919L108.58 66.5172L108.245 66.5365C108.01 66.5494 107.904 66.5816 107.904 66.6396C107.904 66.6911 107.945 66.7491 107.998 66.7685C108.116 66.82 111.984 66.82 112.101 66.7685C112.154 66.7491 112.196 66.6911 112.196 66.6396C112.196 66.5687 112.096 66.5494 111.79 66.5494C111.567 66.5494 111.343 66.53 111.29 66.5107C111.208 66.4785 111.196 66.1499 111.196 63.4692V60.4599L111.467 60.8014C111.614 60.9883 111.855 61.2138 112.002 61.3105C112.525 61.6456 113.289 61.4845 113.836 60.9239C114.1 60.6468 114.512 59.9509 114.664 59.5191C115.387 57.4377 115.599 52.1344 115.082 48.9898C114.776 47.1469 114.165 45.8903 113.359 45.4521C112.971 45.2395 112.272 45.2137 111.99 45.4006ZM112.472 45.9419C112.583 46.0708 112.683 46.2705 112.719 46.4445C112.76 46.6314 112.783 49.0285 112.783 53.3137C112.783 60.5566 112.789 60.4019 112.437 60.679C112.342 60.7563 112.207 60.8143 112.131 60.8143C111.772 60.8143 111.367 60.1635 111.255 59.3967C111.173 58.7974 111.173 47.6173 111.261 47.1404C111.39 46.4509 111.86 45.7357 112.196 45.7357C112.248 45.7357 112.372 45.8323 112.472 45.9419Z" fill="black"/>
<path d="M16.6432 53.0681C16.4434 53.2679 15.7321 53.996 15.0561 54.6855C14.3742 55.375 13.5982 56.1676 13.3219 56.4576C13.0456 56.7476 12.5048 57.3017 12.1169 57.6884C11.7289 58.0814 10.9765 58.8483 10.4415 59.396C9.90659 59.9437 8.95429 60.9167 8.32531 61.5547C7.69632 62.1926 6.73227 63.1786 6.1797 63.7456C5.62713 64.3127 4.72186 65.2341 4.16929 65.7948C3.61672 66.3554 3.15233 66.8516 3.1347 66.8902C3.08767 67.0384 3.10531 70.3506 3.15821 70.3506C3.18172 70.3506 3.25227 70.299 3.31105 70.2346C3.41098 70.1186 5.29794 68.237 6.29139 67.2575C6.56179 66.9933 7.56112 66.001 8.50754 65.0602C9.45984 64.1129 10.5944 62.9852 11.0294 62.5535C11.4644 62.1218 12.0875 61.4967 12.4108 61.1745C12.7341 60.8459 13.2925 60.2917 13.6452 59.9437C14.0038 59.5893 14.7563 58.8354 15.3206 58.2683C15.8908 57.7013 16.5021 57.0891 16.6902 56.9151L17.0312 56.5929L17.0136 54.6469L16.9959 52.7008L16.6432 53.0681Z" fill="black"/>
<path d="M139.178 53.1649C138.937 53.4226 137.997 54.3828 137.091 55.3042C136.186 56.2257 135.234 57.1987 134.975 57.4694C134.716 57.74 134.305 58.1589 134.058 58.4037C133.811 58.6486 132.606 59.8794 131.377 61.1359C130.155 62.3925 128.45 64.1323 127.598 65.0022C126.745 65.8721 125.987 66.6454 125.911 66.7227C125.775 66.8645 125.775 66.8709 125.775 68.6108C125.775 69.6676 125.799 70.3506 125.828 70.3377C125.858 70.3248 126.275 69.9253 126.751 69.4485C127.968 68.2306 129.502 66.7034 131.242 64.97C132.065 64.1516 133.188 63.0368 133.741 62.4891C134.287 61.9349 134.887 61.3421 135.075 61.1681C135.257 60.9877 135.851 60.3949 136.398 59.8471C136.944 59.2994 137.75 58.5004 138.179 58.0751C138.608 57.6498 139.119 57.1407 139.307 56.9474L139.654 56.593L139.637 54.647L139.619 52.7009L139.178 53.1649Z" fill="black"/>
<path d="M16.3126 61.4199C15.9363 61.7808 15.0781 62.5927 14.4021 63.2306C13.732 63.8686 12.9266 64.6354 12.6151 64.9383C12.0625 65.4731 10.2049 67.2388 8.85878 68.5082C8.48256 68.8626 7.47736 69.8228 6.61912 70.6411C5.76088 71.4531 4.86736 72.2972 4.63811 72.5099C4.40297 72.7161 4.20898 72.9158 4.20898 72.9416C4.20898 72.9674 4.87912 72.9932 5.70209 72.9932H7.20108L7.63608 72.555C7.87709 72.3166 8.50608 71.7173 9.03513 71.2146C9.56419 70.7185 10.3049 70.0225 10.6752 69.6681C11.363 69.0108 13.438 67.0519 15.3485 65.2605C15.9363 64.7127 16.5536 64.1328 16.7182 63.9717L17.0297 63.6817L17.0121 62.2254L16.9945 60.7755L16.3126 61.4199Z" fill="black"/>
<path d="M139.319 61.0591C139.155 61.2266 138.455 61.9032 137.762 62.5605C137.068 63.2178 135.751 64.4743 134.828 65.3507C133.905 66.2335 132.794 67.2839 132.365 67.6963C130.755 69.2235 130.143 69.8099 129.679 70.2545C129.42 70.4994 128.685 71.1953 128.051 71.801C127.416 72.4003 126.893 72.9158 126.893 72.9416C126.893 72.9674 127.551 72.9932 128.362 72.9932H129.832L130.314 72.5228C130.584 72.265 131.184 71.6915 131.654 71.2469C132.124 70.8022 133.165 69.8228 133.97 69.0624C134.775 68.302 135.64 67.4901 135.886 67.2581C136.41 66.7748 137.268 65.9564 137.997 65.2605C138.273 64.9899 138.726 64.5646 139.002 64.3197C139.278 64.0684 139.537 63.8171 139.578 63.7655C139.631 63.6882 139.649 63.3144 139.637 62.2125L139.619 60.7562L139.319 61.0591Z" fill="black"/>
<path d="M67.5855 65.0671C66.4569 65.4022 65.7691 66.2528 65.7103 67.3934C65.6868 67.8702 65.6985 67.9347 65.869 68.3213C66.0748 68.7788 66.3628 69.0752 66.8448 69.3201C67.0917 69.449 67.2269 69.4748 67.7854 69.4748C68.3673 69.4748 68.4673 69.4554 68.7965 69.2943C68.9904 69.1977 69.2197 69.0366 69.302 68.9464C69.543 68.6693 69.7135 68.1795 69.7429 67.6576L69.7723 67.1936H69.5019C69.3549 67.1936 69.2138 67.2258 69.1903 67.2645C69.1727 67.3032 69.1492 67.5287 69.1374 67.7671C69.1198 68.5082 68.8141 68.9464 68.1733 69.1526C67.8853 69.2428 67.8206 69.2428 67.4503 69.1526C66.7273 68.9721 66.3452 68.418 66.3452 67.5416C66.3452 67.1421 66.3746 67.0196 66.5568 66.6266C66.8213 66.0402 67.1211 65.7502 67.6619 65.5698C68.0146 65.4538 68.1616 65.4409 68.8082 65.4731C69.2138 65.4924 69.9604 65.5827 70.46 65.6729C70.9597 65.7631 71.4829 65.8404 71.624 65.8404C72.106 65.8404 72.1177 65.8726 71.9238 66.5943C71.8297 66.9423 71.7121 67.5287 71.6592 67.9024C71.6004 68.3084 71.524 68.6113 71.4711 68.6564C71.4241 68.7015 71.2477 68.7659 71.0773 68.8046C70.7187 68.8884 70.3366 69.1397 70.2073 69.3845C70.0721 69.6359 70.0192 70.0676 70.1073 70.19C70.1955 70.306 70.4365 70.3189 70.5012 70.2029C70.5247 70.1642 70.5776 69.9516 70.607 69.739C70.6599 69.3845 70.6834 69.3459 70.8715 69.2428C70.9832 69.1848 71.1654 69.1203 71.2771 69.0946L71.477 69.0495L71.4358 69.4103C71.3242 70.3576 70.8774 71.6979 70.5247 72.1103C70.2484 72.4454 69.8722 72.6065 69.3843 72.6065C69.0198 72.6065 68.9258 72.5807 68.7612 72.4518C68.5202 72.2521 68.4261 72.1167 68.3791 71.859C68.3262 71.5948 68.4202 71.3564 68.673 71.0986C68.9904 70.7829 68.9434 70.3511 68.6083 70.4542C68.2263 70.5767 67.8971 70.9762 67.7913 71.4659C67.7266 71.7688 67.8618 72.1619 68.1381 72.4518C68.4967 72.832 68.8611 72.948 69.543 72.9158C70.219 72.8836 70.5365 72.716 71.0244 72.1425C71.5475 71.5239 71.7709 70.9633 72.0472 69.6165C72.1648 69.0237 72.2177 68.9335 72.441 68.9335C72.5645 68.9335 72.5704 68.9528 72.5292 69.2686C72.5057 69.4554 72.4881 69.739 72.4881 69.9001C72.4881 70.1771 72.494 70.19 72.6644 70.19H72.8408L72.8819 69.6165C72.9348 68.8755 72.9583 68.7724 73.17 68.4824C73.3816 68.1924 73.3757 67.9991 73.1641 67.9991C73.0465 67.9991 72.9877 68.0635 72.8878 68.2891C72.7761 68.5533 72.7408 68.5855 72.5057 68.6177C72.3705 68.6435 72.2353 68.6435 72.2177 68.6177C72.1471 68.5468 72.5233 66.2786 72.6585 65.9306C72.7115 65.8146 72.829 65.6858 72.9583 65.6213C73.1994 65.4924 73.2699 65.3636 73.1641 65.2282C73.0524 65.0865 72.9172 65.1122 72.6468 65.3249C72.441 65.486 72.347 65.5182 72.0648 65.5182C71.7768 65.5118 71.2125 65.4216 70.7246 65.3056C69.9956 65.1251 69.2961 65.0156 68.579 64.9705C68.1322 64.9447 67.9323 64.964 67.5855 65.0671Z" fill="black"/>
<path d="M75.9788 67.3036C75.9318 67.4583 75.92 67.7353 75.9494 68.122C76.0023 68.9661 75.8142 69.6298 75.4027 70.0551C75.1734 70.2935 75.1205 70.2355 75.2381 69.8875C75.4674 69.1852 75.4086 68.5472 75.0735 68.18C74.9207 68.0124 74.8325 67.9673 74.6444 67.9673C74.3505 67.9673 74.1624 68.1284 73.9272 68.5795C73.8273 68.7728 73.7039 68.9339 73.6568 68.9339C73.4334 68.9339 73.2571 70.1517 73.3982 70.7059C73.5216 71.1892 73.8626 71.3954 74.2917 71.2601C74.5915 71.157 75.7907 69.8682 75.9435 69.4816C76.1022 69.095 76.2022 68.9081 76.2727 68.8823C76.3785 68.8437 76.3491 69.5847 76.2257 69.9649C75.9435 70.8412 76.0199 71.2536 76.4491 71.2536C76.6136 71.2536 76.7371 71.2021 76.8664 71.0861C77.0898 70.8799 77.6012 69.7587 77.5483 69.5976C77.5189 69.5138 77.4366 69.6298 77.2426 70.0293C76.6724 71.2021 76.3668 71.1441 76.7253 69.9326C76.9076 69.314 76.8899 69.0241 76.6489 68.6954C76.5607 68.573 76.4608 68.4313 76.4314 68.3862C76.3785 68.3088 76.4667 67.6129 76.5549 67.3487C76.596 67.2263 76.402 67.0652 76.2198 67.0652C76.0787 67.0652 76.0434 67.1038 75.9788 67.3036ZM74.8031 68.5215C74.8384 68.6117 74.8678 68.7985 74.8678 68.9403C74.8678 69.2689 74.7091 70.0422 74.6091 70.1904C74.5445 70.2871 74.5209 70.2806 74.3505 70.068C74.2329 69.9198 74.1565 69.7522 74.1506 69.6233C74.1212 68.9532 74.2505 68.4506 74.4798 68.3539C74.6444 68.2895 74.7208 68.3282 74.8031 68.5215ZM74.1271 70.2162C74.374 70.5384 74.3975 70.8219 74.1859 70.8541C73.9801 70.8863 73.8097 70.5899 73.8097 70.2097C73.8097 70.0357 73.8332 69.9004 73.8626 69.9133C73.892 69.9198 74.0095 70.0615 74.1271 70.2162Z" fill="black"/>
<path d="M139.472 67.7028C139.343 67.8445 138.15 69.0882 135.945 71.3564C135.704 71.6077 135.263 72.0524 134.969 72.3552C134.67 72.6516 134.44 72.9158 134.458 72.9416C134.47 72.9738 135.645 72.9932 137.068 72.9932H139.649V70.2545C139.649 68.7467 139.643 67.5223 139.637 67.5223C139.625 67.5288 139.555 67.6061 139.472 67.7028Z" fill="black"/>
<path d="M16.8954 67.6254C16.8895 67.6576 16.6897 67.8638 16.4604 68.0958C16.2311 68.3278 15.1965 69.3846 14.162 70.4478C13.1332 71.5111 12.1751 72.4905 12.0399 72.6194C11.9047 72.7547 11.793 72.8901 11.793 72.9287C11.793 72.9738 12.6982 72.9932 14.4088 72.9932H17.0247V70.2867C17.0247 67.9089 17.0012 67.374 16.8954 67.6254Z" fill="black"/>
<path d="M0.882888 73.9531C0.871132 73.966 0.859375 74.7909 0.859375 75.7768V77.5682H1.85282H2.84039L3.92201 79.3531L5.00363 81.1445L10.0708 81.1639L15.1379 81.1768L15.3025 80.9383C15.3907 80.803 15.7846 80.2553 16.1725 79.7269C16.5605 79.192 17.066 78.4897 17.2894 78.161L17.7009 77.5617L18.5004 77.5811L19.3057 77.6004L19.3292 77.304C19.3469 77.1429 19.3469 76.3181 19.3351 75.4675L19.3116 73.9274H10.1119C5.05065 73.9274 0.894645 73.9403 0.882888 73.9531Z" fill="black"/>
<path d="M123.553 75.7446L123.57 77.5811L124.54 77.594L125.51 77.6004L126.598 79.3854L127.685 81.1768H132.723H137.755L138.566 80.062C139.013 79.4562 139.607 78.6443 139.883 78.2641L140.383 77.5682H141.194H141.999V75.7381V73.9081H132.77H123.541L123.553 75.7446Z" fill="black"/>
<path d="M58.02 74.6102C57.1383 74.752 56.4211 75.1708 55.6687 75.9892C54.6223 77.1362 53.8757 78.934 53.6171 80.9316C53.5289 81.6211 53.5113 82.7166 53.5818 83.2707C53.6406 83.7669 53.6053 83.7991 53.041 83.7347C51.7654 83.5994 50.8778 83.2836 50.2605 82.7423C49.7491 82.2913 49.367 81.2603 49.4376 80.5257C49.6022 78.9147 50.8307 77.9223 52.1475 78.3348C52.5414 78.4572 52.7059 78.4379 52.7059 78.2703C52.7059 78.2381 52.7706 78.0963 52.8529 77.9546C52.9352 77.8128 52.9999 77.6839 52.9999 77.671C52.9999 77.6517 52.8235 77.5808 52.6119 77.5035C51.9124 77.2715 50.9189 77.3811 50.1959 77.7806C49.5022 78.1672 48.9261 78.9598 48.7145 79.8104C48.5029 80.6674 48.5793 81.3118 48.9791 82.1431C49.2906 82.7939 49.7432 83.2514 50.4428 83.6316C51.2834 84.0827 51.783 84.2115 52.8647 84.2502L53.7582 84.2824L54.0227 84.8817C54.3637 85.6485 54.7575 86.1254 55.2807 86.4089C55.6569 86.6087 55.7039 86.6216 56.3799 86.6216C57.0677 86.6216 57.0971 86.6151 57.5968 86.3702C57.8789 86.2349 58.1376 86.0867 58.1787 86.0352C58.214 85.9836 58.3022 85.9449 58.3668 85.9449C58.4726 85.9449 58.4785 85.9707 58.4491 86.3445C58.361 87.3562 57.8378 89.4053 57.5203 89.9852C57.3499 90.2881 56.9737 90.6296 56.7209 90.707C56.4328 90.7972 56.0037 90.7972 55.7686 90.707C55.5452 90.6232 55.2337 90.1528 55.2337 89.9015C55.2337 89.4891 55.6628 88.9091 55.9626 88.9091C56.0625 88.9091 56.0684 88.8705 56.0331 88.4709C55.9626 87.7299 55.9626 87.7299 55.6628 87.775C54.9809 87.8781 54.4518 88.3614 54.2637 89.0509C54.1462 89.4955 54.152 89.7404 54.299 90.1721C54.8222 91.6929 57.0207 91.8411 58.2081 90.4428C58.8959 89.6179 59.1134 88.8833 59.7012 85.365C59.907 84.1471 59.9422 84.0053 60.1891 83.4318C60.3126 83.129 60.4301 82.8648 60.4478 82.8326C60.4595 82.8068 60.3478 82.7295 60.1891 82.6521C60.0363 82.5813 59.807 82.4717 59.6836 82.4008L59.4602 82.2848L59.3544 82.549C59.2956 82.6972 59.1369 83.1805 59.0017 83.6252C58.5197 85.1652 58.1611 85.6936 57.438 85.9385C56.956 86.0996 56.668 86.106 56.2447 85.9643C55.798 85.8096 55.4394 85.4423 55.1984 84.8882C54.881 84.1664 54.8927 84.1471 55.604 83.8958C57.0207 83.3996 57.9377 82.8003 58.8783 81.7629C59.6542 80.9058 60.0951 80.1906 60.4301 79.2433C60.7182 78.4056 60.7828 78.0319 60.7887 77.1813C60.7887 76.4338 60.777 76.35 60.6241 75.9956C60.2773 75.1773 59.8423 74.7906 59.084 74.636C58.5902 74.5329 58.5432 74.5264 58.02 74.6102ZM59.0311 75.3641C60.4654 76.5047 59.2897 80.5965 57.0089 82.3815C56.3682 82.8841 55.0044 83.5285 54.8751 83.3867C54.7634 83.2643 54.7457 82.2011 54.8457 81.2989C54.9456 80.3517 55.2572 78.8954 55.4629 78.3734C56.3212 76.2469 57.3146 75.1901 58.4726 75.1837C58.743 75.1837 58.843 75.2159 59.0311 75.3641Z" fill="black"/>
<path d="M74.3625 75.8223C73.904 76.0543 73.3808 76.9435 73.081 78.0197C72.9987 78.3225 72.8694 78.7994 72.7871 79.0829C72.6049 79.7531 72.258 81.5767 72.1346 82.5562C72.0817 82.9815 71.9759 83.5163 71.8936 83.7483C71.5938 84.6633 70.9295 85.8039 70.7414 85.7395C70.7061 85.7266 70.618 85.6299 70.5533 85.5332C70.4416 85.3786 70.4298 85.269 70.4357 84.6053C70.4416 84.1929 70.4886 83.5872 70.5415 83.2586C70.6532 82.5626 71.0177 81.0547 71.0941 80.971C71.1235 80.9388 71.2058 80.9388 71.294 80.9774C71.4644 81.0483 71.5232 81.0096 71.6232 80.7712C71.7172 80.5263 71.6643 80.4555 71.4057 80.4812C71.147 80.5006 71.147 80.6037 71.388 79.0829C71.488 78.445 71.5761 77.7619 71.5879 77.5686L71.6055 77.2142L71.1529 77.1948L70.7003 77.1755L70.6473 77.4204C70.618 77.5557 70.5357 77.981 70.4651 78.3741C70.2711 79.4631 70.0948 80.2944 70.0419 80.4104C70.0007 80.4941 69.9361 80.507 69.7362 80.4877C69.4893 80.4555 69.4717 80.4619 69.407 80.6617C69.3247 80.9388 69.3659 80.9967 69.6539 80.971C69.8067 80.9645 69.9008 80.9839 69.9184 81.0354C69.9302 81.0805 69.9008 81.3254 69.8479 81.5831C69.795 81.8409 69.7186 82.3242 69.6715 82.6593C69.5716 83.3745 69.3894 83.9545 69.0073 84.7149C68.7075 85.327 68.3842 85.7523 68.2255 85.7523C68.0491 85.7523 67.8728 85.443 67.8728 85.1402C67.8728 84.992 67.9962 84.4249 68.1432 83.8772C68.7604 81.5831 68.8309 81.0483 68.5782 80.6423C68.2255 80.0753 67.5142 80.1848 66.8205 80.9194C66.5795 81.1772 66.4972 81.2352 66.4561 81.1707C66.3855 81.0483 66.3914 81.0354 66.4913 80.7648C66.5971 80.4812 66.6089 80.4877 65.974 80.449C65.686 80.4361 65.5038 80.449 65.4744 80.4941C65.445 80.5328 65.3627 80.9388 65.2921 81.4027C64.9747 83.4776 64.9394 83.6194 64.5867 84.2702C64.0988 85.1659 63.6638 85.5461 63.0584 85.6041C62.6763 85.6363 62.4117 85.4946 62.2648 85.1853C62.1648 84.9662 62.0061 84.1543 62.0355 84.0125C62.0473 83.9545 62.2119 83.8643 62.4117 83.7998C63.0348 83.6001 63.4169 83.3617 63.8226 82.917C64.14 82.5755 64.234 82.4208 64.334 82.0858C64.5044 81.5316 64.5044 81.0676 64.3281 80.7905C63.7814 79.8884 62.4999 80.3137 61.7063 81.654C61.383 82.2018 61.189 82.8461 61.0773 83.787C60.9951 84.5022 60.9951 84.6182 61.0773 85.0628C61.1303 85.327 61.1949 85.6235 61.2302 85.7266C61.3478 86.0616 61.6593 86.4096 61.9826 86.5772C62.253 86.7125 62.3647 86.7318 62.7057 86.706C63.2523 86.6609 63.658 86.4354 64.0812 85.9328C64.2634 85.7201 64.428 85.5655 64.4457 85.5848C64.4692 85.6041 64.4515 85.7717 64.4163 85.9521C64.3751 86.1325 64.3457 86.3581 64.3457 86.4483V86.6223H64.8748C65.298 86.6223 65.4097 86.6029 65.4332 86.5256C65.445 86.4741 65.539 85.9779 65.639 85.4301C65.9799 83.5356 66.0975 83.0781 66.4384 82.2855C66.6442 81.8216 66.9675 81.3576 67.1732 81.2352C67.2908 81.1707 67.5553 81.2674 67.5965 81.3963C67.6611 81.5703 67.5024 82.2855 67.1732 83.3552C66.7323 84.7793 66.6324 85.4108 66.7735 85.907C66.9146 86.3838 67.138 86.6029 67.5436 86.6416C67.814 86.6674 67.908 86.6416 68.1667 86.4869C68.5664 86.2485 68.8956 85.8297 69.1484 85.2497C69.3717 84.7535 69.4599 84.6698 69.4599 84.9726C69.4599 85.3077 69.6363 86.0874 69.7597 86.313C69.9067 86.5772 70.036 86.6545 70.3123 86.6545C70.6297 86.6545 70.8766 86.5127 71.1529 86.1712C71.388 85.8748 71.8113 85.05 71.8113 84.8824C71.8113 84.8373 71.8524 84.7664 71.8994 84.7213C71.9759 84.6504 71.9876 84.6762 71.9876 84.8631C71.9876 85.5461 72.2757 86.3774 72.5872 86.59C72.8753 86.7898 73.4161 86.7447 73.7453 86.4998C74.0509 86.2614 74.5741 85.5075 74.7563 85.0242C74.8386 84.8115 74.9268 84.6375 74.9562 84.6375C74.9856 84.6311 75.0385 84.8115 75.0796 85.0435C75.2207 85.8554 75.4794 86.3065 75.9673 86.5643C76.2436 86.7125 76.3376 86.7318 76.708 86.706C77.2605 86.6674 77.6544 86.4418 78.0659 85.9328C78.3892 85.5268 78.5009 85.5268 78.4009 85.9199C78.3657 86.0616 78.3363 86.255 78.3363 86.3645V86.5578H78.8301C79.1063 86.5578 79.3532 86.5256 79.3885 86.4934C79.4238 86.4547 79.5413 85.9392 79.653 85.3464C79.8823 84.1607 80.0645 83.3552 80.188 82.9364C80.4995 81.9247 81.0109 81.1578 81.299 81.2803C81.4636 81.3512 81.4636 81.7056 81.3107 82.5626C81.2284 83.0266 81.105 83.7354 81.0344 84.1414C80.9639 84.5473 80.8346 85.2433 80.7464 85.6879C80.6582 86.1325 80.5936 86.5127 80.6053 86.5321C80.6171 86.5514 80.8581 86.5707 81.1403 86.5643L81.6517 86.5578L81.7046 86.3323C81.734 86.2099 81.7928 85.9457 81.8339 85.7523C81.8809 85.559 81.9867 85.05 82.069 84.6247C82.1572 84.1994 82.3159 83.5485 82.4335 83.1748C82.7803 82.0664 83.039 81.5638 83.4152 81.3061C83.8384 81.0225 83.9736 81.4027 83.7679 82.2984C83.668 82.743 83.3211 84.0125 83.1742 84.4893C83.1154 84.6891 83.0742 85.0306 83.0742 85.3979C83.0684 85.9457 83.0801 86.0037 83.233 86.2227C83.5504 86.6803 83.9149 86.764 84.4204 86.4998C84.8201 86.2936 85.1611 85.8877 85.455 85.269C85.5843 84.9855 85.7254 84.7535 85.7607 84.7535C85.8018 84.7535 85.8488 84.9082 85.8724 85.0951C85.9723 85.8426 86.4249 86.5063 86.9422 86.6609C87.2655 86.7576 87.8769 86.6867 88.1826 86.5256C88.4412 86.3903 88.8644 85.9714 89.0408 85.6815C89.1936 85.4366 89.2348 85.5848 89.1525 86.0745C89.1113 86.3258 89.0878 86.5385 89.0996 86.5514C89.1113 86.5643 89.3582 86.59 89.6463 86.5965C90.1342 86.6158 90.1694 86.6094 90.2165 86.4805C90.24 86.4032 90.3576 85.8361 90.4692 85.2239C90.7749 83.5679 90.9395 82.9299 91.204 82.3242C91.498 81.6411 91.9094 81.1578 92.1446 81.2158C92.4679 81.2996 92.4855 81.3769 92.3386 82.0149C92.2622 82.3306 92.1387 82.7753 92.0564 82.9944C91.9741 83.2199 91.8213 83.7741 91.7096 84.238C91.4098 85.4753 91.4333 85.9199 91.8272 86.371C92.0564 86.6352 92.0917 86.6545 92.3797 86.6545C93.0616 86.6545 93.6436 86.0359 94.249 84.6762C94.6311 83.7998 94.6899 83.5421 94.5077 83.4325C94.3901 83.3681 94.3725 83.381 94.2902 83.6065C94.108 84.1027 94.008 84.3154 93.6965 84.9017C93.2615 85.7008 93.0028 85.9134 92.7853 85.6363C92.5443 85.3464 92.5855 84.9791 93.0087 83.5679C93.6142 81.5509 93.6671 80.9388 93.2674 80.507C93.1086 80.3266 93.0499 80.3072 92.7501 80.3137C92.3327 80.3137 92.0799 80.4426 91.6743 80.8614C91.2569 81.2867 91.0159 81.2867 91.2393 80.855C91.2863 80.7648 91.3216 80.6423 91.3275 80.5779C91.3275 80.4748 91.2746 80.4683 90.7867 80.4812L90.24 80.5006L90.1988 80.7583C90.1694 80.9001 90.1283 81.2029 90.093 81.4349C89.999 82.176 89.805 83.1619 89.6874 83.5292C89.464 84.2187 88.8351 85.2111 88.4941 85.4044C87.9533 85.7137 87.5594 85.7072 87.2185 85.3915C87.001 85.1917 86.9187 84.934 86.9011 84.3605L86.8893 83.9158L87.3302 83.7547C87.9415 83.5228 88.2061 83.3617 88.5764 82.9879C89.1407 82.4208 89.4288 81.3963 89.1701 80.855C88.7528 79.9722 87.4889 80.1977 86.7188 81.2996C86.3779 81.7893 86.3191 81.9247 86.0076 82.9621C85.6196 84.2316 84.9847 85.5075 84.6379 85.6815C84.4498 85.7781 84.4145 85.7717 84.2734 85.6106C84.0618 85.3593 84.1441 84.7342 84.5909 83.2779C84.8495 82.4402 85.0376 81.5703 85.0376 81.2094C85.0376 80.6681 84.7319 80.275 84.2969 80.275C83.8443 80.275 83.133 80.7519 82.9155 81.2158C82.8391 81.3705 82.7509 81.4929 82.7157 81.48C82.6863 81.4671 82.6334 81.2996 82.5981 81.1063C82.4629 80.3781 82.1513 80.1526 81.5459 80.3524C81.3107 80.4297 80.8757 80.8421 80.67 81.1707C80.5465 81.3705 80.3937 81.3061 80.3937 81.0547C80.3937 80.9516 80.4231 80.8421 80.4525 80.8228C80.4878 80.8034 80.5113 80.7132 80.5113 80.623C80.5113 80.4683 80.5054 80.4683 79.9822 80.4683C79.3826 80.4683 79.459 80.3781 79.3356 81.2416C79.2063 82.1631 78.9888 83.2908 78.8888 83.5679C78.7066 84.0769 78.3128 84.7471 77.9836 85.1144C77.7308 85.3915 77.5897 85.4881 77.3369 85.5655C76.5669 85.8039 76.1495 85.3915 76.1378 84.3733L76.1319 83.8707L76.4552 83.7805C76.9666 83.6387 77.4545 83.3423 77.7955 82.9686C78.154 82.5819 78.2775 82.3435 78.4303 81.7893C78.5538 81.3125 78.4832 80.9259 78.2069 80.6166C77.719 80.0624 76.7844 80.275 76.1084 81.087C75.738 81.5316 75.5029 82.0213 75.2384 82.917C74.8974 84.064 74.2332 85.3721 73.8511 85.6299C73.4337 85.9134 73.0986 85.6363 73.0163 84.9404C72.9634 84.4507 73.0399 83.2586 73.1457 82.9815C73.1927 82.859 73.2867 82.685 73.3632 82.5948C73.5983 82.3242 74.3272 81.0805 74.5741 80.5392C74.9209 79.7917 75.0855 79.2698 75.3148 78.2323C75.6499 76.718 75.5499 76.0736 74.9444 75.7901C74.7034 75.6741 74.6505 75.6805 74.3625 75.8223ZM74.9386 76.7695C74.968 76.8727 74.968 77.1175 74.9503 77.3108C74.8974 77.807 74.5506 79.244 74.339 79.8433C74.1567 80.3717 73.4278 82.002 73.3338 82.1115C73.0281 82.4531 73.9216 78.3741 74.4036 77.2464C74.7269 76.486 74.8445 76.3829 74.9386 76.7695ZM63.511 81.1514C63.9107 81.4543 63.3993 82.5884 62.5998 83.1683C62.2589 83.4196 62.1707 83.4196 62.1707 83.1877C62.1707 82.6786 62.6645 81.5767 63.0466 81.2223C63.27 81.0225 63.3288 81.0096 63.511 81.1514ZM77.5721 81.1707C77.672 81.3834 77.6367 81.6798 77.4604 82.0987C77.2546 82.5691 77.1841 82.6593 76.7315 83.0652C76.173 83.5614 76.0496 83.4583 76.273 82.6915C76.514 81.8602 76.6257 81.654 77.043 81.2738C77.3193 81.0225 77.478 80.9903 77.5721 81.1707ZM88.353 81.1901C88.5 81.4156 88.4647 81.6411 88.2296 82.1502C88.0532 82.5175 87.918 82.7044 87.6006 82.9944C86.9834 83.5614 86.807 83.4841 87.0363 82.7366C87.2303 82.0987 87.4889 81.596 87.7769 81.3061C88.065 81.0161 88.2237 80.9839 88.353 81.1901Z" fill="black"/>
<path d="M65.4683 92.5765C65.3919 92.7312 65.1391 93.8395 65.0157 94.5483C64.8687 95.4183 64.9275 96.5653 65.1626 97.6092C65.433 98.7626 65.3919 98.724 66.1561 98.6724C67.4434 98.5822 68.5662 98.3245 69.2246 97.9636C69.3716 97.8798 69.7478 97.6092 70.0711 97.3579C70.7471 96.8295 70.8588 96.7973 71.8405 96.8553C72.5929 96.8939 72.7693 96.9584 73.216 97.3772C73.7392 97.8476 74.6151 98.2665 75.5439 98.4791C76.0494 98.5887 77.5425 98.724 77.7012 98.666C77.8364 98.6209 77.8835 98.492 78.101 97.5512C78.3655 96.3849 78.4184 95.8371 78.342 95.1412C78.2655 94.5097 77.9657 93.0791 77.8364 92.7247L77.7541 92.5185H77.0252C76.5549 92.5185 76.0847 92.5636 75.6849 92.641C74.5328 92.8794 74.0684 93.092 73.3982 93.6784C72.2696 94.6708 72.3636 94.6128 72.105 94.5161C71.9404 94.4581 71.6935 94.4452 71.282 94.471L70.6883 94.5097L70.2651 94.0715C70.0299 93.8331 69.6772 93.5109 69.4774 93.3627C68.866 92.9052 67.8608 92.6087 66.7263 92.5443C66.403 92.5314 65.9974 92.5056 65.8269 92.4863C65.58 92.467 65.5095 92.4863 65.4683 92.5765Z" fill="black"/>
</svg>
