<svg width="100" height="100" viewBox="0 0 100 100" fill="none" xmlns="http://www.w3.org/2000/svg">
<path fill-rule="evenodd" clip-rule="evenodd" d="M35.2044 30.854L53.8217 23.0632L69.8753 39.653L62.3833 58.2701C49.678 61.8015 37.8433 66.9559 26.6697 73.3449L24.4017 70.5197L46.5608 48.479C47.0068 48.6839 47.4905 48.7863 47.9796 48.7863H47.985C49.8983 48.7863 51.4462 47.2336 51.4462 45.3142C51.4462 43.4002 49.8983 41.842 47.985 41.842C46.077 41.842 44.5238 43.3948 44.5238 45.3142C44.5238 45.9342 44.6851 46.5165 44.9699 47.0179L23.042 68.8753L20 66.0878C26.6912 55.0998 31.8078 43.384 35.2044 30.854ZM59.1263 18.75L74.6747 34.7306L73.2559 36.1162L71.837 37.5018L56.2886 21.5159L57.7075 20.1302L59.1263 18.75Z" fill="white"/>
<path fill-rule="evenodd" clip-rule="evenodd" d="M22.7062 79.1334C29.994 85.8621 34.2828 82.9291 40.3506 78.7668C45.3704 75.327 51.4382 71.1701 60.6393 69.7953C61.295 67.5847 63.3373 65.9727 65.7505 65.9727C68.6957 65.9727 71.082 68.3665 71.082 71.3211C71.082 74.2756 68.6957 76.6695 65.7505 76.6695C63.6813 76.6695 61.8862 75.4887 61.0048 73.7581C52.7711 75.0682 47.1977 78.8854 42.581 82.0449C34.8042 87.3717 29.3705 91.0919 19.8469 81.9155C19.2074 82.1743 18.5248 82.3091 17.8369 82.3091H17.8315C14.8863 82.3091 12.5 79.9152 12.5 76.9606C12.5 74.0061 14.8863 71.6122 17.8315 71.6122C20.7767 71.6122 23.163 74.0061 23.163 76.9606V76.966C23.163 77.7155 23.0071 78.4487 22.7062 79.1334Z" fill="white"/>
</svg>
