<svg width="40" height="46" viewBox="0 0 40 46" fill="none" xmlns="http://www.w3.org/2000/svg">
<path d="M22.8563 7.1875C22.8563 5.59727 21.5795 4.3125 19.9992 4.3125C18.4188 4.3125 17.142 5.59727 17.142 7.1875V20.125H4.28488C2.70452 20.125 1.42773 21.4098 1.42773 23C1.42773 24.5902 2.70452 25.875 4.28488 25.875H17.142V38.8125C17.142 40.4027 18.4188 41.6875 19.9992 41.6875C21.5795 41.6875 22.8563 40.4027 22.8563 38.8125V25.875H35.7134C37.2938 25.875 38.5706 24.5902 38.5706 23C38.5706 21.4098 37.2938 20.125 35.7134 20.125H22.8563V7.1875Z" fill="#2C8C7D"/>
</svg>
