<svg width="190" height="181" viewBox="0 0 190 181" fill="none" xmlns="http://www.w3.org/2000/svg">
<g clip-path="url(#clip0_1_2417)">
<path d="M30.0406 17.7758L30.8783 17.6886L30.0698 17.4512L3.56881 12.3118L3.54446 12.3069L3.37399 12.1616L3.35938 11.9388L4.45039 9.42958L5.79468 6.99305L6.40836 6.21318L7.14871 5.6658L8.06924 5.34127L13.4464 4.27558L14.0552 4.03823L14.5374 3.60226L17.8689 -0.60232L18.3024 -0.951088L19.0379 -1.28532L19.2814 -1.32892L19.5006 -1.28048L21.0153 -0.60232L22.1502 0.041939L22.9197 0.666803L23.3045 1.26262L23.6601 2.35252L23.811 2.6044L24.0546 2.76909L24.3468 2.80785L24.6293 2.72066L24.7413 2.63831L27.9462 -0.0307327L28.8132 -0.447309L30.0113 -0.612003L33.1723 -0.641065L35.6612 -0.539346L36.2019 -0.432777L36.9909 0.0322415L37.6582 0.846043L39.5236 3.38429L40.5465 4.42574L41.2235 4.90046L41.9638 5.29282L43.7951 6.0727L45.6508 6.86712L46.9464 7.54527L47.9936 8.28156L48.8606 9.11957L49.5814 10.0981L51.1059 12.7671L51.2861 12.9027L51.5053 12.864L51.5297 12.8446L52.2603 12.181L53.4779 10.907L55.2703 8.78533L55.9522 7.9667L56.712 7.20619L57.8907 6.23739L58.0806 6.17443L58.2414 6.29068L58.9768 7.78747L62.1281 15.5572L65.5327 24.4847L65.9369 25.1096L66.5117 25.4584L67.2909 25.594L68.8252 25.7151L70.1597 25.967L70.8075 26.0542L71.2605 25.9428L71.6599 25.5552L72.03 24.7705L72.0836 24.6397L76.9396 13.5954L77.1539 13.2224L77.339 13.111L77.5046 13.2563L77.6459 13.6584L78.8879 19.1079L80.3734 26.214L80.6413 26.9842L81.0845 27.5558L81.8297 27.9675L82.8136 28.108L83.4516 28.0596L83.9387 27.8755L84.2748 27.5655L84.5621 27.0859L85.1515 25.6763L85.848 23.6564L86.6808 21.2877L88.444 16.6471L89.8906 12.5152L90.0026 12.3796L90.173 12.3457L90.2218 12.3554L90.4215 12.52L90.5676 12.864L95.5064 30.0117L95.823 30.748L96.2272 31.1355L97.065 31.4455L97.7712 31.5036L97.9904 31.431L98.1608 31.2469L108.823 12.8833L109.105 12.6024L109.256 12.9705L111.526 33.2281L111.618 33.4703L111.828 33.6205L112.437 33.8724L113.981 34.473L115.145 34.754L116.104 34.7637L116.888 34.5069L117.127 34.3519L118.846 32.3029L125.66 23.4771L132.416 14.4334L132.601 14.3365L132.796 14.414L132.825 14.4576L132.947 14.8064L132.971 15.223L131.52 38.198L131.632 40.6297L131.7 40.8526L131.846 41.0124L132.099 41.2013L133.039 41.831L133.755 42.0151L134.164 41.9473L134.608 41.739L136.78 40.4844L138.918 39.2395L156.15 28.6554L157.392 28.0111L157.689 28.0257L157.84 28.2727L157.826 28.389L157.012 30.4961L155.615 33.5866L154.597 35.8196L148.859 48.6029L148.012 50.4533L147.734 51.1121L147.632 51.7515L147.7 52.3425L147.938 52.8608L148.533 53.3936L149.443 53.6794L150.359 53.7182L151.406 53.6165L172.696 50.3613L173.305 50.2886L173.689 50.2983L173.865 50.4001L173.826 50.5987L173.582 50.8893L171.853 52.7736L170.153 54.6725L165.867 59.0853L162.175 63.2318L161.737 63.8567L161.464 64.4912L161.459 64.714L161.557 64.9078L162.083 65.6538L162.701 66.5257L163.31 67.0149L163.758 67.1748L164.279 67.2378L165.541 67.0682L182.252 62.6699L182.632 62.6069L182.807 62.665L182.783 62.8491L182.559 63.1591L171.634 75.5549L171.468 75.9908L171.629 76.4268L183.455 89.9561L183.601 90.3242L183.489 90.7021L166.038 114.888L165.658 115.203L165.171 115.295L163.783 115.106L162.521 114.927L97.4595 109.269L92.8909 108.998L89.2623 109.041L89.0187 109.09L88.8093 109.211L86.4665 110.829L84.4696 111.953L82.3752 112.921L78.8392 114.442L78.6395 114.568L78.4982 114.752L73.3938 123.399L73.3451 123.476L72.7265 124.571L72.3661 125.429L72.2005 126.242L72.2444 126.979L72.3125 127.255L73.5448 131.028L74.6553 134.061L74.665 134.07H74.6699H74.8063L74.8842 134.041L74.8745 133.964L74.5774 133.179L74.4751 132.448L74.5287 131.154L74.7138 129.841L75.0352 128.509L75.4882 127.158L76.8519 123.84L78.2985 120.774L78.581 120.342L78.9073 120.095L79.3603 120.013L79.9302 120.115L81.6446 120.715L82.9986 121.432L83.1983 121.621L83.3152 121.873L83.3396 122.144L83.2617 122.411L80.3539 128.519L79.711 130.321L79.37 132.36L79.3944 134.497L79.5844 135.296L79.9838 135.877L80.4757 136.182L80.7679 136.289L81.9222 136.497L83.174 136.41L85.0979 135.935L86.8416 135.267L88.405 134.4L89.7883 133.334L90.363 132.782L91.4443 131.425L92.17 129.943L92.4281 129.013L92.7447 127.608L92.8324 127.468L92.959 127.575L94.693 130.52L95.8327 132.942L96.1883 133.988L96.461 135.117L96.7679 137.626L96.7435 140.159L96.6022 141.293L96.3685 142.339L95.7548 144.189L94.9755 145.89L94.0306 147.445L92.9152 148.849L91.5953 150.147L90.0951 151.286L88.4196 152.269L86.5639 153.097L85.2343 153.529L83.8413 153.829L82.3362 154.013L80.7923 154.071L79.1655 154.013L77.4364 153.824L75.7317 153.524L73.9637 153.097L71.7573 152.381L69.7116 151.489L67.8316 150.414L66.1074 149.159L65.3184 148.442L64.5926 147.638L63.9156 146.723L63.3165 145.739L62.8003 144.693L62.3716 143.598L62.0356 142.47L61.7969 141.312L61.5826 139.525L61.5241 138.115L61.5631 136.691L61.9381 133.828L62.0891 133.576L62.3765 133.649L64.6219 135.388L68.7229 138.73L71.6355 140.929L72.2054 141.264L72.5074 141.283L72.5463 140.983L72.3174 140.363L69.5363 133.92L66.8721 126.809L66.8282 126.456L66.9549 126.112L67.7877 124.697L68.5281 123.162L69.887 120.105L75.985 107.942L76.4428 107.298L77.0614 106.833L79.7207 105.355L81.4352 104.483L83.0327 103.946L83.9971 103.757L85.0394 103.66L89.1551 103.51L126.172 102.497L135.913 102.197L147.627 101.838L157.475 101.664L158.099 101.49L158.556 101.034L164.352 91.0508L164.537 90.6052L164.552 90.1837L164.401 89.8011L164.089 89.4426L153.788 80.457L153.374 80.0937L151.845 78.8876L151.187 78.5872L150.583 78.471L149.745 78.563L145.172 79.6432L140.087 80.4958L139.873 80.583L139.785 80.6701L139.751 80.8155L139.824 80.9414L146.239 85.9404L147.524 87.0061L148.801 88.1977L151.319 90.9588L154.855 95.1634L154.889 95.2457L154.806 95.2796L146.058 95.9142L138.47 96.6844L138.246 96.6359L138.226 96.5681L138.319 96.2484L138.572 95.9481L144.5 90.92L144.583 90.7844L144.446 90.6827L141.631 89.709L139.103 88.7063L119.942 80.4425L119.694 80.2875L119.567 80.0986V79.8709L119.694 79.6045L128.232 66.7098L128.256 66.6032L128.188 66.516L128.013 66.3998L127.862 66.4385L127.857 66.4482L127.579 66.9181L126.703 67.6931L126.216 68.0612L122.782 70.8514L120.921 72.4015L119.606 73.8692L115.617 78.5727L114.731 79.3768L113.752 79.8273L112.675 79.9242L109.582 79.8854L109.261 80.0695L109.212 80.4376L109.266 80.5394L119.051 94.2333L119.212 94.5336L119.202 94.7565L119.036 94.9018L118.7 94.9696L107.235 95.7156L95.4918 96.3259L94.4982 96.3405L93.9332 96.2678L93.6701 96.1418L93.5094 95.9578L93.451 95.7253L93.4948 95.4346L95.37 89.2149L95.5453 88.8807L95.8278 88.6288L96.1834 88.5029L96.5633 88.5126L109.631 91.3318L109.972 91.3657L110.152 91.2882L110.162 91.075L109.992 90.7311L109.665 90.4695L107.24 88.7838L104.025 86.7445L98.2729 83.2084L90.2364 78.1755L90.2218 78.1658L90.0903 77.9575L90.1536 77.7153L90.7575 77.0275L91.4394 76.4365L91.868 76.141L96.0226 73.6512L100.168 71.4423L100.611 71.1711L100.737 70.9531L100.547 70.7884L100.041 70.677L98.8914 70.4106L80.1299 65.3147L79.4967 65.2081L79.1655 65.3341L79.1363 65.6828L79.409 66.2593L86.9584 78.4516L87.0413 78.5872L87.3968 79.2024L87.5381 79.6674L87.5332 80.0646L87.4163 80.5345L86.2668 83.6928L85.02 86.759L84.7618 87.3694L81.1624 96.1322L80.9286 96.5536L80.6023 96.9024L80.1932 97.1639L79.7353 97.3141L59.4006 101.117L57.4134 101.252L57.3452 101.233L57.3208 101.16L57.3549 101.029L57.389 100.981L57.428 100.962L68.8836 96.6408L69.1272 96.4712L68.8544 96.3598L66.8088 95.982L65.9369 95.8851L64.7387 95.8706H59.347L59.2593 95.8464L58.9573 95.6235L58.8161 95.3087L58.9963 95.018L59.1375 94.9745L77.4949 92.9351L77.7627 92.8043L77.8796 92.5331L78.0452 87.6939L77.9284 83.3925L77.8699 82.9468L77.451 81.8521L76.623 80.7719L74.0513 78.1706L70.5981 74.6442L50.3266 53.0158L47.1169 49.4845L44.0923 45.9194L43.7951 45.6239L43.576 45.5657L43.4445 45.745L43.3957 46.1616L43.3519 52.8753L43.4493 56.6972L43.6052 57.6757L43.649 57.9712L43.5906 58.1214L43.4298 58.1165L43.1717 57.9615L36.8643 53.2289L32.1252 49.5427L19.8561 40.0291L9.69116 32.1915L9.19435 31.7313L8.78522 31.213L8.64399 30.9805L7.89878 29.4982L3.89027 18.0083L3.44217 16.3565L3.51036 16.0804L3.76363 15.9496H3.81234L20.1873 17.1897L26.7139 17.7564L28.9642 17.8048L30.0406 17.7758ZM29.534 8.59643L29.6314 8.88222L32.3687 10.8343L32.7389 10.9458L33.0944 10.8053L34.2634 9.89461L35.934 8.54314L37.0299 7.32729L37.0591 7.27401L37.0542 7.00758L36.8448 6.84289L34.9453 6.28099L29.534 8.59643ZM57.8566 36.3912L57.9978 36.74L58.2267 37.0355L58.5336 37.2535L58.8843 37.3843L61.0371 37.6991L63.3506 37.7524L69.1953 37.6361L74.9768 37.6749L80.6949 37.8783L86.3545 38.2416L89.6811 38.3288L95.8619 38.2901L97.5325 38.4451L98.2631 38.542L99.208 38.5517L99.812 38.4645L99.2324 38.2707L89.2087 36.4155L81.6105 35.0398L71.9472 33.2281L62.5421 31.6151L62.2937 31.5763L60.852 31.3147L59.7805 31.0144L58.9476 30.6317L58.3729 30.1764L56.8581 28.573L55.8596 27.7205L55.6892 27.672L55.6794 27.8464L57.8566 36.3912Z" fill="white" fill-opacity="0.9"/>
<path d="M47.9848 90.3728L48.126 87.1031L48.2381 83.7607L48.2722 64.5979L48.3209 64.0311L48.355 63.9585L48.6813 63.8665L49.1099 64.0893L53.8977 68.444L59.0898 72.9102L61.2182 75.0706L61.3595 75.3903L61.2669 75.7245L60.2636 77.3909L53.3814 91.0219L51.9202 94.4175L51.6231 94.9842L51.2286 95.4493L50.7172 95.8271L50.0986 96.0935L31.8923 101.364L29.6324 101.945L28.9407 102.032L28.668 101.96L28.819 101.722L29.3937 101.325L38.9157 95.5171L39.0229 95.4008L39.0277 95.2652L38.9596 95.1538L38.7745 95.1005L38.3215 95.1538L37.7176 95.0375L37.1331 94.9213L34.8683 94.9067L33.3194 94.8389L31.3517 94.4659L30.9912 94.3836L30.7818 94.2237L30.7867 93.9767L30.8451 93.9089L35.8034 89.932L36.1687 89.743L36.5827 89.7092L47.298 90.9928L47.6 90.9831L47.8143 90.8814L47.9458 90.678L47.9848 90.3728Z" fill="white" fill-opacity="0.9"/>
<path d="M121.121 143.037L121.048 143.066L120.892 143.211L120.824 143.444L120.975 143.986L127.234 153.563L127.263 153.636L127.117 153.892L126.713 154.009L121.428 153.999L120.464 153.931L119.816 153.699L119.46 153.413L119.129 152.991L116.421 148.598L114.146 144.684L113.913 144.437L113.586 144.335L109.417 144.233H109.383L108.574 144.03L108.272 143.923L108.199 143.904L107.829 144.011L107.668 144.359V153.456L107.517 153.825L107.152 153.975H101.478L101.04 153.795L100.859 153.355V124.131L100.898 123.85L101.02 123.646L101.22 123.516L101.502 123.462L108.121 123.351L115.018 123.559L118.233 123.874L119.485 124.116L120.498 124.421L122.383 125.322L124.004 126.509L125.164 127.72L125.67 128.427L126.099 129.236L126.459 130.142L126.747 131.15L127.029 132.739L127.092 134.25L126.951 135.689L126.591 137.055L126.109 138.174L125.471 139.234L124.677 140.242L123.722 141.191L123.274 141.613L122.149 142.577L121.618 142.872L121.121 143.037ZM107.654 130.631L107.664 137.5L107.737 137.859L107.941 138.164L108.248 138.363L108.608 138.435L116.065 138.421L116.981 138.338L117.863 138.091L118.676 137.694L119.387 137.161L119.972 136.512L120.405 135.766L120.673 134.962L120.761 134.129V133.964L120.668 133.126L120.4 132.322L119.962 131.581L119.377 130.932L118.661 130.404L117.848 130.007L116.966 129.764L116.046 129.682L108.589 129.697L108.233 129.769L107.927 129.973L107.722 130.273L107.654 130.631Z" fill="white" fill-opacity="0.9"/>
<path d="M151.757 141.874L151.927 141.995L151.986 141.791V123.815L152.108 123.525L152.4 123.404H157.797L158.167 123.554L158.323 123.922V153.373L158.274 153.621L158.133 153.824L157.928 153.964L157.68 154.013H153.686L153.447 153.964L153.247 153.805L138.514 135.969L138.231 135.693L138.032 135.635L137.91 135.804L137.871 136.197V153.596L137.764 153.868L137.506 153.979H131.968L131.68 153.858L131.559 153.572V123.82L131.637 123.607L131.87 123.597L131.997 123.651L132.167 123.704L132.353 123.685L133.765 123.404L135.163 123.379L136.493 123.602L136.853 123.825L151.757 141.874Z" fill="white" fill-opacity="0.9"/>
<path d="M175.189 136.536L175.199 136.546L175.306 136.531L182.485 124.16L182.651 123.995L182.875 123.927L185.812 123.859L188.715 123.903L189.402 123.729L189.548 123.671L189.723 123.646L190.025 123.859L190.006 124.232L182.968 135.659L179.432 141.7L179.013 142.737L178.837 143.938L178.73 148.52L178.764 153.471L178.628 153.82L178.282 153.965H178.277H172.34L172.092 153.863L171.989 153.616V143.337L171.926 142.896L171.746 142.485L160.339 124.01L160.305 123.937L160.349 123.656L160.597 123.511L163.812 123.385L166.831 123.453L167.206 123.525L167.752 123.835L168.21 124.392L171.156 129.401L174.059 134.807L175.189 136.536Z" fill="white" fill-opacity="0.9"/>
<path d="M16.5957 153.975H10.7217L10.3857 153.839L10.2493 153.505V130.22L10.1129 129.886L9.77683 129.75H1.47245L1.13638 129.614L1 129.28V123.932L1.13638 123.598L1.47245 123.463H26.2882L26.6243 123.598L26.7606 123.932V129.261L26.6243 129.595L26.2882 129.731H17.5406L17.2045 129.866L17.0681 130.201V153.505L16.9951 153.752L16.8246 153.917L16.5957 153.975Z" fill="white" fill-opacity="0.9"/>
<path d="M37.1555 141.86L37.0678 141.894L37.0337 141.981V153.612L36.9266 153.863L36.6733 153.965H31.2426L30.926 153.912L30.6386 153.767L30.3415 153.413L30.2344 152.962V124.296L30.288 123.932L30.4438 123.671L30.7068 123.516L31.0721 123.463H36.7951L36.9656 123.53L37.0337 123.7V135.679L37.1409 135.936L37.399 136.042H49.8239L50.087 135.931L50.199 135.669V124.296L50.2623 123.981L50.4425 123.71L50.7153 123.53L51.0319 123.467H56.6525L56.9107 123.555L56.9984 123.811V153.626L56.8961 153.873L56.6477 153.975H50.6763L50.3159 153.854L50.1941 153.49V142.228L50.087 141.967L49.8239 141.86H37.1555Z" fill="white" fill-opacity="0.9"/>
<path d="M153.233 172.416L152.59 171.791L151.874 171.336L151.056 171.006L148.937 170.459L146.122 169.883L145.104 169.456L143.623 168.468L142.99 167.892L142.542 167.223L142.221 166.162L142.113 164.874L142.152 163.697L142.342 162.626L142.674 161.667L143.156 160.858L143.804 160.166L144.617 159.565L145.635 159.047L146.779 158.654L148.06 158.393L149.346 158.286L150.54 158.344L151.709 158.553L152.78 158.882L153.754 159.342L154.626 159.923L155.308 160.534L155.917 161.241L156.448 162.04L156.901 162.936L156.925 163.227L156.706 163.406L153.9 164.462L153.55 164.482L153.291 164.235L152.858 163.498L152.332 162.893L150.895 162.316L149.458 162.127L148.231 162.273L147.004 162.704L146.395 163.14L146.093 163.697L146.064 164.225L146.239 164.748L146.609 165.228L147.169 165.62L148.518 166.298L149.658 166.526L151.928 167.005L153.394 167.432L154.636 167.964L155.683 168.638L156.36 169.243L156.506 169.403L157.081 170.348L157.378 171.53L157.436 172.712L157.329 173.792L157.052 174.819L156.623 175.734L155.844 176.776L154.787 177.681L153.516 178.379L152.103 178.854L150.501 179.11L148.859 179.12L147.232 178.888L145.679 178.408L144.685 177.904L143.823 177.246L143.058 176.427L142.401 175.448L141.846 174.305L141.841 174.296L141.777 173.932L141.855 173.574L142.07 173.273L142.381 173.08L143.93 172.494L144.32 172.406L144.666 172.445L144.968 172.62L145.226 172.925L145.82 173.705L146.492 174.339L147.271 174.843L148.109 175.187L149.249 175.385L150.423 175.313L151.601 174.964L152.746 174.344L153.102 174.024L153.36 173.622L153.477 173.22L153.442 172.804L153.233 172.416Z" fill="#2C8C7D" fill-opacity="0.9"/>
<path d="M76.3885 165.329L76.7002 165.644L77.1678 165.906L78.5511 166.259L80.2119 166.55L81.7316 166.918L83.1148 167.368L84.352 167.896L85.3991 168.555L86.2077 169.388L86.5924 170.008L86.8847 170.701L87.0746 171.462L87.172 172.295L87.1038 173.627L86.758 174.852L86.1589 175.952L85.3358 176.911L84.2984 177.71L83.0807 178.335L82.0725 178.689L81.0692 178.941L80.0658 179.086L79.0625 179.125L77.9715 179.047L76.8804 178.849L75.7894 178.519L74.7033 178.064L73.4954 177.333L72.5213 176.407L71.7712 175.25L71.2744 173.879L71.2598 173.617L71.3523 173.37L71.5276 173.176L71.7663 173.065L74.1237 172.469L74.4013 172.479L74.5913 172.673L75.3803 173.796L76.3642 174.615L77.1337 175.007L77.9958 175.255L78.9407 175.371L79.9733 175.347L80.8889 175.158L81.6682 174.775L82.316 174.179L82.7349 173.501L82.8664 172.833L82.7008 172.169L82.2381 171.51L81.5611 171.069L80.4847 170.779L76.4031 169.805L75.1563 169.413L74.1334 168.957L73.3492 168.434L72.7891 167.853L72.1852 166.855L71.7955 165.872L71.5958 164.864L71.6007 163.886L71.8053 162.912L72.1949 161.997L72.7891 161.12L73.5441 160.335L74.4403 159.657L75.4631 159.1L76.5785 158.678L77.7766 158.407L78.9992 158.286L80.173 158.305L81.2932 158.47L82.3599 158.775L83.6165 159.361L84.7903 160.165L85.1994 160.582L85.6281 161.192L86.5681 162.985L86.5778 163.387L86.2953 163.673L86.2807 163.677L83.86 164.588L83.5629 164.656L83.2999 164.622L83.071 164.481L82.881 164.239L82.4281 163.566L81.9361 163.028L81.3906 162.626L80.8061 162.355L80.0269 162.215L79.7005 162.195L77.9033 162.2L77.2701 162.355L76.7928 162.607L76.2911 163.111L76.0671 163.518L75.9599 163.934L76.0281 164.617L76.3885 165.329Z" fill="#2C8C7D" fill-opacity="0.9"/>
<path d="M112.549 171.433H108.131L107.468 171.341L106.996 171.055L106.714 170.59L106.621 169.936V169.011L106.714 168.366L106.991 167.906L107.454 167.63L108.102 167.538H116.922L117.234 167.659L117.38 167.96L117.419 170.328L117.21 172.658L117.044 173.332L116.737 174.063L115.69 175.705L114.58 176.848L113.118 177.807L111.764 178.432L110.41 178.868L109.071 179.11L107.732 179.164L106.728 179.077L105.73 178.883L103.816 178.224L102.125 177.255L100.679 175.986L99.4564 174.412L98.828 173.259L98.2728 171.665L98.0098 169.936L98.0341 168.085L98.3458 166.099L98.6332 165.043L99.018 164.06L99.4953 163.149L100.065 162.307L100.757 161.512L101.551 160.795L102.442 160.156L103.436 159.589L105.165 158.887L106.933 158.504L108.068 158.427L109.217 158.475L110.381 158.649L111.56 158.945L112.471 159.289L113.396 159.778L114.253 160.364L115.057 161.047L115.71 161.75L116.26 162.515L116.654 163.275L116.917 164.07L116.874 164.39L116.63 164.603L114.209 165.518L113.932 165.538L113.713 165.349L113.118 164.574L112.339 163.886L111.384 163.285L110.25 162.767L109.212 162.466L108.18 162.37L107.235 162.462L106.295 162.723L105.457 163.086L104.707 163.518L104.044 164.031L103.475 164.612L102.788 165.605L102.296 166.758L102.052 167.775L101.974 168.793L102.057 169.771L102.301 170.75L102.739 171.762L103.358 172.697L104.132 173.53L105.028 174.228L106.002 174.76L107.045 175.114L108.072 175.259L109.115 175.201L110.133 174.935L111.029 174.48L111.613 174.029L112.13 173.472L112.583 172.818L112.967 172.062L113.04 171.786L112.997 171.588L112.831 171.471L112.549 171.433Z" fill="#2C8C7D" fill-opacity="0.9"/>
<path d="M58.4218 163.439V166.307L58.4656 166.617L58.5971 166.835L58.602 166.84L58.8212 166.971L59.1329 167.014H67.0866L67.3788 167.058L67.5882 167.179L67.71 167.387L67.7538 167.678V170.255L67.71 170.555L67.5834 170.759L67.1694 170.889H59.0208L58.602 171.025L58.4802 171.219L58.4412 171.5V174.702L58.6117 175.109L59.0208 175.278H69.2004L69.4098 175.351L69.4585 175.564L69.1225 178.325L68.991 178.577L68.7231 178.679H54.4814L54.2038 178.572L54.0918 178.315V159.424L54.2038 159.051L54.4473 158.833L54.7639 158.755H68.4455L68.7523 158.799L68.9764 158.93L69.1079 159.153L69.1517 159.458V161.72L69.0786 162.093L68.8643 162.413L68.5477 162.626L68.1727 162.698H59.167L58.8406 162.747L58.6068 162.882L58.4705 163.115L58.4218 163.439Z" fill="#2C8C7D" fill-opacity="0.9"/>
<path d="M32.6854 159.249L32.851 158.881L33.187 158.755L40.9897 158.78L42.9526 158.978L44.8375 159.54L46.5715 160.446L48.0911 161.667L49.338 163.149L50.2634 164.839L50.8284 166.67L51.0135 168.579V169.015L50.8138 170.919L50.2342 172.745L49.299 174.43L48.0424 175.903L46.513 177.114L44.7742 178.01L42.8844 178.558L40.9216 178.737L33.1189 178.713L32.7487 178.548L32.6172 178.209L32.6854 159.249ZM36.5526 163.217V174.3L36.7134 174.682L37.0981 174.842H40.4588L41.6911 174.726L42.8747 174.382L43.9657 173.825L44.9203 173.074L45.7094 172.159L46.289 171.117L46.6494 169.984L46.7712 168.807V168.71L46.6494 167.533L46.289 166.399L45.7094 165.358L44.9203 164.442L43.9657 163.691L42.8747 163.134L41.6911 162.79L40.4588 162.674H37.0981L36.7134 162.834L36.5526 163.217Z" fill="#2C8C7D" fill-opacity="0.9"/>
<path d="M94.0509 158.794H90.6025C90.3711 158.794 90.1836 158.981 90.1836 159.211V178.248C90.1836 178.478 90.3711 178.664 90.6025 178.664H94.0509C94.2822 178.664 94.4697 178.478 94.4697 178.248V159.211C94.4697 158.981 94.2822 158.794 94.0509 158.794Z" fill="#2C8C7D" fill-opacity="0.9"/>
<path d="M134.18 170.458L133.908 164.961L133.99 159.191L134.093 158.915L134.375 158.823H137.96L138.213 158.906L138.301 159.162V178.083L138.179 178.427L137.867 178.621L136.859 178.747L135.88 178.684L135.281 178.553L134.931 178.383L134.517 178.059L133.494 176.925L124.917 166.23L124.751 166.113L124.697 166.307V178.064L124.658 178.335L124.542 178.529L124.079 178.684H121.424L121.01 178.514L120.84 178.102V159.264L120.937 158.998L121.186 158.862L121.877 158.78L123.499 158.833L124.41 159.085L125.014 159.564L128.604 164.215L133.713 170.643L133.942 170.885L134.098 170.933L134.176 170.793L134.18 170.458Z" fill="#2C8C7D" fill-opacity="0.9"/>
</g>
<defs>
<clipPath id="clip0_1_2417">
<rect width="190" height="180.104" fill="white"/>
</clipPath>
</defs>
</svg>
