<svg width="76" height="72" viewBox="0 0 76 72" fill="none" xmlns="http://www.w3.org/2000/svg">
<g clip-path="url(#clip0_1_2488)">
<path d="M12.0162 7.10621L12.3513 7.07135L12.0279 6.97647L1.42752 4.92187L1.41778 4.91993L1.34959 4.86183L1.34375 4.77276L1.78015 3.76966L2.31787 2.79561L2.56335 2.48384L2.85948 2.26502L3.2277 2.13528L5.37856 1.70925L5.62209 1.61437L5.81496 1.44008L7.14757 -0.240779L7.32096 -0.380205L7.61514 -0.513822L7.71255 -0.53125L7.80022 -0.511884L8.40613 -0.240779L8.86007 0.0167758L9.16789 0.266577L9.3218 0.504766L9.46402 0.940473L9.52442 1.04117L9.62183 1.10701L9.73873 1.1225L9.85172 1.08765L9.89653 1.05472L11.1785 -0.012276L11.5253 -0.17881L12.0045 -0.24465L13.2689 -0.256268L14.2645 -0.215604L14.4807 -0.173001L14.7964 0.0128991L15.0633 0.338231L15.8094 1.35294L16.2186 1.76928L16.4894 1.95906L16.7855 2.11591L17.5181 2.42768L18.2603 2.74527L18.7786 3.01637L19.1974 3.31072L19.5442 3.64573L19.8326 4.03689L20.4424 5.10389L20.5145 5.15812L20.6021 5.14263L20.6119 5.13488L20.9041 4.86958L21.3912 4.36029L22.1081 3.51211L22.3809 3.18485L22.6848 2.88082L23.1563 2.49352L23.2323 2.46835L23.2965 2.51483L23.5907 3.1132L24.8512 6.21931L26.2131 9.78823L26.3748 10.038L26.6047 10.1775L26.9164 10.2317L27.5301 10.2801L28.0639 10.3808L28.323 10.4156L28.5042 10.3711L28.6639 10.2162L28.812 9.90248L28.8335 9.8502L30.7758 5.43503L30.8616 5.28592L30.9356 5.24138L31.0018 5.29948L31.0583 5.46021L31.5551 7.63874L32.1494 10.4796L32.2565 10.7875L32.4338 11.016L32.7319 11.1806L33.1254 11.2367L33.3806 11.2173L33.5755 11.1438L33.7099 11.0198L33.8248 10.8281L34.0606 10.2646L34.3392 9.45709L34.6723 8.51015L35.3776 6.65501L35.9562 5.0032L36.001 4.94898L36.0692 4.93542L36.0887 4.93929L36.1686 5.00513L36.227 5.14263L38.2025 11.9977L38.3292 12.2921L38.4909 12.447L38.826 12.5709L39.1085 12.5942L39.1962 12.5651L39.2643 12.4915L43.529 5.15037L43.642 5.03806L43.7024 5.18523L44.6103 13.2836L44.6473 13.3804L44.7311 13.4404L44.9746 13.5411L45.5922 13.7812L46.0579 13.8936L46.4417 13.8974L46.7553 13.7948L46.8508 13.7328L47.5385 12.9137L50.2641 9.38544L52.9663 5.77004L53.0404 5.73131L53.1183 5.76229L53.13 5.77972L53.1787 5.91915L53.1884 6.08569L52.6078 15.2704L52.6527 16.2425L52.6799 16.3316L52.7384 16.3955L52.8397 16.471L53.2157 16.7227L53.5021 16.7963L53.6657 16.7692L53.843 16.686L54.712 16.1844L55.5672 15.6867L62.4601 11.4555L62.9569 11.198L63.0758 11.2038L63.1362 11.3026L63.1303 11.349L62.805 12.1914L62.2458 13.4269L61.8386 14.3196L59.5436 19.4299L59.2046 20.1697L59.0936 20.433L59.0526 20.6887L59.0799 20.9249L59.1754 21.1321L59.4131 21.3451L59.7774 21.4594L60.1436 21.4749L60.5625 21.4342L69.0783 20.1329L69.3218 20.1038L69.4757 20.1077L69.5459 20.1484L69.5303 20.2278L69.4329 20.344L68.7412 21.0972L68.0613 21.8563L66.3469 23.6205L64.8701 25.2781L64.6947 25.5279L64.5856 25.7816L64.5837 25.8707L64.6227 25.9481L64.8331 26.2463L65.0805 26.5949L65.324 26.7905L65.5033 26.8544L65.7117 26.8796L66.2163 26.8118L72.9007 25.0535L73.0527 25.0283L73.1228 25.0515L73.1131 25.1251L73.0235 25.249L68.6536 30.2045L68.5873 30.3788L68.6516 30.5531L73.382 35.9616L73.4404 36.1088L73.3956 36.2598L66.415 45.9287L66.2631 46.0545L66.0683 46.0913L65.513 46.0158L65.0084 45.9442L38.9838 43.6824L37.1563 43.5739L35.7049 43.5913L35.6075 43.6107L35.5237 43.6591L34.5866 44.3059L33.7878 44.7552L32.9501 45.1425L31.5357 45.7505L31.4558 45.8009L31.3993 45.8744L29.3575 49.3311L29.338 49.362L29.0906 49.7997L28.9464 50.1424L28.8802 50.4678L28.8977 50.7621L28.925 50.8725L29.4179 52.381L29.8621 53.5932L29.866 53.5971H29.868H29.9225L29.9537 53.5855L29.9498 53.5545L29.8309 53.2408L29.79 52.9484L29.8115 52.4314L29.8855 51.9066L30.0141 51.374L30.1953 50.8338L30.7408 49.5073L31.3194 48.2815L31.4324 48.1091L31.5629 48.0104L31.7441 47.9775L31.9721 48.0181L32.6578 48.2582L33.1995 48.5449L33.2793 48.6204L33.3261 48.7211L33.3358 48.8295L33.3047 48.936L32.1416 51.3779L31.8844 52.0983L31.748 52.9135L31.7578 53.7675L31.8337 54.087L31.9935 54.3194L32.1903 54.4414L32.3072 54.484L32.7689 54.5673L33.2696 54.5324L34.0392 54.3427L34.7366 54.0754L35.362 53.7288L35.9153 53.3028L36.1452 53.082L36.5777 52.5398L36.868 51.9472L36.9713 51.5754L37.0979 51.0139L37.133 50.9577L37.1836 51.0003L37.8772 52.1777L38.3331 53.1459L38.4753 53.5642L38.5844 54.0154L38.7071 55.0185L38.6974 56.0313L38.6409 56.4844L38.5474 56.9027L38.3019 57.6424L37.9902 58.3221L37.6122 58.9437L37.1661 59.5053L36.6381 60.0243L36.038 60.4793L35.3679 60.8724L34.6256 61.2036L34.0937 61.3759L33.5365 61.496L32.9345 61.5696L32.3169 61.5928L31.6662 61.5696L30.9746 61.4941L30.2927 61.374L29.5855 61.2036L28.7029 60.917L27.8847 60.5607L27.1326 60.1308L26.443 59.6292L26.1273 59.3426L25.8371 59.0212L25.5662 58.6552L25.3266 58.2621L25.1201 57.8438L24.9487 57.4062L24.8142 56.955L24.7188 56.4921L24.633 55.7776L24.6097 55.2141L24.6252 54.6447L24.7753 53.5003L24.8357 53.3996L24.9506 53.4286L25.8487 54.1238L27.4892 55.46L28.6542 56.3392L28.8822 56.4728L29.0029 56.4805L29.0185 56.3605L28.927 56.1126L27.8145 53.5371L26.7488 50.6943L26.7313 50.553L26.782 50.4155L27.1151 49.85L27.4112 49.2362L27.9548 48.0143L30.394 43.1518L30.5771 42.8942L30.8246 42.7083L31.8883 42.1177L32.5741 41.7691L33.2131 41.5542L33.5989 41.4787L34.0158 41.4399L35.662 41.3799L50.4687 40.9752L54.3652 40.8551L59.0507 40.7118L62.99 40.6421L63.2394 40.5724L63.4225 40.3903L65.741 36.3993L65.815 36.2211L65.8208 36.0526L65.7604 35.8997L65.6357 35.7564L61.5152 32.1642L61.3496 32.019L60.7379 31.5368L60.4749 31.4167L60.2333 31.3702L59.8982 31.407L58.0688 31.8389L56.0348 32.1797L55.9491 32.2145L55.914 32.2494L55.9004 32.3075L55.9296 32.3578L58.4954 34.3563L59.0098 34.7823L59.5202 35.2587L60.5275 36.3625L61.9419 38.0433L61.9555 38.0763L61.9224 38.0898L58.4234 38.3435L55.388 38.6514L55.2984 38.632L55.2906 38.6049L55.3276 38.4771L55.4289 38.357L57.7999 36.347L57.833 36.2928L57.7785 36.2521L56.6524 35.8629L55.6413 35.462L47.9769 32.1584L47.8775 32.0964L47.8269 32.0209V31.9299L47.8775 31.8234L51.2928 26.6685L51.3025 26.6259L51.2753 26.591L51.2051 26.5445L51.1447 26.56L51.1428 26.5639L51.0317 26.7518L50.681 27.0616L50.4862 27.2088L49.1127 28.3242L48.3685 28.9438L47.8425 29.5306L46.2468 31.4109L45.8923 31.7324L45.5007 31.9125L45.0701 31.9512L43.833 31.9357L43.7044 32.0093L43.6849 32.1565L43.7063 32.1971L47.6203 37.6715L47.6846 37.7916L47.6807 37.8807L47.6145 37.9388L47.4801 37.9659L42.8939 38.2641L38.1967 38.5081L37.7993 38.5139L37.5733 38.4849L37.4681 38.4345L37.4038 38.3609L37.3804 38.268L37.3979 38.1518L38.148 35.6653L38.2181 35.5317L38.3311 35.431L38.4734 35.3807L38.6253 35.3846L43.8524 36.5116L43.9888 36.5251L44.0609 36.4942L44.0648 36.4089L43.9966 36.2715L43.8661 36.1669L42.8959 35.493L41.61 34.6777L39.3091 33.2641L36.0945 31.2521L36.0887 31.2482L36.0361 31.165L36.0614 31.0682L36.303 30.7932L36.5758 30.5569L36.7472 30.4388L38.4091 29.4435L40.067 28.5604L40.2443 28.452L40.295 28.3648L40.219 28.299L40.0164 28.2545L39.5566 28.148L32.0519 26.1108L31.7987 26.0682L31.6662 26.1185L31.6545 26.2579L31.7636 26.4884L34.7834 31.3625L34.8165 31.4167L34.9587 31.6627L35.0152 31.8486L35.0133 32.0073L34.9665 32.1952L34.5067 33.4578L34.008 34.6836L33.9047 34.9276L32.465 38.4306L32.3715 38.5991L32.2409 38.7385L32.0773 38.8431L31.8941 38.9031L23.7602 40.4233L22.9653 40.4775L22.9381 40.4697L22.9283 40.4407L22.942 40.3884L22.9556 40.369L22.9712 40.3613L27.5535 38.634L27.6509 38.5662L27.5418 38.5217L26.7235 38.3706L26.3748 38.3319L25.8955 38.3261H23.7388L23.7037 38.3164L23.5829 38.2273L23.5264 38.1014L23.5985 37.9852L23.655 37.9678L30.9979 37.1526L31.1051 37.1003L31.1519 36.9918L31.2181 35.0573L31.1713 33.3377L31.148 33.1596L30.9804 32.7219L30.6492 32.2901L29.6205 31.2502L28.2392 29.8404L20.1306 21.1941L18.8468 19.7824L17.6369 18.3571L17.5181 18.239L17.4304 18.2158L17.3778 18.2874L17.3583 18.454L17.3408 21.1379L17.3797 22.6658L17.4421 23.057L17.4596 23.1751L17.4362 23.2351L17.3719 23.2332L17.2687 23.1712L14.7457 21.2793L12.8501 19.8056L7.94245 16.0024L3.87647 12.8692L3.67774 12.6852L3.51409 12.478L3.45759 12.385L3.15951 11.7925L1.55611 7.19916L1.37687 6.53882L1.40415 6.42844L1.50545 6.37616H1.52494L8.07492 6.8719L10.6856 7.09846L11.5857 7.11783L12.0162 7.10621ZM11.8136 3.43659L11.8526 3.55084L12.9475 4.33124L13.0955 4.37578L13.2378 4.31962L13.7053 3.95557L14.3736 3.41529L14.8119 2.92923L14.8236 2.90793L14.8217 2.80142L14.7379 2.73558L13.9781 2.51095L11.8136 3.43659ZM23.1426 14.5481L23.1991 14.6875L23.2907 14.8056L23.4134 14.8928L23.5537 14.9451L24.4148 15.0709L25.3402 15.0922L27.6781 15.0458L29.9907 15.0613L32.2779 15.1426L34.5418 15.2878L35.8724 15.3227L38.3448 15.3072L39.013 15.3692L39.3053 15.4079L39.6832 15.4118L39.9248 15.3769L39.693 15.2994L35.6835 14.5578L32.6442 14.0078L28.7789 13.2836L25.0168 12.6387L24.9175 12.6232L24.3408 12.5187L23.9122 12.3986L23.579 12.2456L23.3491 12.0636L22.7432 11.4226L22.3439 11.0818L22.2757 11.0624L22.2718 11.1321L23.1426 14.5481Z" fill="white" fill-opacity="0.9"/>
<path d="M19.1935 36.1286L19.25 34.8215L19.2948 33.4853L19.3085 25.8246L19.328 25.5981L19.3416 25.569L19.4721 25.5322L19.6436 25.6213L21.5587 27.3622L23.6355 29.1476L24.4869 30.0113L24.5434 30.1391L24.5064 30.2727L24.105 30.9389L21.3522 36.3881L20.7677 37.7456L20.6489 37.9721L20.4911 38.158L20.2865 38.3091L20.0391 38.4156L12.7565 40.5225L11.8526 40.7549L11.5759 40.7897L11.4668 40.7607L11.5272 40.6658L11.7571 40.507L15.5659 38.1852L15.6088 38.1387L15.6107 38.0845L15.5834 38.0399L15.5094 38.0186L15.3282 38.0399L15.0866 37.9935L14.8528 37.947L13.9469 37.9412L13.3274 37.914L12.5403 37.7649L12.3961 37.732L12.3123 37.6681L12.3143 37.5694L12.3377 37.5422L14.321 35.9524L14.4671 35.8769L14.6327 35.8633L18.9188 36.3765L19.0396 36.3726L19.1253 36.332L19.1779 36.2506L19.1935 36.1286Z" fill="white" fill-opacity="0.9"/>
<path d="M48.4484 57.1814L48.4192 57.193L48.3569 57.2511L48.3296 57.344L48.39 57.5609L50.8935 61.3893L50.9052 61.4184L50.8467 61.521L50.685 61.5675L48.5712 61.5636L48.1854 61.5365L47.9263 61.4435L47.7841 61.3293L47.6516 61.1608L46.5684 59.4044L45.6585 57.8398L45.565 57.741L45.4345 57.7003L43.7668 57.6597H43.7532L43.4298 57.5783L43.309 57.5357L43.2797 57.528L43.1317 57.5706L43.0674 57.71V61.3467L43.007 61.4939L42.8609 61.5539H40.5912L40.4158 61.4823L40.3438 61.3061V49.6233L40.3593 49.511L40.408 49.4297L40.4879 49.3774L40.6009 49.3561L43.2486 49.3115L46.0073 49.3948L47.2931 49.5207L47.7938 49.6175L48.1991 49.7395L48.953 50.0997L49.6018 50.5741L50.0655 51.0582L50.2681 51.341L50.4395 51.6643L50.5837 52.0265L50.6987 52.4293L50.8117 53.0644L50.837 53.6686L50.7805 54.2437L50.6363 54.7898L50.4434 55.2371L50.1882 55.6612L49.8706 56.064L49.4888 56.4436L49.3096 56.612L48.8595 56.9974L48.6472 57.1155L48.4484 57.1814ZM43.0615 52.2221L43.0654 54.968L43.0947 55.1113L43.1765 55.2333L43.2992 55.3127L43.4434 55.3417L46.4262 55.3359L46.7924 55.303L47.1451 55.2042L47.4704 55.0454L47.7549 54.8324L47.9887 54.5729L48.162 54.2747L48.2692 53.9533L48.3043 53.6202V53.5543L48.2672 53.2193L48.1601 52.8979L47.9848 52.6016L47.751 52.3421L47.4646 52.131L47.1392 51.9723L46.7866 51.8754L46.4184 51.8425L43.4356 51.8483L43.2934 51.8774L43.1706 51.9587L43.0888 52.0788L43.0615 52.2221Z" fill="white" fill-opacity="0.9"/>
<path d="M60.7024 56.7167L60.7706 56.7651L60.794 56.6838V49.4975L60.8427 49.3813L60.9596 49.3329H63.1182L63.2663 49.393L63.3286 49.5401V61.3139L63.3091 61.4127L63.2527 61.494L63.1708 61.5502L63.0715 61.5695H61.4739L61.3784 61.5502L61.2986 61.4862L55.4051 54.3562L55.2921 54.2458L55.2123 54.2225L55.1636 54.2903L55.148 54.4472V61.403L55.1051 61.5114L55.0019 61.556H52.7867L52.6718 61.5076L52.623 61.3933V49.4995L52.6542 49.4143L52.7477 49.4104L52.7984 49.4317L52.8666 49.453L52.9406 49.4452L53.5056 49.3329L54.0648 49.3232L54.5966 49.4123L54.7408 49.5014L60.7024 56.7167Z" fill="white" fill-opacity="0.9"/>
<path d="M70.0769 54.5827L70.0808 54.5866L70.1236 54.5808L72.9953 49.635L73.0616 49.5692L73.1512 49.5421L74.326 49.515L75.4871 49.5324L75.7618 49.4627L75.8203 49.4395L75.8904 49.4298L76.0112 49.515L76.0034 49.6641L73.1882 54.2322L71.7738 56.647L71.6062 57.0614L71.5361 57.5417L71.4932 59.3736L71.5069 61.3526L71.4523 61.4921L71.314 61.5502H71.3121H68.9371L68.8378 61.5095L68.7969 61.4107V57.3015L68.7715 57.1253L68.6995 56.9607L64.1367 49.575L64.123 49.546L64.1406 49.4336L64.2399 49.3755L65.5258 49.3252L66.7337 49.3523L66.8837 49.3814L67.1019 49.5053L67.285 49.728L68.4637 51.7303L69.6249 53.8914L70.0769 54.5827Z" fill="white" fill-opacity="0.9"/>
<path d="M6.63866 61.5543H4.28908L4.15465 61.5001L4.1001 61.3665V52.0578L4.04555 51.9242L3.91112 51.87H0.58937L0.454941 51.8158L0.400391 51.6822V49.5443L0.454941 49.4107L0.58937 49.3564H10.5157L10.6501 49.4107L10.7046 49.5443V51.6744L10.6501 51.808L10.5157 51.8622H7.01662L6.88219 51.9165L6.82764 52.0501V61.3665L6.79842 61.4652L6.73023 61.5311L6.63866 61.5543Z" fill="white" fill-opacity="0.9"/>
<path d="M14.8622 56.7112L14.8271 56.7247L14.8135 56.7596V61.4091L14.7706 61.5098L14.6693 61.5504H12.497L12.3704 61.5291L12.2555 61.471L12.1366 61.3297L12.0938 61.1496V49.6895L12.1152 49.5443L12.1775 49.4397L12.2827 49.3777L12.4288 49.3564H14.718L14.7862 49.3835L14.8135 49.4513V54.2402L14.8564 54.3429L14.9596 54.3855H19.9296L20.0348 54.3409L20.0796 54.2364V49.6895L20.1049 49.5636L20.177 49.4552L20.2861 49.3835L20.4127 49.3584H22.661L22.7643 49.3932L22.7993 49.4959V61.4149L22.7584 61.5136L22.6591 61.5543H20.2705L20.1264 61.5059L20.0776 61.3607V56.8583L20.0348 56.7538L19.9296 56.7112H14.8622Z" fill="white" fill-opacity="0.9"/>
<path d="M61.2932 68.926L61.036 68.6762L60.7497 68.4942L60.4223 68.3625L59.5749 68.1437L58.4488 67.9133L58.0416 67.7429L57.4493 67.3478L57.1961 67.1174L57.0168 66.8501L56.8882 66.4261L56.8454 65.911L56.861 65.4404L56.9369 65.0124L57.0694 64.629L57.2623 64.3056L57.5214 64.0287L57.8468 63.7886L58.254 63.5814L58.7118 63.4245L59.2242 63.32L59.7385 63.2773L60.2158 63.3006L60.6834 63.3839L61.112 63.5155L61.5017 63.6995L61.8504 63.9319L62.1232 64.1759L62.3667 64.4586L62.579 64.7781L62.7602 65.1364L62.77 65.2526L62.6823 65.3242L61.5601 65.7463L61.4198 65.7541L61.3166 65.6553L61.1432 65.361L60.9328 65.1189L60.3581 64.8885L59.7833 64.813L59.2924 64.8711L58.8014 65.0434L58.5579 65.2177L58.4371 65.4404L58.4254 65.6515L58.4955 65.8606L58.6436 66.0523L58.8676 66.2092L59.4073 66.4803L59.8632 66.5713L60.7711 66.763L61.3575 66.9334L61.8543 67.1464L62.2732 67.4156L62.544 67.6577L62.6024 67.7216L62.8323 68.0992L62.9512 68.5717L62.9745 69.0442L62.9317 69.476L62.8206 69.8865L62.6492 70.2525L62.3375 70.6689L61.9147 71.031L61.4062 71.3099L60.8412 71.4996L60.2002 71.6023L59.5437 71.6061L58.893 71.5132L58.2715 71.3215L57.874 71.1201L57.5292 70.8567L57.2233 70.5294L56.9603 70.1383L56.7382 69.6813L56.7363 69.6774L56.7109 69.5322L56.7421 69.3889L56.8278 69.2688L56.9525 69.1913L57.5721 68.957L57.7279 68.9222L57.8662 68.9377L57.987 69.0074L58.0903 69.1294L58.328 69.4411L58.5968 69.6948L58.9086 69.8962L59.2437 70.0337L59.6995 70.1131L60.1691 70.0841L60.6406 69.9446L61.0984 69.6968L61.2406 69.569L61.3439 69.4082L61.3906 69.2475L61.377 69.081L61.2932 68.926Z" fill="#2C8C7D" fill-opacity="0.9"/>
<path d="M30.5554 66.093L30.6801 66.2189L30.8671 66.3234L31.4204 66.4648L32.0848 66.581L32.6926 66.7281L33.2459 66.9082L33.7408 67.1193L34.1597 67.3827L34.4831 67.7158L34.637 67.9636L34.7539 68.2405L34.8298 68.5446L34.8688 68.8776L34.8415 69.4102L34.7032 69.9001L34.4636 70.3397L34.1343 70.7231L33.7193 71.0426L33.2323 71.2924L32.829 71.4338L32.4277 71.5345L32.0263 71.5926L31.625 71.6081L31.1886 71.5771L30.7522 71.4977L30.3158 71.366L29.8813 71.184L29.3981 70.8916L29.0085 70.5217L28.7085 70.0589L28.5098 69.5109L28.5039 69.4063L28.5409 69.3075L28.6111 69.2301L28.7065 69.1855L29.6495 68.9473L29.7605 68.9512L29.8365 69.0287L30.1521 69.4779L30.5457 69.8052L30.8535 69.9621L31.1983 70.0608L31.5763 70.1073L31.9893 70.0976L32.3556 70.0221L32.6673 69.8691L32.9264 69.6309L33.094 69.3598L33.1466 69.0926L33.0803 68.8273L32.8952 68.5639L32.6244 68.3877L32.1939 68.2715L30.5612 67.8823L30.0625 67.7254L29.6534 67.5434L29.3397 67.3343L29.1157 67.1019L28.8741 66.703L28.7182 66.3099L28.6383 65.9071L28.6403 65.5159L28.7221 65.1267L28.878 64.7607L29.1157 64.4102L29.4176 64.0965L29.7761 63.8254L30.1852 63.6027L30.6314 63.4342L31.1107 63.3258L31.5997 63.2773L32.0692 63.2851L32.5173 63.3509L32.9439 63.4729L33.4466 63.7072L33.9161 64.0287L34.0798 64.1952L34.2512 64.4392L34.6272 65.1557L34.6311 65.3165L34.5181 65.4307L34.5123 65.4326L33.544 65.7967L33.4252 65.8238L33.32 65.8103L33.2284 65.7541L33.1524 65.6573L32.9712 65.3881L32.7745 65.1732L32.5562 65.0124L32.3225 64.904L32.0107 64.8478L31.8802 64.8401L31.1613 64.842L30.908 64.904L30.7171 65.0047L30.5164 65.2061L30.4268 65.3687L30.384 65.5353L30.4112 65.8083L30.5554 66.093Z" fill="#2C8C7D" fill-opacity="0.9"/>
<path d="M45.0186 68.5334H43.2516L42.9866 68.4966L42.7976 68.3824L42.6846 68.1965L42.6476 67.9351V67.5652L42.6846 67.3076L42.7957 67.1237L42.9808 67.0133L43.2399 66.9765H46.7682L46.8928 67.0249L46.9513 67.145L46.9669 68.0919L46.8831 69.0234L46.8169 69.2925L46.6941 69.5849L46.2752 70.2414L45.831 70.6984L45.2466 71.0818L44.705 71.3316L44.1634 71.5059L43.6276 71.6027L43.0918 71.624L42.6905 71.5892L42.2911 71.5117L41.5254 71.2484L40.8494 70.8611L40.2708 70.3537L39.7818 69.7244L39.5304 69.2635L39.3083 68.6264L39.2031 67.9351L39.2129 67.1953L39.3376 66.4014L39.4525 65.9792L39.6064 65.5861L39.7973 65.222L40.0253 64.8851L40.3019 64.5675L40.6195 64.2809L40.976 64.0253L41.3735 63.7987L42.0651 63.518L42.7723 63.365L43.2263 63.334L43.686 63.3533L44.1517 63.4231L44.6231 63.5412L44.9875 63.6787L45.3576 63.8743L45.7005 64.1086L46.022 64.3816L46.283 64.6624L46.5032 64.9684L46.661 65.2724L46.7662 65.59L46.7487 65.7178L46.6513 65.803L45.683 66.169L45.5719 66.1767L45.4843 66.1012L45.2466 65.7914L44.9349 65.5164L44.553 65.2763L44.0991 65.0691L43.6841 64.949L43.2711 64.9103L42.8931 64.9471L42.5171 65.0516L42.182 65.1969L41.882 65.3692L41.617 65.5745L41.3891 65.8069L41.1144 66.2038L40.9176 66.6647L40.8202 67.0714L40.789 67.478L40.8221 67.8692L40.9195 68.2604L41.0949 68.6651L41.3423 69.0388L41.6521 69.3719L42.0105 69.6508L42.4002 69.8638L42.8171 70.0051L43.2282 70.0632L43.6451 70.04L44.0523 69.9335L44.4108 69.7515L44.6446 69.5714L44.8511 69.3487L45.0323 69.0872L45.1862 68.7852L45.2154 68.6748L45.1979 68.5954L45.1316 68.5489L45.0186 68.5334Z" fill="#2C8C7D" fill-opacity="0.9"/>
<path d="M23.3687 65.3384V66.4848L23.3862 66.6087L23.4388 66.6959L23.4408 66.6978L23.5285 66.7501L23.6531 66.7675H26.8346L26.9515 66.7849L27.0353 66.8334L27.084 66.9166L27.1015 67.0328V68.063L27.084 68.1831L27.0333 68.2644L26.8677 68.3167H23.6083L23.4408 68.3709L23.3921 68.4484L23.3765 68.5607V69.8407L23.4447 70.0034L23.6083 70.0711H27.6802L27.7639 70.1002L27.7834 70.1854L27.649 71.2892L27.5964 71.3899L27.4892 71.4305H21.7926L21.6815 71.3879L21.6367 71.2853V63.7331L21.6815 63.5839L21.7789 63.4968L21.9056 63.4658H27.3782L27.5009 63.4832L27.5905 63.5355L27.6431 63.6246L27.6607 63.7466V64.6509L27.6315 64.8001L27.5457 64.9279L27.4191 65.0131L27.2691 65.0421H23.6668L23.5363 65.0615L23.4427 65.1157L23.3882 65.2086L23.3687 65.3384Z" fill="#2C8C7D" fill-opacity="0.9"/>
<path d="M13.0741 63.6633L13.1404 63.5162L13.2748 63.4658L16.3959 63.4755L17.181 63.5549L17.935 63.7795L18.6286 64.1416L19.2364 64.6296L19.7352 65.2222L20.1054 65.898L20.3313 66.63L20.4054 67.393V67.5673L20.3255 68.3283L20.0937 69.0584L19.7196 69.7323L19.217 70.3209L18.6052 70.8051L17.9097 71.1633L17.1538 71.3821L16.3686 71.4538L13.2475 71.4441L13.0995 71.3783L13.0469 71.2427L13.0741 63.6633ZM14.6211 65.2493V69.68L14.6853 69.833L14.8393 69.8969H16.1835L16.6764 69.8504L17.1499 69.7129L17.5863 69.4902L17.9681 69.19L18.2837 68.824L18.5156 68.4077L18.6598 67.9546L18.7085 67.484V67.4453L18.6598 66.9747L18.5156 66.5216L18.2837 66.1052L17.9681 65.7392L17.5863 65.4391L17.1499 65.2164L16.6764 65.0789L16.1835 65.0324H14.8393L14.6853 65.0963L14.6211 65.2493Z" fill="#2C8C7D" fill-opacity="0.9"/>
<path d="M37.6192 63.4805H36.2398C36.1473 63.4805 36.0723 63.555 36.0723 63.647V71.2573C36.0723 71.3493 36.1473 71.4239 36.2398 71.4239H37.6192C37.7117 71.4239 37.7867 71.3493 37.7867 71.2573V63.647C37.7867 63.555 37.7117 63.4805 37.6192 63.4805Z" fill="#2C8C7D" fill-opacity="0.9"/>
<path d="M53.6722 68.1434L53.5631 65.9456L53.5962 63.6392L53.6371 63.5288L53.7501 63.492H55.184L55.2853 63.525L55.3204 63.6276V71.1915L55.2717 71.329L55.147 71.4064L54.7437 71.4568L54.3521 71.4316L54.1125 71.3793L53.9722 71.3115L53.8066 71.1818L53.3975 70.7287L49.9666 66.4529L49.9004 66.4064L49.8789 66.4839V71.1837L49.8634 71.2922L49.8166 71.3696L49.6315 71.4316H48.5697L48.4041 71.3638L48.3359 71.1992V63.6683L48.3749 63.5618L48.4743 63.5075L48.7509 63.4746L49.3997 63.4959L49.764 63.5966L50.0056 63.7883L51.4414 65.6473L53.4851 68.217L53.5767 68.3139L53.6391 68.3332L53.6702 68.2771L53.6722 68.1434Z" fill="#2C8C7D" fill-opacity="0.9"/>
</g>
<defs>
<clipPath id="clip0_1_2488">
<rect width="76" height="72" fill="white"/>
</clipPath>
</defs>
</svg>
