<svg width="174" height="172" viewBox="0 0 174 172" fill="none" xmlns="http://www.w3.org/2000/svg">
<g clip-path="url(#clip0_1_2405)">
<path d="M25.7332 24.1804L26.5367 24.0702L25.7612 23.7702L0.343451 17.2745L0.320099 17.2683L0.156592 17.0847L0.142578 16.8031L1.189 13.6317L2.47834 10.5522L3.06695 9.56654L3.77703 8.87472L4.65994 8.46454L9.81731 7.11764L10.4013 6.81765L10.8637 6.26663L14.0591 0.952518L14.4748 0.511715L15.1802 0.0892778L15.4138 0.0341797L15.624 0.095406L17.0769 0.952518L18.1653 1.76679L18.9034 2.55655L19.2725 3.30959L19.6135 4.6871L19.7583 5.00545L19.9919 5.2136L20.2722 5.26259L20.5431 5.1524L20.6506 5.04831L23.7245 1.67494L24.556 1.14844L25.7052 0.940281L28.737 0.903549L31.1242 1.03211L31.6427 1.1668L32.3995 1.75453L33.0395 2.78309L34.8287 5.99114L35.8097 7.30743L36.4591 7.90741L37.1691 8.40331L38.9256 9.38899L40.7055 10.393L41.9481 11.2502L42.9525 12.1807L43.784 13.2399L44.4754 14.4766L45.9376 17.85L46.1104 18.0214L46.3207 17.9724L46.344 17.9479L47.0447 17.1092L48.2126 15.499L49.9317 12.8175L50.5858 11.7828L51.3145 10.8216L52.445 9.59714L52.6272 9.51757L52.7814 9.6645L53.4868 11.5563L56.5093 21.3764L59.7747 32.6597L60.1624 33.4495L60.7136 33.8903L61.4611 34.0617L62.9326 34.2148L64.2126 34.5331L64.8339 34.6433L65.2684 34.5025L65.6514 34.0127L70.84 26.62L72.026 28.619L74.0088 34.8453L74.2658 35.8188L74.6909 36.5412L75.4056 37.0616L76.3493 37.2392L76.9612 37.1779L77.4284 36.9453L77.7507 36.5534L78.0263 35.9473L78.5916 34.1658L79.2596 31.6128L80.0585 28.619L81.7495 22.7539L84.8747 30.5058L88.5233 39.6452L88.8269 40.5758L89.2147 41.0656L90.0181 41.4574L90.6955 41.5308L90.9058 41.439L91.0692 41.2064L99.5024 31.3863L103.888 43.7104L103.977 44.0165L104.178 44.2063L104.762 44.5246L106.242 45.2838L107.359 45.6389L108.279 45.6511L109.031 45.3267L109.26 45.1307L110.909 42.541L117.445 31.3863L119.701 38.9962L123.065 49.9918L123.172 53.0652L123.237 53.3468L123.378 53.5488L123.62 53.7876L124.522 54.5835L125.209 54.8162L125.601 54.7304L126.026 54.4672L128.11 52.8815L130.161 51.3081L142.16 43.8661L143.351 43.0519L143.636 43.0702L143.781 43.3825L143.767 43.5294L139.695 63.1424L138.882 65.4811L138.616 66.3138L138.518 67.1219L138.583 67.8688L138.812 68.5239L139.382 69.1973L140.256 69.5585L141.134 69.6075L142.138 69.479L162.558 65.3648L163.142 65.273L163.511 65.2852L163.679 65.4138L163.641 65.6648L163.408 66.0321L161.749 68.4137L160.119 70.8136L156.008 76.391L152.467 81.6316L152.047 82.4214L151.785 83.2234L151.78 83.505L151.874 83.7499L152.378 84.6928L152.972 85.7948L153.556 86.4131L153.985 86.6152L154.485 86.6948L155.695 86.4805L171.723 80.9214L172.088 80.8419L172.256 80.9153L172.232 81.148L172.018 81.5398L161.539 97.2067L161.38 97.7577L161.535 98.3087L172.877 115.408L173.017 115.873L172.91 116.351L156.172 146.919L155.807 147.317L155.34 147.434L154.009 147.195L152.799 146.968L90.3965 139.818L86.0147 139.475L82.5344 139.53L82.3008 139.591L82.0999 139.744L79.8529 141.789L77.9376 143.209L75.9288 144.434L72.5373 146.356L72.3458 146.515L72.2103 146.748L67.3145 157.676L67.2678 157.774L66.6745 159.158L66.3288 160.241L66.17 161.27L66.212 162.201L66.2774 162.55L63.6147 170.974L61.0593 161.986L61.0173 161.539L61.1388 161.105L61.9376 159.317L62.6476 157.376L63.951 153.513L69.7998 138.14L70.2389 137.326L70.8322 136.738L73.3828 134.871L75.0272 133.769L76.5595 133.089L77.4844 132.85L78.4841 132.728L82.4316 132.538L117.935 131.259L127.278 130.879L138.513 130.426L147.959 130.206L148.557 129.985L148.996 129.41L154.555 116.792L154.733 116.229L154.747 115.696L154.602 115.212L154.303 114.759L144.423 103.402L144.026 102.943L142.559 101.419L141.928 101.039L141.349 100.892L140.545 101.009L136.159 102.374L131.282 103.451L131.076 103.562L130.992 103.672L130.959 103.855L131.03 104.015L137.182 110.333L138.415 111.68L139.639 113.186L142.054 116.675L145.446 121.99L145.479 122.094L145.399 122.137L137.009 122.939L129.731 123.912L129.516 123.851L129.497 123.765L129.586 123.361L129.829 122.981L135.514 116.626L135.594 116.455L135.463 116.326L132.763 115.096L130.338 113.829L111.96 103.384L111.722 103.188L111.601 102.949V102.662L111.722 102.325L119.911 86.0274L119.935 85.8927L119.869 85.7825L119.701 85.6356L119.556 85.6846L119.552 85.6968L119.285 86.2907L118.444 87.2702L117.977 87.7355L114.684 91.262L112.899 93.2211L111.638 95.0761L107.812 101.021L106.962 102.037L106.023 102.607L104.99 102.729L102.024 102.68L101.716 102.913L101.669 103.378L101.72 103.506L111.105 120.814L111.26 121.194L111.25 121.475L111.091 121.659L110.769 121.745L99.7723 122.688L88.5093 123.459L87.5563 123.477L87.0144 123.385L86.7621 123.226L86.6079 122.994L86.5519 122.7L86.5939 122.332L88.3925 114.471L88.5606 114.049L88.8316 113.731L89.1726 113.571L89.537 113.584L102.071 117.147L102.398 117.19L102.571 117.092L102.58 116.822L102.416 116.388L102.103 116.057L99.777 113.927L96.6938 111.349L91.1767 106.88L83.4687 100.519L83.4547 100.507L83.3285 100.243L83.3892 99.9372L83.9685 99.0678L84.6225 98.3209L85.0336 97.9474L89.0184 94.8006L92.9939 92.0089L93.419 91.666L93.5405 91.3905L93.3583 91.1824L92.8724 91.0415L91.77 90.7048L73.7752 84.2642L73.168 84.1295L72.8503 84.2887L72.8222 84.7295L73.0839 85.458L80.3247 100.868L80.4041 101.039L80.7452 101.817L80.8806 102.404L80.876 102.906L80.7639 103.5L79.6614 107.492L78.4655 111.367L78.2179 112.139L74.7656 123.214L74.5414 123.747L74.2284 124.187L73.836 124.518L73.3968 124.708L53.8932 129.514L51.9872 129.685L51.9218 129.661L51.8985 129.569L51.9312 129.404L51.9639 129.342L52.0012 129.318L62.9887 123.857L63.2223 123.643L62.9606 123.502L60.9986 123.024L60.1624 122.902L59.0132 122.883H53.8418L53.7577 122.853L53.4681 122.571L53.3326 122.173L53.5055 121.806L53.6409 121.751L71.2479 119.173L71.5049 119.008L71.617 118.665L71.7758 112.549L71.6637 107.112L71.6076 106.549L71.2059 105.166L70.4117 103.8L67.9452 100.513L64.6331 96.0557L45.1901 68.7198L42.1116 64.2567L39.2106 59.7507L38.9256 59.3772L38.7154 59.3038L38.5893 59.5303L38.5425 60.0568L28.3213 59.3038L15.9651 52.306L6.21557 42.4002L5.73906 41.8186L5.34666 41.1635L5.21119 40.8696L4.49645 38.9962L0.651773 24.4742L0.221986 22.3865L0.287394 22.0376L0.530309 21.8723H0.577027L16.2827 23.4396L22.5426 24.1559L24.7008 24.2171L25.7332 24.1804ZM25.2474 12.5787L25.3408 12.9399L27.9662 15.4072L28.3213 15.548L28.6623 15.3704L29.7834 14.2195L31.3858 12.5113L32.4369 10.9747L32.4649 10.9073L32.4602 10.5706L32.2594 10.3624L30.4375 9.65224L25.2474 12.5787Z" fill="#2C8C7D"/>
<path d="M42.9433 115.935L43.0788 111.802L43.1862 107.578L43.2189 83.3583L43.2656 82.642L43.2983 82.5502L43.6113 82.4338L44.0224 82.7155L48.6145 88.2194L53.5944 93.8641L55.6359 96.5946L55.7713 96.9987L55.6826 97.4211L54.7202 99.5272L48.1194 116.755L46.7179 121.047L46.4329 121.763L46.0545 122.351L45.564 122.828L44.9707 123.165L27.5086 129.826L25.341 130.561L24.6776 130.671L24.416 130.579L24.5608 130.279L25.1121 129.777L34.2449 122.437L34.3477 122.29L34.3524 122.118L34.287 121.978L34.1094 121.91L33.675 121.978L33.0957 121.831L32.5351 121.684L30.3629 121.665L28.8773 121.58L26.99 121.108L26.6443 121.004L26.4435 120.802L26.4481 120.49L26.5042 120.404L31.2598 115.378L31.6102 115.139L32.0073 115.096L42.2846 116.718L42.5742 116.706L42.7798 116.578L42.9059 116.321L42.9433 115.935Z" fill="#2C8C7D"/>
</g>
<defs>
<clipPath id="clip0_1_2405">
<rect width="172.765" height="170.978" fill="white" transform="translate(0.271484 0.196289)"/>
</clipPath>
</defs>
</svg>
