<svg width="175" height="197" viewBox="0 0 175 197" fill="none" xmlns="http://www.w3.org/2000/svg">
<g clip-path="url(#clip0_1_2408)">
<path d="M26.4808 24.707L27.2846 24.5976L26.5088 24.2996L1.0818 17.8464L1.05844 17.8404L0.894878 17.6579L0.880859 17.3781L1.92766 14.2276L3.21747 11.1683L3.80629 10.1891L4.51663 9.50179L5.39986 9.0943L10.5591 7.75623L11.1433 7.45822L11.6059 6.91081L14.8024 1.63155L15.2183 1.19364L15.924 0.773975L16.1576 0.719238L16.3679 0.780063L17.8213 1.63155L18.9101 2.44048L19.6485 3.22506L20.0177 3.97317L20.3588 5.34164L20.5037 5.6579L20.7374 5.86469L21.0178 5.91336L21.2888 5.80388L21.3963 5.70048L24.4713 2.34924L25.3031 1.82619L26.4527 1.6194L29.4857 1.5829L31.8737 1.71062L32.3924 1.84443L33.1495 2.42831L33.7897 3.45011L35.5795 6.63713L36.5609 7.94478L37.2105 8.54083L37.9208 9.03348L39.6779 10.0127L41.4584 11.0102L42.7015 11.8617L43.7063 12.7861L44.5381 13.8383L45.2297 15.0669L46.6925 18.4182L46.8654 18.5885L47.0757 18.5398L47.099 18.5155L47.8 17.6822L48.9683 16.0826L50.6881 13.4187L51.3423 12.3908L52.0713 11.4359L53.2023 10.2195L53.3845 10.1404L53.5387 10.2864L54.2444 12.1658L57.268 21.9215L60.5345 33.1308L60.9224 33.9154L61.4739 34.3533L62.2216 34.5236L63.6937 34.6756L64.9741 34.9919L65.5956 35.1014L66.0303 34.9615L66.4135 34.4749L66.7686 33.4896L66.82 33.3254L71.4792 19.4582L71.6848 18.9899L71.8624 18.85L72.0213 19.0325L72.1568 19.5373L73.3485 26.3796L74.7739 35.3021L75.0309 36.2691L75.4561 36.9868L76.1711 37.5038L77.1151 37.6802L77.7273 37.6194L78.1947 37.3882L78.5171 36.999L78.7928 36.3968L79.3583 34.627L80.0266 32.0907L80.8257 29.1166L82.5174 23.2899L83.9053 18.1019L84.0128 17.9316L84.1764 17.889L84.2231 17.9012L84.4147 18.108L84.5549 18.5398L89.2935 40.0704L89.5973 40.9949L89.9852 41.4815L90.789 41.8707L91.4666 41.9437L91.6769 41.8525L91.8405 41.6214L102.07 18.5641L102.341 18.2114L102.486 18.6736L104.664 44.109L104.753 44.4131L104.954 44.6016L105.538 44.9179L107.019 45.6721L108.136 46.0248L109.057 46.037L109.809 45.7146L110.038 45.52L111.688 42.9473L118.225 31.8657L124.707 20.5104L124.885 20.3888L125.072 20.4861L125.1 20.5408L125.217 20.9787L125.24 21.5018L123.847 50.3492L123.955 53.4024L124.02 53.6822L124.16 53.8829L124.403 54.1201L125.305 54.9108L125.992 55.1419L126.385 55.0567L126.81 54.7952L128.894 53.2199L130.946 51.6568L147.48 38.3674L148.672 37.5585L148.957 37.5768L149.101 37.887L149.087 38.0329L148.307 40.6787L146.966 44.559L145.989 47.3629L140.484 63.4136L139.671 65.7369L139.405 66.5641L139.306 67.3669L139.372 68.1089L139.601 68.7597L140.171 69.4287L141.045 69.7876L141.923 69.8363L142.928 69.7085L163.355 65.6213L163.939 65.5301L164.308 65.5423L164.476 65.67L164.439 65.9194L164.205 66.2843L162.546 68.6502L160.915 71.0344L156.803 76.5752L153.261 81.7815L152.84 82.5661L152.578 83.3628L152.574 83.6426L152.667 83.8859L153.172 84.8225L153.765 85.9173L154.349 86.5316L154.779 86.7323L155.279 86.8114L156.49 86.5985L172.524 81.076L172.888 80.9969L173.056 81.0699L173.033 81.301L172.818 81.6903L162.336 97.2544L162.177 97.8017L162.331 98.3491L173.678 115.336L173.818 115.799L173.711 116.273L156.966 146.641L156.602 147.036L156.135 147.152L154.803 146.915L153.592 146.69L91.1675 139.586L86.784 139.245L83.3025 139.3L83.0688 139.361L82.8679 139.513L80.6201 141.544L78.704 142.955L76.6945 144.172L73.3018 146.081L73.1102 146.24L72.9747 146.471L68.0771 157.327L68.0304 157.425L67.4369 158.799L67.0911 159.876L66.9322 160.897L66.9742 161.822L67.0397 162.169L68.222 166.907L69.2875 170.714L69.2968 170.726H69.3015H69.4324L69.5071 170.69L69.4978 170.592L69.2127 169.607L69.1146 168.689L69.166 167.065L69.3436 165.416L69.652 163.744L70.0866 162.047L71.3951 157.881L72.7831 154.031L73.0541 153.49L73.3672 153.179L73.8018 153.076L74.3486 153.204L75.9936 153.958L77.2927 154.858L77.4843 155.095L77.5965 155.411L77.6198 155.752L77.5451 156.087L74.7552 163.756L74.1383 166.019L73.8112 168.579L73.8345 171.261L74.0168 172.265L74.4 172.995L74.872 173.378L75.1524 173.512L76.2599 173.773L77.461 173.664L79.3069 173.068L80.9799 172.228L82.48 171.14L83.8072 169.802L84.3586 169.108L85.3961 167.405L86.0924 165.544L86.3401 164.376L86.6438 162.613L86.728 162.436L86.8495 162.57L88.5131 166.268L89.6067 169.309L89.9478 170.623L90.2095 172.04L90.5039 175.19L90.4806 178.371L90.345 179.795L90.1207 181.108L89.5319 183.432L88.7842 185.566L87.8776 187.519L86.8074 189.283L85.541 190.913L84.1016 192.342L82.494 193.577L80.7135 194.617L79.4377 195.158L78.1012 195.535L76.6572 195.766L75.1757 195.839L73.6149 195.766L71.9559 195.529L70.3203 195.152L68.6239 194.617L66.5069 193.716L64.5442 192.597L62.7403 191.247L61.086 189.672L60.3289 188.772L59.6326 187.762L58.983 186.613L58.4082 185.378L57.9129 184.064L57.5016 182.69L57.1792 181.273L56.9502 179.819L56.7446 177.575L56.6885 175.805L56.7259 174.017L57.0857 170.422L57.2306 170.106L57.5063 170.197L59.6607 172.38L63.5955 176.577L66.3901 179.338L66.9369 179.758L67.2266 179.782L67.264 179.405L67.0443 178.627L64.3759 170.538L61.8197 161.609L61.7776 161.165L61.8991 160.733L62.6982 158.957L63.4086 157.029L64.7124 153.191L70.5633 137.919L71.0026 137.11L71.5961 136.526L74.1476 134.671L75.7926 133.577L77.3254 132.902L78.2507 132.664L79.2508 132.543L83.1997 132.354L118.716 131.083L128.063 130.706L139.302 130.256L148.751 130.037L149.349 129.818L149.788 129.246L155.35 116.711L155.527 116.151L155.541 115.622L155.396 115.142L155.097 114.692L145.213 103.409L144.816 102.953L143.349 101.439L142.718 101.062L142.138 100.916L141.335 101.031L136.946 102.388L132.068 103.458L131.862 103.568L131.778 103.677L131.745 103.86L131.815 104.018L137.97 110.294L139.204 111.632L140.428 113.129L142.844 116.595L146.237 121.875L146.269 121.978L146.19 122.021L137.797 122.817L130.516 123.784L130.301 123.724L130.282 123.639L130.371 123.237L130.614 122.86L136.302 116.547L136.381 116.376L136.25 116.249L133.549 115.026L131.124 113.767L112.739 103.391L112.501 103.197L112.379 102.959V102.674L112.501 102.339L120.693 86.1484L120.716 86.0146L120.651 85.9052L120.483 85.7592L120.338 85.8078L120.333 85.82L120.067 86.41L119.226 87.3831L118.758 87.8454L115.464 91.3486L113.678 93.2949L112.417 95.1378L108.589 101.044L107.739 102.053L106.799 102.619L105.767 102.74L102.799 102.692L102.491 102.923L102.444 103.385L102.495 103.513L111.884 120.707L112.038 121.084L112.029 121.364L111.87 121.546L111.547 121.631L100.547 122.568L89.2795 123.334L88.3262 123.353L87.7841 123.261L87.5317 123.103L87.3775 122.872L87.3215 122.58L87.3635 122.215L89.1627 114.406L89.3309 113.986L89.602 113.67L89.9431 113.512L90.3077 113.524L102.846 117.064L103.173 117.106L103.346 117.009L103.355 116.741L103.192 116.31L102.879 115.981L100.551 113.865L97.467 111.304L91.9479 106.864L84.2371 100.545L84.2231 100.533L84.0969 100.271L84.1577 99.967L84.7372 99.1033L85.3914 98.3613L85.8027 97.9903L89.7889 94.8641L93.7658 92.0907L94.1911 91.7501L94.3126 91.4764L94.1304 91.2696L93.6443 91.1297L92.5414 90.7952L74.5402 84.3968L73.9327 84.263L73.6149 84.4211L73.5868 84.859L73.8486 85.5828L81.092 100.891L81.1715 101.062L81.5127 101.834L81.6482 102.418L81.6435 102.917L81.5313 103.507L80.4285 107.472L79.2321 111.322L78.9844 112.089L75.5309 123.091L75.3066 123.62L74.9935 124.058L74.6009 124.387L74.1617 124.575L54.651 129.35L52.7443 129.52L52.6789 129.496L52.6555 129.404L52.6882 129.24L52.7209 129.179L52.7583 129.155L63.7497 123.73L63.9834 123.517L63.7217 123.377L61.7589 122.903L60.9224 122.781L59.7728 122.763H54.5995L54.5154 122.732L54.2257 122.453L54.0902 122.057L54.2631 121.692L54.3986 121.638L72.012 119.077L72.269 118.913L72.3812 118.572L72.5401 112.496L72.4279 107.095L72.3718 106.536L71.9699 105.161L71.1755 103.805L68.708 100.539L65.3947 96.1109L45.9447 68.9543L42.8651 64.5205L39.963 60.0441L39.6779 59.673L39.4677 59.6001L39.3415 59.8251L39.2947 60.3482L39.2527 68.778L39.3462 73.5767L39.4957 74.8053L39.5378 75.1763L39.4817 75.3649L39.3275 75.3588L39.0798 75.1642L33.028 69.222L28.4809 64.5935L16.7091 52.6482L6.95605 42.8074L6.47937 42.2296L6.08682 41.5788L5.95131 41.2869L5.23631 39.4257L1.39024 24.999L0.960296 22.925L1.02573 22.5783L1.26873 22.4141H1.31547L17.0268 23.9711L23.289 24.6827L25.448 24.7435L26.4808 24.707ZM25.9948 13.1815L26.0882 13.5403L28.7146 15.9914L29.0697 16.1313L29.4109 15.9549L30.5324 14.8115L32.1354 13.1146L33.1869 11.588L33.2149 11.5211L33.2102 11.1865L33.0093 10.9797L31.1867 10.2742L25.9948 13.1815ZM53.1695 48.0806L53.3051 48.5185L53.5247 48.8895L53.8191 49.1632L54.1556 49.3274L56.2212 49.7227L58.4409 49.7896L64.0488 49.6437L69.5959 49.6923L75.0823 49.9478L80.5126 50.4039L83.7044 50.5134L89.6347 50.4648L91.2376 50.6594L91.9386 50.781L92.8452 50.7932L93.4247 50.6837L92.8686 50.4404L83.2511 48.111L75.9609 46.3837L66.6892 44.109L57.6652 42.0836L57.4269 42.035L56.0436 41.7065L55.0155 41.3294L54.2163 40.849L53.6649 40.2772L52.2115 38.2641L51.2535 37.1936L51.09 37.1328L51.0806 37.3517L53.1695 48.0806Z" fill="#2C8C7D"/>
<path d="M43.6981 115.859L43.8336 111.753L43.9411 107.557L43.9738 83.4958L44.0205 82.7842L44.0532 82.693L44.3663 82.5774L44.7776 82.8572L49.3713 88.325L54.353 93.9327L56.3952 96.6453L56.5307 97.0467L56.4419 97.4664L55.4793 99.5586L48.876 116.674L47.474 120.937L47.189 121.649L46.8104 122.233L46.3197 122.707L45.7262 123.042L28.2577 129.659L26.0894 130.389L25.4258 130.498L25.1641 130.407L25.3089 130.109L25.8604 129.61L34.9965 122.318L35.0993 122.172L35.104 122.002L35.0386 121.862L34.861 121.795L34.4264 121.862L33.8469 121.716L33.2861 121.57L31.1131 121.552L29.627 121.466L27.739 120.998L27.3932 120.895L27.1922 120.694L27.1969 120.384L27.253 120.299L32.0103 115.305L32.3608 115.068L32.758 115.025L43.0391 116.637L43.3289 116.625L43.5345 116.497L43.6607 116.242L43.6981 115.859Z" fill="#2C8C7D"/>
</g>
<defs>
<clipPath id="clip0_1_2408">
<rect width="174.147" height="196.175" fill="white" transform="translate(0.271484 0.27832)"/>
</clipPath>
</defs>
</svg>
