<svg width="121" height="83" viewBox="0 0 121 83" fill="none" xmlns="http://www.w3.org/2000/svg">
<g clip-path="url(#clip0_1_2402)">
<path d="M17.8717 14.0316L18.4329 13.9722L17.8913 13.8103L0.140283 10.3045L0.123975 10.3012L0.00978698 10.2021L0 10.0501L0.730787 8.33856L1.63123 6.67656L2.04229 6.1446L2.53819 5.77122L3.15479 5.54985L6.75655 4.82293L7.16435 4.66103L7.48734 4.36364L9.71887 1.49563L10.0092 1.25772L10.5019 1.02974L10.665 1L10.8118 1.03304L11.8264 1.49563L12.5866 1.93509L13.102 2.36132L13.3598 2.76773L13.5979 3.51117L13.6991 3.68298L13.8622 3.79533L14.0579 3.82176L14.2471 3.76229L14.3222 3.70612L16.4689 1.88552L17.0496 1.60136L17.8522 1.48902L19.9695 1.4692L21.6366 1.53858L21.9988 1.61127L22.5273 1.92847L22.9742 2.48358L24.2238 4.21496L24.9089 4.92536L25.3623 5.24917L25.8582 5.5168L27.0849 6.04877L28.3279 6.59066L29.1957 7.05324L29.8972 7.55547L30.4779 8.1271L30.9607 8.79454L31.9819 10.6151L32.1026 10.7077L32.2494 10.6812L32.2657 10.668L41.6453 18.6079L41.9161 19.0342L42.301 19.2721L42.823 19.3646L43.8507 19.4472L44.7446 19.619L83.2057 28.1438L105.252 39.3784L108.966 46.472L112.715 53.4438L112.604 53.7412L112.711 54.0385L120.633 63.2671L120.731 63.5182L120.655 63.7759L108.966 80.2737L108.712 80.4884L108.385 80.5512L107.456 80.4223L106.611 80.3001L63.0307 76.4408L59.9705 76.2558L57.54 76.2855L57.3768 76.3185L57.2366 76.4012L55.6673 77.5048L54.3297 78.2713L52.9268 78.9322L50.5583 79.9697L50.4245 80.0556L50.3299 80.1811L44.5619 83.8323L48.6465 75.5355L48.9532 75.096L49.3675 74.7788L51.1488 73.7711L52.2972 73.1763L53.3673 72.8095L54.0133 72.6807L54.7114 72.6146L57.4682 72.5122L82.2629 71.8216L88.7878 71.6167L96.634 71.3722L103.231 71.2533L103.648 71.1343L103.955 70.8237L107.837 64.0138L107.961 63.7099L107.971 63.4224L107.87 63.1614L107.661 62.9168L100.761 56.7876L100.484 56.5398L99.4593 55.7171L99.0189 55.5122L98.6143 55.4329L98.0532 55.4957L94.9897 56.2325L91.5837 56.814L91.4402 56.8735L91.3814 56.933L91.3586 57.0321L91.4076 57.118L95.7042 60.5279L96.5655 61.2549L97.4203 62.0677L99.1069 63.951L101.475 66.8191L101.498 66.8752L101.443 66.8984L95.5835 67.3312L90.5006 67.8566L90.3505 67.8235L90.3375 67.7773L90.3995 67.5592L90.5691 67.3543L94.5395 63.9246L94.595 63.8321L94.5036 63.7627L92.6179 63.0986L90.9247 62.4146L78.0902 56.7777L77.9238 56.672L77.839 56.5431V56.3878L77.9238 56.2061L83.6429 47.4104L83.6592 47.3377L83.6135 47.2782L83.4961 47.1989L83.3949 47.2253L83.3917 47.232L83.2057 47.5525L82.6185 48.0811L82.2923 48.3322L79.9922 50.2354L78.7459 51.2928L77.8651 52.2939L75.1931 55.5023L74.5994 56.0508L73.9436 56.3581L73.2226 56.4242L71.1509 56.3977L70.9356 56.5233L70.903 56.7744L70.9389 56.8438L77.4932 66.1847L77.6008 66.3895L77.5943 66.5415L77.4834 66.6406L77.2583 66.6869L69.5784 67.1957L61.7127 67.6121L61.0471 67.622L60.6687 67.5724L60.4925 67.4865L60.3848 67.361L60.3457 67.2024L60.375 67.0041L61.6311 62.7615L61.7485 62.5336L61.9378 62.3617L62.1759 62.2758L62.4304 62.2824L71.1836 64.2055L71.4119 64.2286L71.5326 64.1757L71.5392 64.0303L71.425 63.7958L71.2064 63.6173L69.5817 62.4675L67.4285 61.0764L63.5755 58.6644L58.1925 55.2313L58.1827 55.2247L58.0946 55.0827L58.137 54.9174L58.5415 54.4483L58.9983 54.0451L59.2854 53.8436L62.0682 52.1453L64.8446 50.6386L65.1415 50.4535L65.2263 50.3048L65.0991 50.1925L64.7598 50.1165L63.9898 49.9348L51.4229 46.4588L50.9987 46.3861L50.7769 46.472L50.7573 46.7099L50.94 47.1031L55.9968 55.4197L56.0523 55.5122L56.2905 55.9318L56.3851 56.249L56.3818 56.52L56.3035 56.8405L55.5336 58.9948L54.6984 61.0863L54.5255 61.5027L52.1145 67.4799L51.9579 67.7674L51.7393 68.0053L51.4653 68.1837L51.1586 68.2861L37.5378 70.8799L36.2068 70.9724L36.1611 70.9592L36.1448 70.9096L36.1676 70.8204L36.1904 70.7874L36.2165 70.7742L43.8898 67.8268L44.053 67.7112L43.8703 67.6352L42.5 67.3775L41.9161 67.3114L41.1135 67.3015H37.5019L37.4432 67.285L37.241 67.133L37.1463 66.9182L37.2671 66.7199L37.3617 66.6902L49.6579 65.2991L49.8373 65.2099L49.9156 65.0249L50.0265 61.724L49.9482 58.7899L49.9091 58.486L49.6285 57.7392L49.0739 57.0024L47.3513 55.228L45.0382 52.8226L31.4599 38.0695L29.3099 35.6607L11.0499 29.211L4.2412 23.8649L3.90842 23.551L3.63437 23.1974L3.53977 23.0388L3.04061 22.0277L0.355607 14.1903L0.0554562 13.0635L0.101135 12.8752L0.27078 12.786H0.303406L11.2718 13.6318L15.6435 14.0184L17.1507 14.0515L17.8717 14.0316ZM17.5324 7.77025L17.5977 7.9652L19.4312 9.29678L19.6791 9.37277L19.9173 9.27695L20.7003 8.65577L21.8193 7.7339L22.5534 6.90455L22.5729 6.86821L22.5697 6.68647L22.4294 6.57413L21.157 6.19085L17.5324 7.77025Z" fill="#2C8C7D"/>
<path d="M29.9721 62.4994L30.0667 60.2691L30.1418 57.9892L30.1646 44.9179L30.1972 44.5313L30.2201 44.4817L30.4386 44.4189L30.7257 44.5709L33.9327 47.5414L37.4105 50.5878L38.8362 52.0615L38.9308 52.2796L38.8688 52.5076L38.1968 53.6442L33.5869 62.9421L32.6082 65.2584L32.4092 65.6449L32.1449 65.9621L31.8023 66.2199L31.388 66.4016L19.1929 69.9965L17.6792 70.393L17.2159 70.4525L17.0332 70.4029L17.1343 70.241L17.5193 69.9701L23.8974 66.0084L23.9692 65.9291L23.9724 65.8366L23.9268 65.7606L23.8028 65.7242L23.4994 65.7606L23.0949 65.6813L22.7034 65.602L21.1863 65.5921L20.1488 65.5458L18.8308 65.2914L18.5894 65.2352L18.4491 65.1262L18.4524 64.9577L18.4915 64.9114L21.8127 62.1987L22.0574 62.0698L22.3347 62.0467L29.5121 62.9223L29.7144 62.9157L29.8579 62.8463L29.946 62.7075L29.9721 62.4994Z" fill="#2C8C7D"/>
</g>
<defs>
<clipPath id="clip0_1_2402">
<rect width="121" height="83" fill="white"/>
</clipPath>
</defs>
</svg>
