<svg width="30" height="40" viewBox="0 0 30 40" fill="none" xmlns="http://www.w3.org/2000/svg">
<path d="M14.953 10.0151C10.8348 10.0151 7.51313 14.5486 7.51313 20.169C7.51313 25.7894 10.8348 30.3229 14.953 30.3229C19.0711 30.3229 22.3928 25.7894 22.3928 20.169C22.3928 14.5486 19.0711 10.0151 14.953 10.0151ZM14.953 26.7703C12.2917 26.7703 10.1161 23.8099 10.1161 20.169C10.1161 16.5281 12.2852 13.5677 14.953 13.5677C17.6207 13.5677 19.7898 16.5281 19.7898 20.169C19.7898 23.8099 17.6142 26.7703 14.953 26.7703ZM24.4325 9.59979C24.4325 10.9165 23.6555 11.9681 22.6972 11.9681C21.7324 11.9681 20.9618 10.9077 20.9618 9.59979C20.9618 8.29189 21.7388 7.23143 22.6972 7.23143C23.6555 7.23143 24.4325 8.29189 24.4325 9.59979ZM29.36 12.0035C29.2499 8.83096 28.719 6.02075 27.016 3.70542C25.3196 1.39009 23.2605 0.665441 20.9359 0.506372C18.5402 0.320793 11.3593 0.320793 8.96354 0.506372C6.64547 0.656604 4.5864 1.38125 2.88346 3.69658C1.18051 6.01191 0.656033 8.82212 0.539482 11.9947C0.403506 15.2644 0.403506 25.0648 0.539482 28.3345C0.649558 31.5071 1.18051 34.3173 2.88346 36.6326C4.5864 38.9479 6.63899 39.6726 8.96354 39.8316C11.3593 40.0172 18.5402 40.0172 20.9359 39.8316C23.2605 39.6814 25.3196 38.9568 27.016 36.6326C28.7125 34.3173 29.2434 31.5071 29.36 28.3345C29.496 25.0648 29.496 15.2732 29.36 12.0035ZM26.2649 31.8429C25.7599 33.5749 24.7821 34.9094 23.5065 35.6075C21.5964 36.6414 17.0638 36.4028 14.953 36.4028C12.8421 36.4028 8.30308 36.6326 6.39942 35.6075C5.1303 34.9182 4.15257 33.5838 3.64104 31.8429C2.88346 29.2359 3.05828 23.0499 3.05828 20.169C3.05828 17.2881 2.88993 11.0933 3.64104 8.49515C4.14609 6.76307 5.12383 5.42866 6.39942 4.73052C8.30956 3.69658 12.8421 3.93518 14.953 3.93518C17.0638 3.93518 21.6029 3.70542 23.5065 4.73052C24.7756 5.41982 25.7534 6.75423 26.2649 8.49515C27.0225 11.1021 26.8477 17.2881 26.8477 20.169C26.8477 23.0499 27.0225 29.2447 26.2649 31.8429Z" fill="#2C8C7D"/>
</svg>
