<svg width="43" height="59" viewBox="0 0 43 59" fill="none" xmlns="http://www.w3.org/2000/svg">
<path fill-rule="evenodd" clip-rule="evenodd" d="M28.1464 13.1764C29.3182 14.0659 30.3743 15.1875 31.276 16.5002C32.1588 17.7845 32.8667 19.2523 33.3697 20.8413C33.6555 21.7525 33.8805 22.6935 34.0422 23.6541C34.4173 25.8114 34.447 28.0448 34.1294 30.2174C33.9572 31.3916 33.6954 32.5411 33.3479 33.649L33.3043 33.7662C32.5555 36.1102 31.2724 38.3886 30.0329 40.6388C29.3968 41.7733 28.7679 42.8985 28.2372 43.9908C28.0706 44.3312 27.8347 44.6061 27.5552 44.7855C27.2758 44.9649 26.9635 45.0419 26.6524 45.0081L16.6347 46.9302C16.2244 47.0027 15.8077 46.8806 15.462 46.5865C15.1164 46.2925 14.8653 45.8465 14.7554 45.3316C14.504 44.3921 14.1952 43.4798 13.8322 42.6031C13.529 41.8525 13.1634 41.1467 12.7417 40.4982C12.2219 39.734 11.6949 38.9558 11.1823 38.0604C10.5939 37.0441 10.0861 35.9541 9.66659 34.8069C9.22673 33.6056 8.88444 32.3487 8.64518 31.0565C8.4086 29.7584 8.29268 28.4286 8.29987 27.0951C8.29999 25.7052 8.43554 24.3207 8.70334 22.9744C8.99396 21.5349 9.41103 20.1429 9.94647 18.8255L10.0192 18.6614C10.712 17.1447 11.5867 15.7792 12.6108 14.6156C13.632 13.4656 14.7939 12.542 16.0495 11.8825L16.1512 11.8356C17.0868 11.3557 18.0628 11.0189 19.0591 10.8324C20.1153 10.6416 21.1851 10.6101 22.2469 10.7386C23.2844 10.8608 24.3083 11.1297 25.3003 11.5403C26.2883 11.9484 27.238 12.4971 28.1318 13.1764H28.1464ZM26.6924 54.0841C26.1427 55.3057 25.356 56.3219 24.4097 57.0329C23.6108 57.6328 22.715 57.9858 21.7926 58.0642C20.8704 58.1362 19.9494 57.9022 19.1173 57.3845C18.5174 57.0031 17.9766 56.4836 17.5216 55.8515L26.7142 54.0841H26.6924ZM27.5684 47.4505V48.2241V48.496C27.5976 49.0031 27.5976 49.5124 27.5684 50.0196L27.3903 51.14L16.253 53.2778L16.0567 52.7011L15.6242 50.404V49.7383L27.543 47.4505H27.5684ZM21.0583 2.23922C21.065 1.7634 21.2175 1.31036 21.4825 0.979164C21.7475 0.647966 22.1034 0.465561 22.4723 0.471836H22.5705C22.922 0.512071 23.2486 0.722551 23.4847 1.06091C23.7207 1.39927 23.8486 1.84039 23.8427 2.29548C23.8446 2.32668 23.8446 2.35803 23.8427 2.38924L23.7663 6.23811C23.7683 6.2787 23.7683 6.31941 23.7663 6.36C23.7387 6.8151 23.578 7.23966 23.3169 7.54777C23.0557 7.85588 22.7136 8.02452 22.3596 8.01956H22.2615C21.9086 7.98274 21.5798 7.77439 21.3416 7.43668C21.1034 7.09896 20.9735 6.65712 20.9784 6.2006C20.9764 6.17097 20.9764 6.14116 20.9784 6.11153L21.0511 2.24391L21.0583 2.23922ZM5.66821 8.9806C5.46484 8.73861 5.32182 8.42412 5.25733 8.07708C5.19283 7.73004 5.20977 7.36611 5.30598 7.03151C5.4022 6.69691 5.57336 6.40674 5.79771 6.19786C6.02206 5.98898 6.28949 5.87082 6.56603 5.85838C6.74894 5.84759 6.9317 5.88345 7.10385 5.96389C7.276 6.04434 7.43415 6.16779 7.56926 6.32718L9.80835 9.01342C10.0775 9.34168 10.2366 9.79248 10.2518 10.2698C10.2604 10.5057 10.2327 10.7415 10.1703 10.9636C10.1079 11.1857 10.0121 11.3896 9.88832 11.5637C9.63584 11.9118 9.28708 12.1173 8.9178 12.1356C8.73483 12.1472 8.5519 12.1117 8.37967 12.0312C8.20743 11.9507 8.04933 11.8269 7.91457 11.6668L5.66821 8.9806ZM2.00424 28.825C1.63641 28.8327 1.28097 28.6537 1.01446 28.3266C0.747951 27.9995 0.591702 27.5506 0.57936 27.0764C0.571581 26.838 0.600615 26.6 0.664775 26.3763C0.728934 26.1525 0.82694 25.9474 0.953093 25.773C1.07925 25.5985 1.23103 25.4581 1.39963 25.3599C1.56822 25.2618 1.75027 25.2078 1.93517 25.2012L4.99212 25.0699C5.17664 25.0599 5.36086 25.0972 5.53412 25.1796C5.70739 25.2621 5.86624 25.3881 6.00148 25.5503C6.13671 25.7125 6.24565 25.9077 6.32196 26.1246C6.39828 26.3415 6.44047 26.5758 6.44607 26.8139V26.842V26.9076C6.43968 27.3706 6.29522 27.8125 6.04273 28.1417C5.79023 28.4708 5.44911 28.6618 5.09026 28.675H5.03574L2.01878 28.8016L2.00424 28.825ZM40.5341 23.2369H40.5632C40.9133 23.2098 41.2585 23.3538 41.53 23.6401C41.6731 23.7888 41.7917 23.9727 41.8791 24.1812C41.9665 24.3897 42.0208 24.6185 42.0389 24.8543C42.041 24.8745 42.041 24.895 42.0389 24.9152C42.0615 25.3793 41.9439 25.8367 41.7108 26.1915C41.4777 26.5463 41.1472 26.771 40.7885 26.8185L37.7461 27.2358C37.5639 27.2593 37.3799 27.2361 37.2046 27.1678C37.0294 27.0994 36.8663 26.9871 36.7247 26.8373C36.5107 26.6135 36.3529 26.3131 36.271 25.9739C36.1891 25.6347 36.1869 25.2718 36.2647 24.931C36.3424 24.5901 36.4966 24.2866 36.7078 24.0585C36.919 23.8305 37.1779 23.6881 37.4517 23.6494C38.4658 23.5041 39.4872 23.3541 40.505 23.2275L40.5341 23.2369ZM34.5038 7.54607C34.6044 7.34827 34.7344 7.17807 34.8862 7.04526C35.038 6.91244 35.2086 6.81962 35.3883 6.77214C35.568 6.72465 35.7532 6.72344 35.9333 6.76856C36.1133 6.81368 36.2847 6.90425 36.4376 7.03507C36.5912 7.16417 36.7228 7.3321 36.8247 7.52871C36.9265 7.72532 36.9964 7.94653 37.03 8.17895C37.1013 8.64725 37.0255 9.13288 36.8192 9.5291L35.1181 12.8107C35.0187 13.0119 34.8889 13.1853 34.7366 13.3206C34.5842 13.4559 34.4124 13.5503 34.2312 13.5983C33.8686 13.6895 33.4927 13.5936 33.1843 13.3311C32.8789 13.0651 32.6652 12.6568 32.5882 12.1919C32.5169 11.7236 32.5928 11.238 32.799 10.8417L34.5038 7.56013V7.54607ZM14.4755 38.3839C13.417 36.9514 12.5311 35.3221 11.8475 33.5505C11.1045 31.5683 10.7181 29.3953 10.7171 27.1936C10.7541 24.827 11.2289 22.5061 12.102 20.4241C12.1094 20.4094 12.1155 20.3937 12.1201 20.3772C13.2271 17.9016 14.9404 15.9706 16.9909 14.8875C18.5959 14.0554 20.3326 13.7338 22.0543 13.9499C23.7609 14.1477 25.4127 14.8279 26.8923 15.9423C28.7873 17.3521 30.2702 19.5265 31.1124 22.1305C31.6478 23.7826 31.9235 25.5554 31.9235 27.3459C31.9235 29.1365 31.6478 30.9093 31.1124 32.5614C30.1347 35.632 27.8956 38.9136 26.4271 41.914C26.3467 41.8928 26.2639 41.8928 26.1835 41.914L16.7037 43.7189C16.2243 41.7776 15.4687 39.9684 14.4755 38.3839Z" fill="white"/>
</svg>
