<svg width="35" height="43" viewBox="0 0 35 43" fill="none" xmlns="http://www.w3.org/2000/svg">
<path d="M9.89371 15.801L13.7546 15.7352C13.9409 15.7317 14.1143 15.8001 14.2614 15.9193C15.0611 16.5206 15.8163 17.2051 16.5188 17.9773C16.9143 18.413 17.2969 18.8784 17.6654 19.3763C18.9929 16.6976 20.57 13.9787 22.2221 11.4193C24.3749 8.08503 26.6701 5.00321 28.7156 2.62173C28.8945 2.41399 29.1185 2.31232 29.3405 2.31232L32.3248 2.30618C32.8444 2.30618 33.2662 2.854 33.2662 3.52892C33.2662 3.86725 33.1609 4.17228 32.9902 4.39403C30.2516 8.34886 27.4428 12.8769 24.8972 17.5172C22.5406 21.8138 20.406 26.2095 18.7607 30.337C18.5232 30.9357 17.9563 31.1706 17.4954 30.8621C17.3101 30.7386 17.1621 30.538 17.0749 30.2923C16.1733 27.7881 15.0989 25.4891 13.8201 23.438C12.5425 21.3896 11.0531 19.5735 9.3194 18.0282C8.89087 17.6487 8.78086 16.8887 9.07308 16.3321C9.26339 15.9693 9.57855 15.7826 9.89371 15.801ZM4.3072 0.672363H22.5393C21.2476 2.40085 20.1287 4.08725 19.167 5.70793H4.3072C4.21137 5.70793 4.12431 5.75789 4.06155 5.8359C3.99833 5.92182 3.96304 6.03609 3.96302 6.15495V36.5927C3.96302 36.7102 4.00351 36.8206 4.06695 36.9039C4.13174 36.9871 4.21744 37.0406 4.3072 37.0406H30.4169C30.504 37.0406 30.589 36.9863 30.6545 36.9021C30.72 36.8171 30.7618 36.7058 30.7618 36.5927V19.3938C32.1669 18.6391 33.4882 17.8616 34.6389 17.1315V36.5927C34.6389 38.095 34.1591 39.4694 33.3951 40.4616C32.6305 41.4547 31.5737 42.0762 30.4169 42.0762H4.3072C3.15116 42.0762 2.09163 41.4574 1.32633 40.4634C0.56374 39.4729 0.0859375 38.1021 0.0859375 36.5927V6.15495C0.0859375 4.65173 0.561041 3.28262 1.32431 2.2904L1.33173 2.28076C2.09568 1.28943 3.14981 0.672363 4.3072 0.672363Z" fill="white"/>
</svg>
