<svg width="29" height="54" viewBox="0 0 29 54" fill="none" xmlns="http://www.w3.org/2000/svg">
<path d="M0.488281 10.6717C0.488281 5.26165 3.81882 0.875977 7.92729 0.875977H20.6916C24.8001 0.875977 28.1306 5.26165 28.1306 10.6717C28.1306 14.0973 26.7952 17.1123 24.7725 18.8631C26.7952 20.614 28.1306 23.6289 28.1306 27.0546C28.1306 32.4647 24.8001 36.8504 20.6916 36.8504H20.5301C18.6041 36.8504 16.8489 35.8865 15.5278 34.305V43.3308C15.5278 48.8129 12.1102 53.2329 7.96736 53.2329C3.86917 53.2329 0.488281 48.8606 0.488281 43.4371C0.488281 40.0116 1.82356 36.9968 3.84611 35.2459C1.82356 33.495 0.488281 30.4801 0.488281 27.0546C0.488281 23.6289 1.82367 20.614 3.84637 18.8631C1.82367 17.1123 0.488281 14.0973 0.488281 10.6717ZM13.0911 20.4676H7.92729C5.16457 20.4676 2.92499 23.4167 2.92499 27.0546C2.92499 30.6785 5.1473 33.6189 7.89529 33.6416C7.90593 33.6415 7.91657 33.6415 7.92729 33.6415H13.0911V20.4676ZM15.5278 27.0546C15.5278 30.6925 17.7674 33.6417 20.5301 33.6417H20.6916C23.4544 33.6417 25.6939 30.6925 25.6939 27.0546C25.6939 23.4167 23.4544 20.4676 20.6916 20.4676H20.5301C17.7674 20.4676 15.5278 23.4167 15.5278 27.0546ZM7.92729 36.8504C7.91657 36.8504 7.90593 36.8503 7.89529 36.8503C5.1473 36.8729 2.92499 39.8133 2.92499 43.4371C2.92499 47.0617 5.1945 50.0242 7.96736 50.0242C10.7849 50.0242 13.0911 47.0141 13.0911 43.3308V36.8504H7.92729ZM7.92729 4.08466C5.16457 4.08466 2.92499 7.03377 2.92499 10.6717C2.92499 14.3096 5.16457 17.2587 7.92729 17.2587H13.0911V4.08466H7.92729ZM15.5278 17.2587H20.6916C23.4544 17.2587 25.6939 14.3096 25.6939 10.6717C25.6939 7.03377 23.4544 4.08466 20.6916 4.08466H15.5278V17.2587Z" fill="white"/>
</svg>
