<svg width="92" height="100" viewBox="0 0 92 100" fill="none" xmlns="http://www.w3.org/2000/svg">
<path d="M5.09704 73.982C5.09704 75.774 5.09704 77.2498 5.09704 78.7256C5.09704 80.0959 4.73325 81.2555 3.36905 81.3609C2.00484 81.4663 1.36821 80.4122 1.27726 79.0418C1.00442 75.4578 0.367793 71.7683 0.913475 68.2897C1.91389 61.5432 2.09579 54.6914 3.00526 47.9449C5.18799 32.1329 11.2814 18.7454 22.1041 8.62578C26.2877 4.72549 31.1079 1.98475 36.3828 0.614377C36.8376 0.508964 37.2923 0.298137 37.838 0.298137C38.8384 0.192724 39.7479 0.508963 40.1117 1.77392C40.4755 3.24971 39.7479 4.09301 38.6565 4.51467C37.4742 4.93632 36.2009 5.25256 35.0186 5.67421C29.4709 7.88789 24.8326 11.5774 20.8309 16.4264C15.556 22.7512 11.8271 30.1301 9.73534 38.6685C10.0991 38.1415 10.4629 37.6144 10.8267 37.0873C11.1905 36.4549 11.5543 35.717 11.9181 35.0845C17.5568 24.754 25.1963 17.3751 35.2005 13.1585C53.3899 5.77962 73.3983 14.5289 83.2206 27.1785C92.2243 38.8794 94.3161 52.056 89.1321 66.603C86.4947 74.0874 82.493 80.4122 76.9452 85.3666C62.9394 97.8054 47.2055 102.233 29.8346 97.2783C19.1938 94.2213 11.1905 86.9478 6.18841 75.5632C6.00651 75.1415 5.82462 74.8253 5.64272 74.4036C5.64272 74.4036 5.55178 74.2982 5.09704 73.982ZM42.931 94.2213C51.8438 94.1159 60.6657 91.3752 68.76 85.8937C76.2176 80.8338 81.8564 73.982 85.1305 64.7056C89.5869 52.1614 87.8589 40.7768 80.1284 30.5517C76.4905 25.7027 71.9431 22.3295 66.941 19.7996C49.1154 10.6286 29.5618 16.1101 18.1025 33.5033C13.3732 40.6714 9.91724 48.6828 7.37072 57.3267C6.91598 58.8025 6.82503 60.4891 7.00693 61.9649C8.73492 74.2982 14.1917 83.5746 23.9231 89.3723C29.6527 92.9564 35.9281 94.2213 42.931 94.2213Z" fill="#2C8C7D"/>
</svg>
