<svg width="376" height="30" viewBox="0 0 376 30" fill="none" xmlns="http://www.w3.org/2000/svg">
<path d="M8.19616 8.83909C11.1382 8.95188 14.2245 8.89108 17.1706 8.82491C18.4315 8.87324 19.5563 8.73725 20.8172 8.78559C26.1491 8.63176 31.4809 8.47793 36.8128 8.3241C43.2655 8.21324 49.5821 7.91805 56.0347 7.80719C65.1574 7.44046 74.2759 7.25268 83.3986 6.88595C85.5041 6.78755 87.6056 6.86811 89.7111 6.76972C95.043 6.61589 100.375 6.46206 105.703 6.48719C111.035 6.33336 116.366 6.17953 121.694 6.20466C123.8 6.10627 125.905 6.00787 128.007 6.08843C136.421 6.05276 144.975 6.02246 153.389 5.98678C158.577 6.00654 163.764 6.0263 169.096 5.87247C171.198 5.95303 173.163 5.84927 175.265 5.92983C183.394 6.06237 191.664 6.20028 199.794 6.33283C207.924 6.46537 215.914 6.59254 224.043 6.72509C226.145 6.80565 228.246 6.88621 230.488 6.97214C235.812 7.17623 240.996 7.37494 246.319 7.57903C254.585 7.8959 262.711 8.2074 270.981 8.34531C273.643 8.44736 276.305 8.5494 278.966 8.65144C284.57 8.86627 290.174 9.0811 295.778 9.29593C296.199 9.31204 296.759 9.33352 297.179 9.34963C284.566 9.04523 271.813 8.73545 259.196 8.61C253.868 8.58487 248.685 8.38616 243.357 8.36103C241.115 8.2751 238.734 8.1838 236.488 8.27682C228.779 8.16039 221.205 8.22829 213.496 8.11185C204.661 8.13142 195.831 7.97202 186.997 7.99158C185.456 7.9325 184.05 8.05775 182.509 7.99867C177.738 8.17398 173.111 8.17571 168.339 8.35102C158.8 8.52268 149.261 8.69435 139.722 8.86601C138.321 8.8123 136.916 8.93755 135.511 9.0628C130.88 9.24348 126.105 9.59775 121.473 9.77843C113.051 10.172 104.769 10.571 96.3469 10.9646C94.1012 11.0576 91.7115 11.3242 89.4658 11.4172C84.1299 11.75 78.794 12.0828 73.4541 12.5945C66.7131 13.0526 59.8321 13.5052 53.0911 13.9633C43.6802 14.6772 34.1292 15.3857 24.7183 16.0996C22.4726 16.1926 20.223 16.4646 17.8372 16.5523C13.7622 16.9334 9.68719 17.3145 5.61218 17.6956C5.19188 17.6795 4.76349 18.0213 4.74731 18.7372C4.73517 19.274 5.14333 19.827 5.56363 19.8431C7.10472 19.9022 8.50167 20.1349 10.0428 20.1939C9.74233 21.078 9.5901 21.6095 9.57796 22.1464C9.53346 24.1149 10.7539 25.9528 12.4351 26.0172C24.0835 25.5682 35.596 24.9349 47.2404 24.6648C57.3397 24.5146 67.443 24.1855 77.5423 24.0353C88.6263 23.7438 99.8504 23.4576 110.93 23.345C114.437 23.3003 117.943 23.2556 121.454 23.032C122.435 23.0696 123.419 22.9282 124.54 22.9712C142.485 23.1218 160.434 23.0934 178.379 23.244C187.914 23.2513 197.589 23.2639 207.119 23.4502C210.626 23.4055 213.988 23.5344 217.495 23.4897C235.856 23.8353 254.217 24.181 272.578 24.5266C280.428 24.6484 288.277 24.7702 296.127 24.892C302.856 24.9709 309.58 25.2287 316.313 25.1285C321.921 25.1644 327.393 25.016 333.001 25.0518C335.807 24.9803 338.609 25.0877 341.275 25.0108C347.592 24.7156 353.908 24.4204 360.225 24.1252C359.789 24.8249 359.764 25.8987 359.888 26.6199C360.008 27.52 360.412 28.252 361.105 28.6367C361.657 29.0161 362.489 29.4063 363.058 29.0698C364.475 28.4077 365.892 27.7456 367.169 27.0781C367.169 27.0781 367.169 27.0781 367.029 27.0727C367.169 27.0781 367.173 26.8992 367.313 26.9045C367.454 26.9099 367.598 26.7363 367.598 26.7363L367.458 26.7309C368.166 26.3999 368.875 26.0688 369.727 25.5642C370.436 25.2331 371.289 24.7285 371.997 24.3974C372.85 23.8928 373.563 23.3827 374.416 22.8781C375.268 22.3734 375.861 20.9633 375.889 19.7106C375.906 18.9947 375.778 18.4525 375.514 17.7259C375.249 16.9994 374.569 16.0777 373.873 15.8719C373.176 15.6661 372.48 15.4603 371.779 15.4334C371.639 15.4281 371.499 15.4227 371.359 15.4173C370.939 15.4012 370.378 15.3797 369.954 15.5426C368.829 15.6786 367.844 15.8199 366.724 15.777C365.883 15.7447 365.038 15.8915 364.058 15.8539C361.672 15.9415 359.426 16.0346 357.037 16.3012C356.476 16.2797 355.772 16.4318 355.211 16.4103C355.5 16.0631 355.648 15.7106 355.656 15.3527C355.804 15.0001 355.812 14.6422 355.82 14.2843C355.824 14.1054 355.832 13.7474 355.976 13.5739C355.985 13.2159 355.993 12.858 355.857 12.6737C355.857 12.6737 355.997 12.6791 356.001 12.5001C356.429 12.1583 356.858 11.8165 357.154 11.1114C357.446 10.5853 357.603 9.87483 357.619 9.159C357.635 8.44318 357.507 7.90093 357.243 7.17436C357.107 6.99004 356.975 6.62675 356.839 6.44242C356.431 5.88944 356.014 5.69437 355.598 5.4993C354.766 5.10916 353.789 4.89261 352.808 4.85502C351.968 4.82279 351.267 4.79594 350.427 4.76372C349.306 4.72075 348.185 4.67778 347.064 4.63482C345.523 4.57574 343.842 4.51129 342.301 4.45222C338.098 4.29109 333.895 4.12997 329.692 3.96885C325.769 3.81847 321.706 3.66272 317.784 3.51234C314.141 3.37271 310.638 3.23844 306.996 3.0988C292.566 2.54562 278.271 2.17677 263.837 1.80254C253.046 1.56795 242.254 1.33337 231.466 0.919824C226.703 0.73722 221.795 0.728204 217.028 0.724557C206.232 0.668928 195.44 0.434341 184.645 0.378712C181.563 0.260556 178.476 0.321358 175.394 0.203203C173.573 0.133384 171.888 0.247892 170.066 0.178073C159.407 0.306772 148.747 0.43547 138.087 0.564168C134.861 0.619599 131.635 0.67503 128.268 0.725091C126.447 0.655272 124.622 0.76441 122.796 0.873548C112.133 1.1812 101.609 1.49423 90.9452 1.80188C85.4732 1.95034 80.0013 2.0988 74.5253 2.42621C65.1224 2.7822 55.7196 3.13819 46.4528 3.67851C38.3109 4.08284 30.173 4.30821 22.0351 4.53358C20.7702 4.6642 19.5093 4.61587 18.1042 4.74112C15.9987 4.83952 13.8972 4.75895 11.7917 4.85735C9.95422 5.50336 7.99283 5.42817 6.17154 5.35835C6.04762 4.63715 5.49936 4.0788 5.07502 4.24164C3.81412 4.19331 2.68928 4.3293 1.42435 4.45992C0.859903 4.61739 0.291415 4.95383 0.135133 5.66428C-0.0251952 6.5537 0.374874 7.46459 0.931225 7.66503C1.48758 7.86547 2.04393 8.06591 2.60028 8.26635C3.15663 8.46679 3.57693 8.48291 4.13732 8.50439C5.53427 8.73705 6.79516 8.78539 8.19616 8.83909ZM336.158 15.6799C337.839 15.7443 339.66 15.8142 341.341 15.8786C341.469 16.4209 341.742 16.7895 342.014 17.1582C341.313 17.1313 340.609 17.2834 340.048 17.2619C338.787 17.2136 337.522 17.3442 336.261 17.2959C330.653 17.26 325.181 17.4085 319.573 17.3726C317.048 17.4549 314.522 17.5372 312 17.4405C308.077 17.2901 304.01 17.3133 300.088 17.1629C290.977 16.9928 282.007 16.828 272.896 16.6579C255.236 16.3391 237.715 16.0257 220.054 15.7069C207.442 15.4025 194.82 15.456 182.199 15.5095C163.27 15.5003 144.204 15.3067 125.275 15.2975C121.488 15.3315 117.701 15.3654 113.91 15.5783C103.107 15.8806 92.3068 16.0039 81.503 16.3062C70.9793 16.6192 60.3197 16.7479 49.796 17.061C48.8153 17.0234 47.8306 17.1647 46.8499 17.1271C49.66 16.8766 52.6061 16.8105 55.4162 16.56C65.3835 16.0465 75.3548 15.3541 85.322 14.8406C88.8326 14.617 92.3432 14.3933 95.7137 14.1643C97.539 14.0552 99.3643 13.946 101.046 14.0105C111.569 13.6975 121.957 13.2001 132.34 12.8817C134.306 12.7779 136.411 12.6795 138.377 12.5758C141.323 12.5096 144.269 12.4434 147.071 12.5508C157.731 12.4221 168.39 12.2934 179.05 12.1647C181.436 12.0771 183.817 12.1684 186.063 12.0754C186.623 12.0968 187.324 12.1237 187.884 12.1452C189.565 12.2096 191.247 12.2741 192.792 12.1542C203.447 12.2045 214.239 12.439 224.895 12.4893C229.802 12.4983 234.71 12.5073 239.613 12.6953C255.448 13.1232 271.424 13.5565 287.259 13.9845C303.791 14.6182 320.046 15.0623 336.158 15.6799Z" fill="#2C8C7D"/>
</svg>
