<svg width="29" height="42" viewBox="0 0 29 42" fill="none" xmlns="http://www.w3.org/2000/svg">
<path d="M28.4763 17.3428C25.759 17.3504 23.1085 16.2386 20.8994 14.1644V28.6248C20.8987 31.303 20.2743 33.917 19.1095 36.1173C17.9447 38.3177 16.2951 39.9994 14.3814 40.9376C12.4676 41.8759 10.381 42.0258 8.40042 41.3675C6.41989 40.7091 4.63993 39.2739 3.29859 37.2536C1.95725 35.2334 1.11849 32.7245 0.894473 30.0625C0.67046 27.4005 1.07188 24.7123 2.04504 22.3575C3.0182 20.0026 4.51671 18.0934 6.34016 16.885C8.16361 15.6767 10.2251 15.227 12.2488 15.5959V22.8665C11.3234 22.4847 10.3297 22.4959 9.40947 22.8985C8.48924 23.301 7.68957 24.0744 7.12465 25.1081C6.55974 26.1419 6.25845 27.3832 6.26381 28.6547C6.26917 29.9263 6.58091 31.1631 7.15452 32.1886C7.72812 33.2142 8.53426 33.9759 9.45783 34.3651C10.3814 34.7543 11.3752 34.7511 12.2973 34.3559C13.2193 33.9607 14.0226 33.1937 14.5923 32.1645C15.162 31.1353 15.4691 29.8964 15.4696 28.6248V0.367188H20.8994C20.8963 0.969109 20.9356 1.57012 21.0166 2.16261C21.2054 3.48329 21.5978 4.73964 22.1696 5.85486C22.7414 6.97008 23.4807 7.92075 24.3423 8.64876C25.5688 9.71052 27.0065 10.2759 28.4763 10.2743V17.3428Z" fill="#2C8C7D"/>
</svg>
