<svg width="469" height="30" viewBox="0 0 469 30" fill="none" xmlns="http://www.w3.org/2000/svg">
<path d="M468.249 11.866C465.879 11.4694 463.699 11.3703 461.321 11.2621C458.943 11.154 456.771 10.7664 454.401 10.3698C449.264 9.55849 444.333 8.46775 439.196 7.65648C429.516 6.06097 419.639 4.45646 409.936 3.72641C401.034 2.74392 391.926 2.04091 383.008 1.6354C380.63 1.52726 378.252 1.41912 376.072 1.31999C367.146 1.20296 358.229 0.797446 349.303 0.680415C328.472 0.599666 307.443 0.509905 286.596 1.00613C266.146 1.52037 245.695 2.03461 225.436 2.84636C215.504 3.26124 205.374 3.66711 195.442 4.08199C184.504 5.02879 173.581 5.39861 162.849 6.06593C140.386 7.644 118.129 8.9426 95.6661 10.5207C76.1834 11.9454 56.8757 14.2446 37.5448 17.4093C25.1809 19.7355 12.611 22.3411 0.239253 24.9557C14.2707 27.038 28.5236 28.2638 42.7842 29.2011C52.0982 29.6246 61.42 29.7597 70.5436 29.8857C76.4965 29.8676 82.4571 29.5609 88.6159 29.2633C92.3889 29.146 95.9714 28.7313 99.554 28.3165C109.303 27.3157 119.243 26.6123 128.992 25.6114C140.326 24.6827 151.47 23.4564 162.804 22.5276C174.337 21.6079 186.068 20.6971 197.601 19.7773C207.936 19.092 218.47 18.4157 229.004 17.7393C239.142 17.045 249.47 16.6481 259.6 16.2422C269.928 15.8454 280.058 15.4395 290.386 15.0427C300.913 14.6548 311.225 14.8349 321.744 14.7356C340.799 14.4467 359.831 15.0233 379.062 15.609C389.763 16.0956 400.281 15.9962 410.998 15.9059C421.517 15.8065 432.035 15.7071 442.363 15.3103C446.533 15.211 450.9 15.1208 455.077 14.7331C457.067 14.5347 459.254 14.3454 461.252 13.8585C463.051 13.3626 464.857 12.5783 466.649 12.3709C467.251 12.1094 467.655 11.839 468.249 11.866Z" fill="#2C8C7D"/>
</svg>
