<svg width="306" height="42" viewBox="0 0 306 42" fill="none" xmlns="http://www.w3.org/2000/svg">
<path d="M292.819 6.73184C291.677 6.92456 290.65 6.92456 289.508 7.11728C288.024 7.31 286.54 7.69544 284.941 7.88816C282.43 8.2736 279.918 9.04448 277.52 10.0081C274.894 11.1644 272.383 12.7062 269.985 14.8261C269.528 15.2115 269.072 15.7897 268.501 15.9824C267.93 16.3678 267.473 16.7533 266.903 17.1387C266.103 17.7169 265.418 18.1023 264.619 18.4878C263.706 18.8732 262.792 19.2586 261.879 19.4514C261.08 19.6441 260.281 19.6441 259.482 19.6441C258.682 19.6441 257.997 19.4514 257.198 19.4514C256.171 19.2586 255.143 18.8732 254.116 18.295C253.088 17.7169 252.06 17.1387 251.033 16.3678C249.32 15.0188 247.608 13.477 245.895 11.9353C245.096 11.1644 244.411 10.3935 243.612 9.42992C242.698 8.46632 241.785 7.50272 240.872 6.53912C240.187 5.76823 239.388 5.19007 238.588 4.61191C238.132 4.22647 237.561 4.03375 236.99 3.84103C236.419 3.64831 235.962 3.64831 235.392 3.45559C235.049 3.45559 234.707 3.45559 234.478 3.64831C234.022 3.84103 233.565 4.03375 233.108 4.22647C232.423 4.61191 231.738 5.19007 231.053 5.76823C229.683 6.92456 228.427 8.08088 227.057 9.2372C225.345 10.779 223.746 12.128 221.92 13.477C220.892 14.2479 219.75 14.8261 218.723 15.4042C217.239 16.1751 215.869 16.5606 214.384 16.946C213.014 17.3314 211.53 17.3314 210.16 17.5242C208.562 17.5242 206.963 17.3314 205.365 16.946C203.31 16.3678 201.369 15.7897 199.314 15.0188C197.487 14.2479 195.66 13.2843 193.948 12.128C192.235 10.779 190.523 9.42992 188.81 7.88816C186.869 6.15368 184.928 4.41919 182.873 3.26287C182.074 2.68471 181.275 2.49199 180.362 2.10655C179.448 1.72111 178.421 1.72111 177.393 1.72111C176.366 1.72111 175.452 2.10655 174.425 2.49199C173.397 2.87743 172.484 3.64831 171.57 4.41919C169.401 6.3464 167.46 8.85176 165.519 11.3571C164.378 12.8989 163.236 14.4406 162.094 15.9824C161.181 17.1387 160.153 18.4878 159.126 19.6441C158.098 20.8004 156.957 21.764 155.815 22.7276C155.244 23.113 154.787 23.4985 154.217 23.6912C153.532 24.0766 152.732 24.2694 152.047 24.4621C151.705 24.4621 151.477 24.4621 151.134 24.4621C150.906 24.4621 150.677 24.4621 150.449 24.4621C149.878 24.2694 149.307 23.8839 148.736 23.4985C146.681 21.764 144.74 19.6441 142.914 17.3314C142 16.1751 141.201 15.0188 140.402 13.6698C139.831 12.7062 139.26 11.9353 138.689 10.9717C137.205 8.65904 135.835 5.96096 134.237 3.84103C133.552 3.07015 132.867 2.29927 132.068 1.52839C131.611 1.14295 131.154 0.950231 130.698 0.757511C130.583 0.757511 130.355 0.56479 130.241 0.56479C129.898 0.56479 129.556 0.37207 129.327 0.37207C129.213 0.37207 128.985 0.37207 128.871 0.37207H128.757C128.528 0.37207 128.186 0.37207 127.957 0.56479C127.387 0.757511 126.93 0.950231 126.359 1.14295C125.332 1.72111 124.304 2.29927 123.276 3.07015C122.477 3.64831 121.678 4.22647 120.879 4.99735C120.308 5.38279 119.737 5.96096 119.166 6.3464C118.253 7.11728 117.454 7.88816 116.54 8.65904C116.084 9.04448 115.627 9.42992 115.285 9.81536C114.485 10.5862 113.686 11.5498 113.001 12.3207C112.43 12.8989 111.859 13.477 111.289 14.2479C109.804 15.7897 108.434 17.5242 106.95 19.0659C103.868 22.5349 100.671 26.0039 97.2457 28.5092C96.4465 29.0874 95.7615 29.4728 94.9623 30.051C94.0489 30.6291 93.0214 31.0146 91.9938 31.2073C91.5372 31.2073 91.1947 31.4 90.738 31.4C90.053 31.4 89.4821 31.4 88.7971 31.2073C87.8837 31.0146 86.9704 30.6291 86.1712 30.051C85.2578 29.2801 84.3444 28.3165 83.5452 27.3529C82.1752 25.6184 81.0335 23.4985 79.8918 21.3786C79.321 20.415 78.7501 19.2586 78.1793 18.295C77.4942 17.1387 76.695 15.9824 76.01 14.8261C75.325 13.8625 74.7541 13.0916 73.955 12.5134C73.2699 12.8989 72.8133 12.5134 72.3566 12.3207C71.8999 12.128 71.4432 11.9353 70.9865 11.9353C70.644 11.9353 70.4157 11.9353 70.0732 12.128C69.6165 12.3207 69.274 12.5134 68.8173 12.8989C68.4748 13.2843 68.0181 13.6698 67.6756 14.0552C67.3331 14.6334 66.9906 15.2115 66.7622 15.7897C66.1914 16.946 65.6205 18.1023 65.1639 19.2586C64.7072 20.2222 64.2505 20.9931 63.908 21.9567C63.4513 22.9203 62.8804 24.0767 62.4238 25.0403C61.3962 27.1602 60.2545 28.8947 58.9987 30.6291C58.0853 31.7855 57.0578 32.7491 56.0302 33.7127C55.0027 34.2908 54.0893 34.6763 53.0618 35.0617C51.5776 35.2544 50.2076 35.2544 48.7233 35.0617C46.4399 34.4835 44.2707 33.3272 42.1015 31.7855C40.1606 30.2437 38.3339 28.7019 36.5071 26.7747C35.5938 25.8111 34.6804 24.8475 33.7671 23.6912C32.8537 22.7276 31.9403 21.5713 31.027 20.6077C30.1136 19.4514 29.2002 18.4878 28.2869 17.5242C27.3735 16.5606 26.346 15.597 25.3185 14.8261C23.3776 13.2843 21.3225 12.3207 19.2674 12.5134C18.8108 12.5134 18.2399 12.7062 17.7832 12.7062C17.2124 12.8989 16.7557 13.0916 16.299 13.2843C15.8423 13.477 15.3857 13.8625 15.0431 14.0552C14.5865 14.4406 14.1298 14.8261 13.6731 15.0188C11.2755 16.3678 9.33463 18.295 7.50791 20.415C5.90953 22.3422 4.31114 24.4621 2.9411 26.9675C2.25608 28.1238 1.68523 29.2801 1.11438 30.4364C0.886038 31.0146 0.657698 31.5927 0.543527 32.3636C0.543527 32.5563 0.429357 32.9418 0.429357 33.1345C0.315187 33.7127 0.315187 34.2908 0.201017 34.869C0.0868468 35.6399 0.201017 36.4107 0.543527 36.9889C0.886038 37.3743 1.34272 37.5671 1.7994 37.3743C2.14191 37.1816 2.37025 36.9889 2.71276 36.9889C3.16944 36.7962 3.51195 36.4107 3.96863 36.0253C4.53948 35.4471 4.76782 34.0981 4.42531 33.1345C4.19697 32.5563 3.96863 32.3636 3.62612 32.1709C4.76782 30.051 6.0237 28.1238 7.27957 26.1966C9.4488 23.4985 11.7322 21.3786 14.1298 19.4514C14.7006 19.0659 15.2715 18.6805 15.8423 18.295C16.5274 18.1023 17.3265 17.7169 18.0116 17.5242C18.6966 17.3314 19.2674 17.3314 19.9525 17.5242C20.4091 17.7169 20.7516 17.7169 21.2083 17.9096C21.8934 18.295 22.4642 18.6805 23.0351 19.0659C24.1768 20.0295 25.3185 20.9931 26.346 22.1494C27.6019 23.4985 28.7436 25.0403 29.9994 26.582C31.1411 27.9311 32.397 29.4728 33.6529 30.8219C34.9088 32.1709 36.1646 33.5199 37.4205 34.6763C39.9322 36.9889 42.5582 38.9161 45.1841 40.2651C47.9242 41.6142 50.8926 42.1923 53.861 41.4215C55.231 41.036 56.4869 40.4579 57.7428 39.687C58.9987 38.7234 60.1404 37.7598 61.1679 36.4107C62.3096 35.0617 63.3371 33.3272 64.3647 31.5927C64.9355 30.6291 65.3922 29.6655 65.8489 28.7019C66.5339 27.1602 67.2189 25.8111 67.9039 24.2694C68.7031 22.5349 69.5023 20.6077 70.5298 18.8732C70.644 18.8732 70.644 18.6805 70.7582 18.6805C70.8724 18.6805 70.9865 18.4878 71.1007 18.4878H71.2149C71.4432 18.4878 71.5574 18.6805 71.7857 18.6805C72.2424 19.0659 72.6991 19.4514 73.1558 20.0295C74.4116 21.5713 75.4392 23.4985 76.4667 25.4257C77.8367 27.7383 79.2068 30.2437 80.691 32.3636C81.376 33.3272 82.061 34.0981 82.7461 34.869C83.5453 35.8326 84.4586 36.4107 85.372 36.9889C86.1712 37.5671 87.0845 37.7598 87.9979 38.1452C89.0254 38.3379 90.1671 38.5307 91.1946 38.3379C92.108 38.3379 93.0214 37.9525 93.8206 37.7598C94.8481 37.3743 95.8756 36.7962 96.9032 36.218C98.844 35.0617 100.671 33.5199 102.383 31.9782C105.009 29.6655 107.407 26.7747 109.804 24.0767C110.946 22.7276 112.088 21.3786 113.344 20.0295C114.714 18.4878 116.084 17.1387 117.454 15.597C117.568 15.4042 117.796 15.2115 117.91 15.2115C118.367 14.8261 118.824 14.4406 119.281 13.8625C119.966 13.2843 120.651 12.5134 121.45 11.9353C121.564 11.7426 121.792 11.7426 121.906 11.5498C122.363 11.1644 122.934 10.779 123.391 10.3935C124.19 9.81536 125.103 9.04448 125.902 8.46632C126.702 7.88816 127.615 7.50272 128.528 7.11728C128.757 7.11728 128.871 7.11728 129.099 7.11728C129.213 7.11728 129.442 7.11728 129.556 7.11728C129.898 7.31 130.241 7.50272 130.698 7.69544C131.268 8.2736 131.839 8.85176 132.41 9.62264C134.123 12.128 135.607 14.8261 137.205 17.3314C138.233 18.8732 139.26 20.415 140.288 21.9567C141.315 23.3058 142.343 24.4621 143.37 25.8111C144.512 27.1602 145.654 28.1238 146.796 29.2801C147.823 30.2437 149.079 30.8219 150.221 31.2073C150.791 31.4 151.248 31.4 151.819 31.2073C152.504 31.2073 153.189 31.0146 153.874 30.6291C155.016 30.2437 156.157 29.6655 157.185 28.8947C158.441 27.9311 159.583 26.9675 160.724 25.8111C162.323 24.0767 163.693 22.1494 165.177 20.2222C165.976 19.0659 166.889 17.9096 167.689 16.7533C168.374 15.7897 169.059 15.0188 169.744 14.0552C171.228 12.128 172.712 10.5862 174.425 9.2372C175.224 8.65904 176.023 8.2736 176.936 8.08088C177.393 8.08088 177.736 7.88816 178.192 7.88816C178.535 7.88816 178.877 7.88816 179.334 8.08088C180.704 8.46632 181.96 9.04448 183.216 9.81536C184.243 10.5862 185.385 11.5498 186.413 12.3207C187.098 12.8989 187.668 13.477 188.353 14.0552C188.924 14.6334 189.609 15.2115 190.294 15.7897C191.55 16.7533 192.806 17.7169 194.062 18.6805C195.432 19.6441 196.802 20.2222 198.172 20.8004C201.141 22.1494 204.109 22.9203 207.077 23.4985C208.562 23.8839 210.16 23.8839 211.644 23.8839C213.128 23.8839 214.613 23.4985 216.097 23.113C218.723 22.5349 221.349 21.1858 223.86 19.4514C225.459 18.295 226.943 16.946 228.541 15.597C230.368 14.0552 232.195 12.3207 234.136 10.779C234.478 10.5862 234.935 10.3935 235.277 10.2008C235.506 10.2008 235.734 10.2008 235.962 10.2008C236.533 10.3935 236.99 10.5862 237.561 10.9717C239.273 12.3207 240.758 14.2479 242.356 15.9824C243.954 17.9096 245.667 19.4514 247.379 20.9931C249.092 22.5349 250.919 23.6912 252.745 24.8475C254.801 26.0039 256.97 26.582 259.139 26.7747C261.08 26.9675 263.021 26.582 264.848 25.8111C266.446 25.233 268.044 24.0767 269.528 22.9203C270.213 22.3422 270.784 21.9567 271.469 21.3786C271.926 20.9931 272.269 20.6077 272.725 20.2222C273.296 19.6441 273.981 19.2586 274.552 18.6805C277.635 16.5606 280.831 15.4042 284.142 14.6334C285.855 14.2479 287.682 14.0552 289.508 13.6698C290.992 13.477 292.591 13.2843 294.075 13.0916C297.158 12.7062 300.354 12.3207 303.437 12.5134C304.693 12.5134 305.606 10.779 305.606 8.85176C305.606 6.92456 304.579 5.19007 303.437 5.19007C301.039 5.19007 298.642 5.57551 296.358 5.76823C295.103 6.3464 293.961 6.53912 292.819 6.73184ZM234.935 10.3935C235.049 10.3935 235.049 10.3935 235.163 10.3935C235.049 10.3935 234.935 10.3935 234.935 10.3935Z" fill="#2C8C7D"/>
</svg>
