<svg width="92" height="100" viewBox="0 0 92 100" fill="none" xmlns="http://www.w3.org/2000/svg">
<path d="M87.3575 29.6766C88.0066 31.2008 88.5259 32.4201 89.0453 33.7919C92.4208 42.4797 92.8103 53.4538 90.2786 63.5134C89.0453 68.3908 87.3575 72.2012 85.4749 75.5544C81.1256 83.1754 76.257 88.2052 71.0638 91.4059C54.5753 101.618 37.9571 102.075 21.2739 94.3019C16.8597 92.3204 12.5753 89.1197 8.55052 83.9374C6.34341 81.0415 4.33104 77.6883 2.83799 72.8109C0.306305 64.8852 0.0466449 56.5022 1.92918 47.6619C3.16257 41.7176 5.11002 37.1451 7.31714 33.0298C11.212 25.7137 15.4964 20.2267 20.1054 15.959C36.7886 -0.0449496 53.9911 -3.09331 71.5831 4.98485C76.3868 7.1187 80.9309 10.9292 85.0854 17.3307C85.9293 18.7025 86.7732 20.0742 87.5522 21.7508C89.1102 24.9516 89.0453 26.0186 87.3575 29.6766ZM71.7129 13.063C71.7129 12.9106 71.7129 12.7582 71.7129 12.4533C70.6743 11.9961 69.7006 11.3864 68.6619 10.9292C54.835 5.4421 41.2028 7.1187 27.7654 16.721C21.923 20.8363 16.2754 26.4758 11.277 34.8588C9.39442 38.0596 7.51188 41.5652 6.01883 45.6805C2.57833 55.2828 2.96782 65.0376 7.18731 72.8109C9.00493 76.1641 11.1471 78.7552 13.2893 81.0415C17.8983 85.7665 22.7669 88.0527 27.7005 89.7293C39.515 93.5398 51.3296 93.235 63.0792 88.51C69.376 85.9189 75.478 81.6512 81.0607 73.8779C83.3327 70.6771 85.4749 67.019 87.0329 61.9892C89.6944 53.6062 89.4347 44.766 86.2539 37.4499C85.2802 35.1636 84.1766 33.1822 83.0082 31.3532C77.5553 22.9702 71.5182 19.4646 65.0916 19.7694C63.7284 19.7694 62.3002 20.0742 60.937 20.2267C60.0931 20.2267 59.3791 19.4646 59.3141 17.3307C59.2492 15.5017 59.8335 14.2824 60.6124 14.1299C61.9757 13.6727 63.3389 12.9106 64.7021 12.7582C67.039 12.6058 69.376 12.9106 71.7129 13.063Z" fill="#2C8C7D"/>
</svg>
