<svg width="92" height="100" viewBox="0 0 92 100" fill="none" xmlns="http://www.w3.org/2000/svg">
<path d="M86.9395 29.286C87.5886 30.8101 88.108 32.0295 88.6273 33.4013C92.0029 42.0891 92.3924 53.0632 89.8607 63.1228C88.6273 68.0002 86.9395 71.8106 85.057 75.1638C80.7076 82.7847 75.839 87.8145 70.6458 91.0153C54.1574 101.227 37.5391 101.685 20.8559 93.9113C16.4417 91.9298 12.1573 88.729 8.13256 83.5468C5.92544 80.6509 3.91307 77.2977 2.42003 72.4203C-0.111663 64.4946 -0.371324 56.1116 1.51121 47.2713C2.7446 41.327 4.69205 36.7545 6.89917 32.6392C10.7941 25.3231 15.0785 19.836 19.6874 15.5683C36.3706 -0.435575 53.5731 -3.48394 71.1651 4.59422C75.9688 6.72808 80.5129 10.5385 84.6675 16.9401C85.5114 18.3119 86.3553 19.6836 87.1342 21.3602C88.6922 24.561 88.6273 25.6279 86.9395 29.286ZM71.295 12.6724C71.295 12.52 71.295 12.3675 71.295 12.0627C70.2563 11.6055 69.2826 10.9958 68.2439 10.5385C54.417 5.05148 40.7849 6.72808 27.3474 16.3304C21.5051 20.4457 15.8575 26.0852 10.859 34.4682C8.97645 37.669 7.09391 41.1746 5.60087 45.2899C2.16037 54.8922 2.54986 64.647 6.76934 72.4203C8.58696 75.7735 10.7292 78.3646 12.8714 80.6509C17.4803 85.3758 22.349 87.6621 27.2825 89.3387C39.0971 93.1492 50.9116 92.8443 62.6612 88.1194C68.958 85.5283 75.06 81.2606 80.6427 73.4872C82.9148 70.2864 85.057 66.6284 86.6149 61.5986C89.2764 53.2156 89.0168 44.3754 85.8359 37.0593C84.8622 34.773 83.7587 32.7916 82.5902 30.9626C77.1373 22.5796 71.1002 19.0739 64.6736 19.3788C63.3104 19.3788 61.8823 19.6836 60.5191 19.836C59.6752 19.836 58.9611 19.0739 58.8962 16.9401C58.8313 15.1111 59.4155 13.8917 60.1945 13.7393C61.5577 13.2821 62.9209 12.52 64.2841 12.3675C66.6211 12.2151 68.958 12.52 71.295 12.6724Z" fill="#2C8C7D"/>
</svg>
