<svg width="66" height="100" viewBox="0 0 66 100" fill="none" xmlns="http://www.w3.org/2000/svg">
<path d="M62.6996 29.6766C63.1693 31.2008 63.545 32.4201 63.9208 33.7919C66.3631 42.4797 66.6449 53.4538 64.8132 63.5134C63.9208 68.3908 62.6996 72.2012 61.3375 75.5544C58.1907 83.1754 54.6681 88.2052 50.9107 91.4059C38.9808 101.618 26.9571 102.075 14.8863 94.3019C11.6925 92.3204 8.59264 89.1197 5.68063 83.9374C4.08373 81.0415 2.62772 77.6883 1.54746 72.8109C-0.284284 64.8852 -0.472155 56.5022 0.889913 47.6619C1.7823 41.7176 3.19134 37.1451 4.78824 33.0298C7.60632 25.7137 10.7062 20.2267 14.0409 15.959C26.1116 -0.0449496 38.5581 -3.09331 51.2864 4.98485C54.762 7.1187 58.0498 10.9292 61.0557 17.3307C61.6663 18.7025 62.2769 20.0742 62.8405 21.7508C63.9677 24.9516 63.9208 26.0186 62.6996 29.6766ZM51.3804 13.063C51.3804 12.9106 51.3804 12.7582 51.3804 12.4533C50.6289 11.9961 49.9243 11.3864 49.1729 10.9292C39.1687 5.4421 29.3055 7.1187 19.5831 16.721C15.356 20.8363 11.2698 26.4758 7.65328 34.8588C6.29122 38.0596 4.92915 41.5652 3.84889 45.6805C1.35959 55.2828 1.6414 65.0376 4.69431 72.8109C6.00941 76.1641 7.55935 78.7552 9.10929 81.0415C12.444 85.7665 15.9666 88.0527 19.5361 89.7293C28.0843 93.5398 36.6324 93.235 45.1336 88.51C49.6895 85.9189 54.1045 81.6512 58.1437 73.8779C59.7876 70.6771 61.3375 67.019 62.4648 61.9892C64.3904 53.6062 64.2026 44.766 61.9012 37.4499C61.1966 35.1636 60.3982 33.1822 59.5528 31.3532C55.6075 22.9702 51.2394 19.4646 46.5896 19.7694C45.6033 19.7694 44.57 20.0742 43.5837 20.2267C42.9731 20.2267 42.4565 19.4646 42.4095 17.3307C42.3625 15.5017 42.7852 14.2824 43.3489 14.1299C44.3352 13.6727 45.3215 12.9106 46.3078 12.7582C47.9987 12.6058 49.6895 12.9106 51.3804 13.063Z" fill="#2C8C7D"/>
</svg>
