<svg width="92" height="100" viewBox="0 0 92 100" fill="none" xmlns="http://www.w3.org/2000/svg">
<path d="M87.2989 29.6766C87.948 31.2008 88.4673 32.4201 88.9867 33.7919C92.3623 42.4797 92.7517 53.4538 90.22 63.5134C88.9867 68.3908 87.2989 72.2012 85.4163 75.5544C81.067 83.1754 76.1984 88.2052 71.0052 91.4059C54.5167 101.618 37.8985 102.075 21.2153 94.3019C16.8011 92.3204 12.5167 89.1197 8.49193 83.9374C6.28482 81.0415 4.27245 77.6883 2.7794 72.8109C0.247712 64.8852 -0.0119489 56.5022 1.87059 47.6619C3.10398 41.7176 5.05143 37.1451 7.25854 33.0298C11.1534 25.7137 15.4378 20.2267 20.0468 15.959C36.73 -0.0449496 53.9325 -3.09331 71.5245 4.98485C76.3282 7.1187 80.8723 10.9292 85.0268 17.3307C85.8707 18.7025 86.7146 20.0742 87.4936 21.7508C89.0516 24.9516 88.9867 26.0186 87.2989 29.6766ZM71.6543 13.063C71.6543 12.9106 71.6543 12.7582 71.6543 12.4533C70.6157 11.9961 69.642 11.3864 68.6033 10.9292C54.7764 5.4421 41.1442 7.1187 27.7068 16.721C21.8644 20.8363 16.2168 26.4758 11.2184 34.8588C9.33583 38.0596 7.45329 41.5652 5.96024 45.6805C2.51974 55.2828 2.90923 65.0376 7.12871 72.8109C8.94634 76.1641 11.0885 78.7552 13.2307 81.0415C17.8397 85.7665 22.7083 88.0527 27.6419 89.7293C39.4564 93.5398 51.271 93.235 63.0206 88.51C69.3174 85.9189 75.4194 81.6512 81.0021 73.8779C83.2741 70.6771 85.4163 67.019 86.9743 61.9892C89.6358 53.6062 89.3762 44.766 86.1953 37.4499C85.2216 35.1636 84.118 33.1822 82.9496 31.3532C77.4967 22.9702 71.4596 19.4646 65.033 19.7694C63.6698 19.7694 62.2416 20.0742 60.8784 20.2267C60.0345 20.2267 59.3205 19.4646 59.2555 17.3307C59.1906 15.5017 59.7749 14.2824 60.5539 14.1299C61.9171 13.6727 63.2803 12.9106 64.6435 12.7582C66.9804 12.6058 69.3174 12.9106 71.6543 13.063Z" fill="#2C8C7D"/>
</svg>
