<svg width="92" height="100" viewBox="0 0 92 100" fill="none" xmlns="http://www.w3.org/2000/svg">
<path d="M39.204 10.6301C40.895 10.7447 42.5859 10.9741 44.1879 11.0888C53.6216 11.8917 62.5214 14.9885 70.6202 21.2967C79.1639 27.8344 85.7497 36.7806 89.4876 48.8237C93.8485 62.7018 91.8016 74.6302 83.2578 84.8381C82.3678 85.8703 81.3889 86.9026 80.4099 87.9348C74.625 93.5549 67.9502 96.8811 60.8304 98.2574C49.0827 100.551 37.6021 98.9456 26.4774 93.3255C19.7135 89.8847 13.9287 84.8381 9.56781 77.1535C2.09202 63.9635 1.20204 49.9706 7.34287 35.519C9.56781 30.243 12.5047 25.5405 15.8866 21.4114C16.5096 20.6086 17.2216 19.8057 17.6666 18.4293C17.0436 18.4293 16.4206 18.3147 15.8866 18.544C12.2377 20.1498 8.49984 21.7555 4.93994 23.5906C2.27001 24.967 1.29104 25.0817 0.668055 23.476C0.13407 21.8702 0.757053 20.6086 3.15999 18.8881C7.60987 15.4473 12.5937 13.7268 17.6666 12.5799C19.2685 12.2358 20.8705 11.8917 22.4725 11.6623C25.0534 11.3182 27.3673 10.4007 29.7703 8.90962C40.984 1.91319 52.7316 -0.954197 65.1023 0.766236C69.9972 1.45441 74.714 3.28954 78.9859 6.8451C79.7869 7.53327 80.6769 8.22145 81.1219 9.25371C81.4779 10.0566 81.3889 11.4329 80.9439 12.1211C80.6769 12.5799 79.6089 12.5799 78.8969 12.4652C78.5409 12.4652 78.2739 12.0064 77.918 11.777C73.8241 8.10675 69.1072 6.50101 64.3013 5.92753C56.2915 5.00997 48.3708 6.15693 40.717 9.13901C40.272 9.2537 39.827 9.59779 39.382 9.82718C39.382 9.82718 39.382 10.0566 39.204 10.6301ZM52.5536 93.899C54.5116 93.6696 58.1605 93.4402 61.8094 92.5227C69.8192 90.5728 76.939 86.3291 82.5458 78.3004C86.4617 72.6803 88.3307 66.1427 87.3517 58.4581C86.2837 50.5441 83.4358 43.6624 79.4309 37.6982C73.2901 28.4079 65.3693 22.5584 56.2915 19.2322C47.3918 15.906 38.314 15.906 29.1473 16.3648C28.2573 16.3648 27.2783 16.9383 26.4774 17.5118C19.2686 23.4759 13.4837 31.0459 9.83481 41.0244C6.63089 49.8559 6.5419 58.8022 9.83481 67.519C13.3947 76.9241 19.1796 83.347 26.5664 87.4761C34.3091 91.7198 42.4079 93.5549 52.5536 93.899Z" fill="#2C8C7D"/>
</svg>
