<svg width="49" height="29" viewBox="0 0 49 29" fill="none" xmlns="http://www.w3.org/2000/svg">
<path d="M33.8788 27.2388C34.1782 25.9448 34.0602 24.751 33.5644 23.8692C33.1154 23.0566 32.352 22.5849 31.4313 22.5252L13.9753 22.2441C13.8649 22.2441 13.7621 22.1747 13.7077 22.0534C13.6533 21.9437 13.6367 21.8031 13.6608 21.6529C13.7243 21.4431 13.8891 21.2813 14.0781 21.2621L31.6838 20.9713C33.77 20.8404 36.0376 18.6954 36.8328 16.0575L37.832 12.7187C37.8789 12.5685 37.8955 12.4279 37.8638 12.2874C36.73 5.74841 32.1555 0.875 26.6754 0.875C21.6277 0.875 17.3525 5.02635 15.8181 10.7836C14.8264 9.85162 13.5656 9.33944 12.2035 9.51081C9.7787 9.81119 7.83309 12.2893 7.59726 15.3778C7.54284 16.1691 7.58214 16.9528 7.72273 17.6652C3.76198 17.8154 0.605469 21.9379 0.605469 27.0116C0.605469 27.4525 0.637215 27.905 0.67652 28.3652C0.708267 28.5751 0.85037 28.7368 1.01515 28.7368H33.2258C33.4147 28.7368 33.5795 28.577 33.643 28.3459L33.8788 27.2388ZM39.439 12.9594C39.2818 12.9594 39.1155 12.9594 38.9583 12.9902C38.8404 12.9902 38.7451 13.0999 38.6983 13.2405L38.021 16.2596C37.7217 17.5536 37.832 18.7474 38.3354 19.6389C38.7844 20.4514 39.5554 20.9116 40.4776 20.9732L44.1859 21.264C44.3038 21.264 44.399 21.3237 44.461 21.445C44.5154 21.5547 44.5245 21.7165 44.5003 21.8359C44.4459 22.0573 44.272 22.2267 44.0906 22.2364L40.216 22.5271C38.1132 22.6484 35.8622 24.803 35.0671 27.4409L34.7919 28.3633C34.7284 28.5443 34.8312 28.7252 34.9885 28.7252H48.2872C48.4369 28.7252 48.579 28.5943 48.6258 28.4037C48.8541 27.3504 48.9796 26.2471 48.9796 25.115C48.9796 18.4354 44.6968 12.9805 39.436 12.9805L39.439 12.9594Z" fill="white"/>
</svg>
