<svg width="230" height="221" viewBox="0 0 230 221" fill="none" xmlns="http://www.w3.org/2000/svg">
<path d="M25.4483 54.8715C24.3284 60.3504 23.0686 65.0988 22.3687 70.0299C17.8893 103.817 26.0082 132.307 43.9257 156.597C53.4444 169.564 65.0628 178.147 78.7809 181.435C91.7991 184.539 104.117 181.983 115.456 173.034C135.193 157.327 141.912 125.002 130.994 98.5203C126.094 86.6493 118.955 77.1525 110.837 69.1167C91.2392 49.9405 69.2622 40.8089 44.6256 42.0874C43.0858 42.0874 41.686 42.0874 39.5863 42.0874C40.4262 40.4437 40.8461 39.1652 41.546 38.0695C51.0647 23.6416 63.383 15.058 77.5211 11.7707C116.856 2.63911 150.311 17.2496 176.907 56.3326C191.465 77.7004 199.164 103.269 198.045 132.49C197.205 153.675 193.565 174.129 187.266 193.671C186.706 195.497 186.006 197.141 185.306 198.967C185.026 199.698 184.606 200.246 183.906 201.341C183.347 199.88 182.787 198.785 182.647 197.689C181.387 190.384 180.407 183.261 179.147 175.956C178.867 173.947 178.447 171.755 177.607 169.929C177.187 168.833 175.508 167.555 174.808 167.92C173.828 168.285 172.988 170.112 172.288 171.39C172.008 171.938 172.288 172.851 172.428 173.582C174.528 186.914 176.767 200.246 179.007 213.578C180.127 220.335 182.227 221.613 186.986 218.691C188.106 217.961 189.086 217.413 190.206 216.5C199.864 208.281 209.523 200.063 218.902 191.662C221.841 189.105 224.501 185.818 227.021 182.53C228.14 181.069 229.12 179.06 229.54 177.052C229.82 175.956 229.26 173.764 228.42 173.034C227.721 172.303 226.321 172.851 225.201 172.851C224.781 172.851 224.501 173.399 224.221 173.947C216.942 184.539 207.423 191.479 198.604 199.15C196.225 201.159 193.985 202.985 190.626 205.725C191.045 203.716 191.185 202.985 191.465 202.437C198.884 183.444 202.524 162.989 204.204 141.986C207.983 97.0592 194.125 61.2636 168.229 33.1384C147.091 10.3096 122.175 -0.100374 94.7387 0.630149C81.8605 0.995411 69.2623 4.28276 57.5039 11.9533C47.4252 18.528 38.8864 27.6595 32.5873 39.8958C30.7675 43.3658 28.6678 45.0095 25.5882 46.2879C19.5691 48.6621 13.5499 51.2189 8.09061 54.8715C1.82568 59.0632 -12.4669 65.4146 25.4483 54.8715ZM49.245 50.1231C67.1625 50.3058 83.8202 56.5152 98.9381 68.7515C108.317 76.2393 116.576 85.3708 122.875 97.2419C137.713 125.732 126.374 159.519 105.097 169.929C93.8988 175.408 82.5604 175.408 71.3619 169.746C49.9449 158.788 36.7867 137.969 30.2076 109.661C26.0082 91.7629 26.8481 73.8651 32.3073 56.5152C33.4272 52.8626 35.1069 51.2189 37.9065 51.0363C41.826 50.8536 45.4655 50.4884 49.245 50.1231Z" fill="#2C8C7D"/>
</svg>
