<svg width="49" height="42" viewBox="0 0 49 42" fill="none" xmlns="http://www.w3.org/2000/svg">
<path d="M26.0101 2.73598C26.3586 0.863077 27.7917 -0.282458 29.2093 0.177903C30.627 0.638264 31.494 2.53176 31.1455 4.40479L24.6744 38.811C24.3259 40.6841 22.8928 41.8295 21.4751 41.3691C20.0574 40.9087 19.1905 39.0152 19.5389 37.1422L26.0101 2.73598ZM14.8189 30.7401C15.9164 32.0092 16.0277 34.2145 15.0672 35.6645C14.1065 37.1144 12.4373 37.2616 11.3399 35.9924L1.2982 24.368C0.200801 23.0988 0.0894087 20.8935 1.05009 19.4437C1.13257 19.3192 1.22015 19.205 1.31152 19.1004L11.3399 7.49138C12.4373 6.22214 14.1065 6.36931 15.0672 7.81917C16.0277 9.26916 15.9164 11.4745 14.8189 12.7436L7.04593 21.7418L14.8189 30.7401ZM37.8272 35.9924C36.7298 37.2616 35.0606 37.1144 34.0999 35.6645C33.1393 34.2145 33.2507 32.0092 34.3482 30.7401L42.1212 21.7418L34.3482 12.7436C33.2507 11.4745 33.1393 9.26916 34.0999 7.81917C35.0606 6.36931 36.7298 6.22214 37.8272 7.49138L47.8556 19.1004C47.9486 19.2068 48.0359 19.3214 48.117 19.4437C49.0777 20.8935 48.9663 23.0988 47.8689 24.368L37.8272 35.9924Z" fill="white"/>
</svg>
