<svg width="529" height="163" viewBox="0 0 529 163" fill="none" xmlns="http://www.w3.org/2000/svg">
<path d="M331.422 147.397C380.954 144.494 418.775 141.009 456.073 131.354C469.553 127.957 482.697 122.516 495.599 117.094C501.328 114.585 506.722 110.033 511.375 105.242C519.291 97.2442 519.417 89.2513 511.753 81.2631C506.891 76.0173 501.085 71.4351 495.306 67.4422C480.001 57.3776 463.401 50.9603 446.827 45.1323C405.769 30.8292 363.535 22.8253 320.962 18.0998C272.526 12.9358 224.317 12.7811 175.874 18.2621C140.264 22.1698 104.773 28.7294 69.9008 38.1985C50.1797 43.5514 30.4719 49.1989 10.7508 54.5518C10.5082 54.5704 10.2656 54.589 10.0363 54.9022C4.98136 56.176 1.74765 54.6494 1.08957 50.856C-0.0537344 47.0997 2.26598 44.5567 7.5369 42.675C41.1432 32.1201 74.9921 21.5466 109.256 14.7852C146.176 7.52485 183.189 2.32713 220.617 0.941425C284.045 -1.54675 346.874 4.2898 409.159 19.6297C433.779 25.729 457.98 33.3388 481.384 44.8534C492.095 50.2429 502.388 57.1429 512.438 64.0615C516.708 66.9871 520.587 72.0125 523.724 76.7989C530.78 87.4948 530.624 100.221 523.057 110.557C518.7 116.509 513.09 121.669 507.184 125.669C493.498 135.291 478.374 139.996 463.222 144.112C414.116 156.445 364.65 160.821 314.782 161.68C294.592 162.043 274.402 162.405 254.186 162.178C228.12 161.807 201.799 161.16 175.68 159.611C151.03 158.244 126.583 155.976 102.083 152.528C88.3638 150.621 74.5516 146.652 61.2247 142.645C54.8104 140.771 48.5457 136.815 42.9956 132.509C30.8583 122.497 29.4523 107.525 38.8009 93.5045C44.2645 85.1032 51.5727 79.8131 59.3926 75.0752C76.6909 64.5855 95.1325 57.8521 113.87 52.2788C139.563 44.3992 165.672 40.3316 192.439 40.0574C199.002 39.8508 202.02 41.9853 201.977 46.4237C201.907 50.2729 199.076 52.2636 193.024 53.0224C177.281 54.8184 161.511 56.0252 145.808 58.7052C118.998 63.4178 92.8328 71.6293 68.1333 85.3464C62.4304 88.4439 57.0099 92.4068 52.1013 96.9219C40.9082 107.831 41.8322 117.518 54.5643 124.527C60.5598 127.912 67.0006 130.376 73.6574 132.232C94.1398 138.352 114.961 141.194 135.958 142.544C175.743 144.822 215.77 147.081 255.489 147.886C284.505 148.918 313.901 147.555 331.422 147.397Z" fill="#2C8C7D"/>
</svg>
