<svg width="160" height="218" viewBox="0 0 160 218" fill="none" xmlns="http://www.w3.org/2000/svg">
<path d="M51.4112 102.015C63.075 130.201 119.853 184.053 144.415 190.168C143.016 187.278 142.129 185.071 140.852 183.026C138.685 179.113 136.387 175.365 134.351 171.285C132.699 167.716 132.986 164.684 135.071 163.366C137.549 161.548 139.088 163.259 140.622 165.645C146.495 175.184 152.365 185.06 158.104 195.102C160.783 199.699 159.451 203.728 155.031 205.347C153.211 205.994 151.139 205.962 149.319 206.609C137.239 209.966 125.418 213.327 113.597 216.688C112.557 217.009 111.515 217.668 110.74 217.319C109.192 216.62 107.128 215.576 106.754 214.052C106.251 212.357 106.925 209.499 107.973 208.165C109.153 206.665 110.973 206.018 112.664 205.201C117.734 203.423 122.928 202.153 127.997 200.375C129.427 199.891 130.728 199.236 132.679 198.423C131.652 197.395 131.268 196.882 130.881 196.708C97.4953 177.804 70.2981 148.028 46.2561 113.239C42.6748 108.123 39.6178 102.339 37.2101 96.3969C34.2995 88.7598 30.3403 82.4563 25.5977 76.8156C16.3715 65.5382 9.10536 52.435 4.71384 36.6766C2.20265 27.8647 0.168974 18.9994 1.08959 9.90101C0.0609476 20.067 2.42539 -18.6147 9.37038 14.5259C11.2455 32.4704 17.4332 48.514 27.534 63.348C27.9457 60.8236 28.2201 59.1406 28.3634 57.6244C28.5037 56.4455 28.516 55.0959 28.5283 53.7464C29.7456 33.8564 38.4307 19.143 52.9952 13.2935C56.3757 11.9958 59.8842 10.8688 63.2555 10.5832C92.1676 8.49766 114.312 24.0232 129.837 54.9689C136.707 68.9095 137.605 84.108 130.603 99.016C125.978 108.899 118.803 114.356 110.356 117.094C102.69 119.507 94.9168 119.388 87.0282 117.748C76.4238 115.56 66.2309 110.847 56.4375 104.96C54.8921 103.924 53.3437 103.225 51.4112 102.015ZM115.274 46.4775C105.145 34.68 92.1422 25.5378 79.6022 22.4765C71.7167 20.4992 63.6848 20.3755 55.8812 23.6297C44.6942 28.5189 38.3839 38.5448 37.5966 53.886C37.2792 60.2924 38.2542 67.0561 39.2323 73.4825C39.726 76.1895 41.384 79.0833 42.9233 80.7942C58.465 95.7119 75.4763 105.759 94.8962 107.408C100.075 107.825 105.525 106.897 110.335 105.115C123.988 99.7577 129.839 83.3135 124.161 66.523C122.153 59.4059 118.321 53.2731 115.274 46.4775Z" fill="#2C8C7D"/>
</svg>
