<svg width="116" height="55" viewBox="0 0 116 55" fill="none" xmlns="http://www.w3.org/2000/svg">
<g clip-path="url(#clip0_2_135)">
<path d="M14.0028 38.4865L0.380558 1.05127H7.65963L16.7065 25.7481L25.7533 1.05127H32.4604L41.5073 25.7481L50.5021 1.05127H57.8332L44.2109 38.4865H38.8036L29.0809 11.9699L19.4101 38.4865H14.0028ZM62.0296 38.4865V1.05127H68.841V38.4865H62.0296ZM74.2847 38.4865V1.05127H81.1998V16.2853H89.9866L102.777 1.05127H110.264V3.02702L96.2258 19.7689L110.316 36.5107V38.4865H102.777L89.9866 23.2524H81.1998V38.4865H74.2847ZM0.259766 54.7344V45.3886H7.79877C8.12809 45.3886 8.4314 45.4709 8.70866 45.6355C8.98598 45.8002 9.20695 46.0211 9.37157 46.2985C9.53626 46.5671 9.61854 46.866 9.61854 47.1953V49.717C9.61854 50.0463 9.53626 50.3496 9.37157 50.6269C9.20695 50.9042 8.98598 51.1252 8.70866 51.2898C8.4314 51.4458 8.12809 51.5238 7.79877 51.5238L1.97555 51.5368V54.7344H0.259766ZM2.13153 49.795H7.72078C7.76413 49.795 7.80313 49.782 7.83777 49.756C7.87247 49.73 7.88976 49.6954 7.88976 49.652V47.2603C7.88976 47.217 7.87247 47.1823 7.83777 47.1563C7.80313 47.1217 7.76413 47.1044 7.72078 47.1044H2.13153C2.0882 47.1044 2.0492 47.1217 2.01454 47.1563C1.98855 47.1823 1.97555 47.217 1.97555 47.2603V49.652C1.97555 49.6954 1.98855 49.73 2.01454 49.756C2.0492 49.782 2.0882 49.795 2.13153 49.795ZM10.5677 54.7344V45.3756H19.1856V47.1044H12.2965V49.1841H17.8337V50.9259H12.2965V53.0056H19.1856V54.7344H10.5677ZM27.9546 54.7344L25.1339 51.3678H27.3826L29.8263 54.2534V54.7344H27.9546ZM20.4935 54.7344V45.3886H28.0326C28.3618 45.3886 28.6651 45.4709 28.9424 45.6355C29.2197 45.8002 29.4407 46.0211 29.6054 46.2985C29.77 46.5671 29.8523 46.866 29.8523 47.1953V49.717C29.8523 50.0463 29.77 50.3496 29.6054 50.6269C29.4407 50.9042 29.2197 51.1252 28.9424 51.2898C28.6651 51.4458 28.3618 51.5238 28.0326 51.5238L22.2093 51.5368V54.7344H20.4935ZM22.3653 49.795H27.9546C27.9979 49.795 28.0369 49.782 28.0716 49.756C28.1062 49.73 28.1236 49.6954 28.1236 49.652V47.2603C28.1236 47.217 28.1062 47.1823 28.0716 47.1563C28.0369 47.1217 27.9979 47.1044 27.9546 47.1044H22.3653C22.3219 47.1044 22.2829 47.1217 22.2483 47.1563C22.2223 47.1823 22.2093 47.217 22.2093 47.2603V49.652C22.2093 49.6954 22.2223 49.73 22.2483 49.756C22.2829 49.782 22.3219 49.795 22.3653 49.795ZM31.2457 54.7344V45.3756H39.8636V47.1044H32.9745V49.1841H38.5118V50.9259H32.9745V54.7344H31.2457ZM42.3938 54.7344C42.0645 54.7344 41.7611 54.652 41.4839 54.4874C41.2152 54.3228 40.9986 54.1061 40.834 53.8375C40.6693 53.5602 40.587 53.2569 40.587 52.9276V47.1823C40.587 46.853 40.6693 46.5541 40.834 46.2855C40.9986 46.0081 41.2152 45.7872 41.4839 45.6225C41.7611 45.4579 42.0645 45.3756 42.3938 45.3756H48.139C48.4683 45.3756 48.7672 45.4579 49.0359 45.6225C49.3132 45.7872 49.5341 46.0081 49.6988 46.2855C49.8635 46.5541 49.9458 46.853 49.9458 47.1823V52.9276C49.9458 53.2569 49.8635 53.5602 49.6988 53.8375C49.5341 54.1061 49.3132 54.3228 49.0359 54.4874C48.7672 54.652 48.4683 54.7344 48.139 54.7344H42.3938ZM42.4588 53.0056H48.048C48.0913 53.0056 48.1303 52.9926 48.165 52.9666C48.1997 52.932 48.217 52.893 48.217 52.8496V47.2603C48.217 47.217 48.1997 47.1823 48.165 47.1563C48.1303 47.1217 48.0913 47.1044 48.048 47.1044H42.4588C42.4154 47.1044 42.3764 47.1217 42.3418 47.1563C42.3158 47.1823 42.3028 47.217 42.3028 47.2603V52.8496C42.3028 52.893 42.3158 52.932 42.3418 52.9666C42.3764 52.9926 42.4154 53.0056 42.4588 53.0056ZM58.8383 54.7344L56.0176 51.3678H58.2664L60.71 54.2534V54.7344H58.8383ZM51.3772 54.7344V45.3886H58.9163C59.2455 45.3886 59.5488 45.4709 59.8262 45.6355C60.1034 45.8002 60.3244 46.0211 60.4891 46.2985C60.6537 46.5671 60.736 46.866 60.736 47.1953V49.717C60.736 50.0463 60.6537 50.3496 60.4891 50.6269C60.3244 50.9042 60.1034 51.1252 59.8262 51.2898C59.5488 51.4458 59.2455 51.5238 58.9163 51.5238L53.093 51.5368V54.7344H51.3772ZM53.249 49.795H58.8383C58.8816 49.795 58.9206 49.782 58.9553 49.756C58.9899 49.73 59.0073 49.6954 59.0073 49.652V47.2603C59.0073 47.217 58.9899 47.1823 58.9553 47.1563C58.9206 47.1217 58.8816 47.1044 58.8383 47.1044H53.249C53.2056 47.1044 53.1667 47.1217 53.132 47.1563C53.106 47.1823 53.093 47.217 53.093 47.2603V49.652C53.093 49.6954 53.106 49.73 53.132 49.756C53.1667 49.782 53.2056 49.795 53.249 49.795ZM62.1034 54.7344V45.3756H63.9882L67.3806 49.4181L70.7602 45.3756H72.6579V54.7344H70.9291V47.8713L67.3806 52.0957L63.8192 47.8842V54.7344H62.1034ZM74.1885 54.7344V47.1823C74.1885 46.853 74.271 46.5541 74.4354 46.2855C74.5999 46.0081 74.8169 45.7872 75.0853 45.6225C75.3629 45.4579 75.6657 45.3756 75.9952 45.3756H81.7275C82.057 45.3756 82.3599 45.4579 82.6374 45.6225C82.9149 45.7872 83.1359 46.0081 83.3003 46.2855C83.4647 46.5541 83.5473 46.853 83.5473 47.1823V54.7344H81.8185V51.5888H75.9042V54.7344H74.1885ZM75.9042 49.873H81.8185V47.2603C81.8185 47.217 81.8009 47.1823 81.7665 47.1563C81.732 47.1217 81.6931 47.1044 81.6495 47.1044H76.0602C76.0167 47.1044 75.9777 47.1217 75.9432 47.1563C75.9172 47.1823 75.9042 47.217 75.9042 47.2603V49.873ZM85.0284 54.7344V45.3756H86.9132L92.6585 52.2127V45.3756H94.3872V54.7344H92.5025L86.7442 47.8842V54.7344H85.0284ZM97.6498 54.7344C97.321 54.7344 97.0174 54.652 96.7399 54.4874C96.4715 54.3228 96.2551 54.1061 96.09 53.8375C95.9256 53.5602 95.843 53.2569 95.843 52.9276V47.1823C95.843 46.853 95.9256 46.5541 96.09 46.2855C96.2551 46.0081 96.4715 45.7872 96.7399 45.6225C97.0174 45.4579 97.321 45.3756 97.6498 45.3756H105.176V47.1044H98.0138C97.8753 47.1044 97.7629 47.1433 97.6758 47.2213C97.5978 47.2993 97.5588 47.412 97.5588 47.5593V52.5506C97.5588 52.6893 97.5978 52.802 97.6758 52.8886C97.7629 52.9666 97.8753 53.0056 98.0138 53.0056H105.176V54.7344H97.6498ZM106.558 54.7344V45.3756H115.175V47.1044H108.286V49.1841H113.824V50.9259H108.286V53.0056H115.175V54.7344H106.558Z" fill="black"/>
</g>
<defs>
<clipPath id="clip0_2_135">
<rect width="115.685" height="53.9431" fill="white" transform="translate(0.125 0.791016)"/>
</clipPath>
</defs>
</svg>
